<?xml version="1.0" encoding="utf-8"?>
<!-- Generator: Adobe Illustrator 19.0.0, SVG Export Plug-In . SVG Version: 6.00 Build 0)  -->
<svg version="1.1" id="Layer_1" xmlns="http://www.w3.org/2000/svg" xmlns:xlink="http://www.w3.org/1999/xlink" x="0px" y="0px"
	 viewBox="0 0 1000 1000" style="enable-background:new 0 0 1000 1000;" xml:space="preserve">
<style type="text/css">
	.st0{fill:#FBAE3D;}
	.st1{fill:#F9D805;}
	.st2{fill:#98C13D;}
</style>
<g id="XMLID_27_">
	<path id="XMLID_344_" class="st0" d="M590.4,523.5C590.5,523.5,590.5,523.5,590.4,523.5C590.5,523.5,590.5,523.5,590.4,523.5
		C590.5,523.5,590.5,523.5,590.4,523.5z"/>
	<g id="XMLID_2_">
		<g id="XMLID_267_">
			<path id="XMLID_298_" class="st1" d="M458,642.8c18.9,12.6,36.8,26.2,53.5,40c16.7-13.8,34.6-27.3,53.5-40
				c-16.7-14.1-34.6-28-53.5-41C492.6,614.8,474.7,628.7,458,642.8z"/>
			<path id="XMLID_297_" class="st1" d="M518.3,597.2c18.9,13.1,36.8,27.1,53.4,41.2c14.2-9.2,28.9-17.9,44-25.7
				c-15.6-14.4-32.7-29.1-51.1-43.2C548.7,577.9,533.2,587.3,518.3,597.2z"/>
			<path id="XMLID_296_" class="st1" d="M621.2,694.9c-1.1-1.1-2.2-2.3-3.4-3.4c-14-14-29.7-28.8-46.7-43.5
				c-18.9,12.5-36.8,26-53.6,39.8c18.5,15.6,35.5,31.4,50.7,46.4C584.7,720.5,602.5,707.2,621.2,694.9z"/>
			<path id="XMLID_295_" class="st1" d="M370.1,629.9c-10,10.1-19.7,20.2-28.9,30.3c18.7,9,36.8,19.2,54.2,30.4c1.5-1.5,3-3,4.5-4.6
				c13.7-13.7,28.9-28.1,45.5-42.5c-18.2-11.7-37.2-22.4-56.8-31.6C382.1,618,376,624,370.1,629.9z"/>
			<path id="XMLID_294_" class="st1" d="M394.5,606.3c19.7,9.4,38.7,20.3,56.8,32.1c16.6-14.1,34.5-28.1,53.4-41.2
				c-18.9-12.6-38.8-24.3-59.4-34.3C427.1,577.2,410.1,591.9,394.5,606.3z"/>
			<path id="XMLID_293_" class="st1" d="M342.5,737.7c0.5,3.1,1.1,6.1,1.8,9.1c1.4-1.7,2.9-3.4,4.4-5.2
				C346.6,740.3,344.5,739,342.5,737.7z"/>
			<path id="XMLID_292_" class="st1" d="M340.9,727.8c4.3,2.6,8.5,5.3,12.7,8c11.4-13.2,23.5-26.5,36.3-39.6
				c-16.1-10.3-32.9-19.8-50.2-28.2c-0.8,8.2-1.2,16.5-1.2,24.9C338.5,704.8,339.4,716.5,340.9,727.8z"/>
			<path id="XMLID_291_" class="st1" d="M505.6,687.7c-16.8-13.8-34.7-27.2-53.6-39.8c-17.1,14.7-32.8,29.5-46.7,43.5
				c-1.1,1.1-2.3,2.3-3.4,3.4c18.7,12.4,36.4,25.6,53.1,39.2C470,719.1,487,703.3,505.6,687.7z"/>
			<path id="XMLID_290_" class="st1" d="M360,740c18.5,12.3,36,25.5,52.4,39c11.7-13.2,24.1-26.4,37.1-39.5
				c-16.6-13.5-34.4-26.8-53.1-39.1C383.7,713.6,371.5,726.8,360,740z"/>
			<path id="XMLID_289_" class="st1" d="M565.5,560.5c13.8-7.1,28-13.5,42.5-19c-17-19.3-37.3-34.1-59.6-42.9
				c-14.3,6.7-28.2,14.1-41.7,22.2C527.2,533,546.9,546.5,565.5,560.5z"/>
			<path id="XMLID_288_" class="st1" d="M609.8,789.6c-18.4,15.4-35.3,31-50.4,45.9c9,10.2,17.6,20.4,25.7,30.5
				c17.5-13.7,32.8-31.5,45-52.4C623.5,805.6,616.8,797.6,609.8,789.6z"/>
			<path id="XMLID_287_" class="st1" d="M444.5,554.1c15-11.5,30.7-22.6,47.2-33c-14.1-7.8-28.6-14.9-43.4-21
				c-18.6,7.9-35.7,20-50.6,35.4C413.6,540.6,429.2,546.9,444.5,554.1z"/>
			<path id="XMLID_286_" class="st1" d="M355,745.8c-2.9,3.4-5.8,6.8-8.6,10.2c6.4,24.7,16.4,47.4,29.3,66.9
				c9.9-12.6,20.5-25.4,31.7-38.2C391,771.3,373.5,758.1,355,745.8z"/>
			<path id="XMLID_285_" class="st1" d="M413.3,789.6c-11.7,13.4-22.7,26.8-33,39.9c1.2,1.6,2.4,3.3,3.6,4.8
				c16,13.8,30.7,27.6,44,40.7c0.6,0.4,1.3,0.8,1.9,1.2c10.6-13.4,21.9-27.1,34-40.8C448.6,820.6,431.7,805,413.3,789.6z"/>
			<path id="XMLID_284_" class="st1" d="M621.6,618.2c-15.1,7.7-29.8,16.2-44,25.4c16.6,14.4,31.9,28.8,45.5,42.5
				c1.5,1.5,3,3,4.5,4.6c10.7-6.9,21.6-13.4,32.8-19.5c-0.5-5.4-1.1-10.7-1.9-16c-5.3-5.6-10.7-11.2-16.3-16.8
				C635.8,631.8,628.9,625,621.6,618.2z"/>
			<path id="XMLID_283_" class="st1" d="M562.2,738.9c-15.1-15-32.2-30.8-50.7-46.3c-18.5,15.6-35.6,31.3-50.7,46.3
				c18.5,15.4,35.5,31.1,50.7,46C526.7,770,543.7,754.3,562.2,738.9z"/>
			<path id="XMLID_282_" class="st1" d="M469.1,840.9c-11.6,13.2-22.5,26.3-32.7,39.2c17.5,9.5,36.5,15.1,56.6,16.2
				c4.4-5.2,8.9-10.5,13.5-15.7C494.7,867.3,482.2,854.1,469.1,840.9z"/>
			<path id="XMLID_281_" class="st1" d="M364.7,624.5c5.2-5.2,10.7-10.6,16.4-16c-8-3.6-16.1-6.8-24.2-9.8
				c-6.3,15.2-11.2,31.6-14.3,48.8C349.8,639.8,357.1,632.1,364.7,624.5z"/>
			<path id="XMLID_280_" class="st1" d="M511.5,886.4c-3,3.4-5.9,6.8-8.7,10.1c5.5-0.1,10.9-0.6,16.3-1.4
				C516.6,892.2,514.1,889.3,511.5,886.4z"/>
			<path id="XMLID_279_" class="st1" d="M499.1,516.5c12.7-7.7,25.7-14.9,39.1-21.4c-12.2-3.7-25-5.7-38.1-5.7
				c-14.4,0-28.3,2.4-41.5,6.8C472.3,502.2,485.9,509.1,499.1,516.5z"/>
			<path id="XMLID_278_" class="st1" d="M505.1,791.3c0.3-0.3,0.7-0.7,1-1c-15.2-14.9-32.2-30.6-50.7-45.9
				c-13,13.1-25.4,26.3-37.1,39.5c18.4,15.4,35.3,31,50.4,45.9C480.3,816.9,492.4,804.1,505.1,791.3z"/>
			<path id="XMLID_277_" class="st1" d="M615.6,784.7c6.3,7.3,12.5,14.5,18.4,21.7c8.3-15.5,14.9-32.6,19.6-50.7
				C640.4,765.1,627.7,774.8,615.6,784.7z"/>
			<path id="XMLID_276_" class="st1" d="M553.9,840.9c-13.1,13.1-25.5,26.4-37.3,39.7c3.8,4.3,7.5,8.6,11.1,12.9
				c18.3-4,35.6-11.9,51.2-23C571,860.7,562.7,850.8,553.9,840.9z"/>
			<path id="XMLID_275_" class="st1" d="M387.1,602.9c15.5-14.4,32.4-29.2,50.6-43.6c-14.9-6.9-30.2-12.8-45.7-17.7
				c-12.7,14.4-23.5,31.3-32.1,50.1C369.1,595.1,378.1,598.8,387.1,602.9z"/>
			<path id="XMLID_274_" class="st1" d="M656.2,744.6c0.7-3.4,1.3-6.8,1.9-10.2c-10-11.4-20.5-22.7-31.5-34
				c-18.7,12.3-36.4,25.5-53.1,39.1c13,13.1,25.4,26.3,37.1,39.5C625,767.2,640.2,755.6,656.2,744.6z"/>
			<path id="XMLID_273_" class="st1" d="M604.7,783.9c-11.7-13.2-24.1-26.4-37.1-39.5c-18.5,15.4-35.5,31-50.7,45.9
				c0.3,0.3,0.7,0.7,1,1c12.7,12.8,24.8,25.6,36.3,38.5C569.4,814.9,586.3,799.3,604.7,783.9z"/>
			<path id="XMLID_272_" class="st1" d="M548.9,835.2c-11.5-12.9-23.6-25.7-36.3-38.5c-0.3-0.3-0.7-0.7-1-1c-0.3,0.3-0.7,0.7-1,1
				c-12.7,12.8-24.8,25.6-36.3,38.5c13.1,13.1,25.6,26.4,37.4,39.7C523.3,861.6,535.8,848.3,548.9,835.2z"/>
			<path id="XMLID_271_" class="st1" d="M647.8,633c2.9,2.9,5.7,5.8,8.5,8.7c-2.5-12.1-5.9-23.8-10-35c-5.8,2.5-11.6,5.2-17.4,8
				C635.5,620.8,641.8,627,647.8,633z"/>
			<path id="XMLID_270_" class="st1" d="M572.1,565.7c18.3,14.2,35.3,29,50.8,43.4c6.8-3.3,13.6-6.5,20.5-9.5
				c-7.9-19.3-18.2-36.7-30.3-51.8C599.2,552.9,585.5,558.9,572.1,565.7z"/>
			<path id="XMLID_269_" class="st1" d="M661.1,679.5c-9.5,5.3-18.9,10.8-28,16.7c9.1,9.4,17.9,18.9,26.4,28.4
				c1.3-10.3,1.9-20.9,1.9-31.6C661.5,688.4,661.3,684,661.1,679.5z"/>
			<path id="XMLID_268_" class="st1" d="M452.1,557.8c20.6,10.2,40.5,22.1,59.4,34.8c14.9-10.1,30.4-19.6,46.5-28.2
				c-18.5-13.9-38.2-27.2-58.8-39.1C482.8,535.5,467.1,546.4,452.1,557.8z"/>
		</g>
	</g>
	<g id="XMLID_1_">
		<path id="XMLID_343_" class="st2" d="M475.7,416c0.4,1.2,0.8,2.2,1.1,3.3c0.4,1.3,0.7,2.7,1,3.7c0.3,1.6,0.6,3.2,0.9,4.9l0.2,0.8
			l0.1,0.6l0.4,1.9c0.5,2.8,1,5.3,1.2,7.9c0.4,4.9,0.6,10.2,0.7,16.7l0,2.3c0,1.9,0,3.8,0.1,5.7l0,1.5c0,1.8,0.1,4.1,0.2,6.3
			c0.2,3.1,0.4,5.7,0.8,8.1c0.4,2.3,0.9,4.8,1.8,7.3c0.1,0.3,0.1,0.6,0.2,0.8l0.1,0.2c0.1,0.4,0.2,0.9,0.4,1.4
			c0.4,1.1,1.1,2.2,2,2.9c1.1,1,2.4,1.5,3.9,1.5c0.2,0,0.3,0,0.5,0c0.6,0,1.1-0.1,1.6-0.3c0.5-0.1,0.9-0.3,1.3-0.5l0.3-0.2
			c0.5-0.2,0.9-0.5,1.4-0.7c0.3-0.1,0.6-0.3,0.8-0.4c1-0.5,1.8-1.1,2.5-1.7c1.3-1.1,2.3-2.1,3.2-3.1c0.9-0.9,1.7-1.9,2.5-2.9
			l0.1-0.1c1-1.2,1.7-2.5,2.5-3.8l0.3-0.4c1.2-2.1,2.4-4.4,3.6-7l0.1-0.3c0.3-0.7,0.7-1.5,0.9-2.2c0.2-0.6,0.4-1.2,0.6-1.8l0.1-0.3
			l0-0.1c0.4-1.2,0.8-2.5,1.1-3.7c0.4-1.6,0.8-2.8,1-3.9c0.2-0.7,0.3-1.4,0.5-2.1c0.3-1.4,0.5-2.7,0.5-4c0.1-3.2,0.1-5.7,0-8
			c-0.4-5.6-1.6-11.4-3.7-17.1c-0.9-2.6-2.2-5-3.4-7.3c-0.8-1.4-1.6-2.9-2-3.7c-0.7-1.3-1.7-2.6-2.5-3.7l-0.2-0.3
			c-0.6-0.9-1.4-1.7-2-2.5l-0.1-0.1c-0.2-0.2-0.4-0.4-0.6-0.6c-0.8-0.9-1.7-1.8-2.5-2.7l-0.2-0.2c-1.7-1.9-3.9-3.6-6.5-5.4
			c-1.1-0.8-2.3-1.5-3.5-2.3c-1.3-0.8-2.5-1.5-3.6-2.1c-0.4-0.2-0.9-0.4-1.2-0.6l-0.5-0.2c-0.6-0.3-1.3-0.6-2-0.9
			c-0.8-0.4-1.6-0.8-2.2-1.2l-0.2-0.1c-0.4-0.2-0.8-0.4-1.2-0.6c-0.8-0.4-1.6-0.8-2.5-1.2c-0.6-0.3-1.3-0.5-1.9-0.8l-0.1,0l-0.5-0.2
			c-0.6-0.2-1.3-0.4-1.9-0.6l-0.1,0l-0.4-0.1c-0.4-0.1-0.8-0.2-1.2-0.4l-0.1,0c-0.2-0.1-0.5-0.1-0.7-0.2c-0.3-0.1-0.5-0.1-0.8-0.2
			l-0.3,0l-0.1,0c-0.3,0-0.5,0-0.8,0.1c-0.2,0.1-0.5,0.1-0.7,0.2c-0.2,0.1-0.3,0.2-0.5,0.3l-0.5,0.5c-0.4,0.4-0.6,0.9-0.8,1.4
			c-0.2,0.5-0.1,1,0,1.4c0.1,0.3,0.3,0.6,0.5,0.9l0.2,0.2c0.2,0.2,0.4,0.5,0.6,0.7c0.8,1.2,1.5,2.4,2.1,3.5c0.4,0.6,0.8,1.4,1.2,2.2
			c0.8,1.3,1.4,2.4,1.9,3.4c0.6,1.1,1.1,2.2,1.6,3.2C473.9,411.4,474.8,413.8,475.7,416z"/>
		<path id="XMLID_342_" class="st2" d="M529.8,491.8c1.2-0.7,2.4-1.5,3.5-2.3c1.8-1.5,4.2-3.5,6.4-5.7c2.1-2.2,3.9-4.8,5.5-7
			c1.5-2.2,2.9-4.5,4.3-7c0.6-1,1.2-2.2,1.8-3.5c0.6-1.4,1.2-2.9,1.9-4.6c1-2.7,1.9-5.5,2.6-8.1c0.6-2.4,1.2-5,1.5-7.9
			c0-0.3,0.1-0.5,0.1-0.8l0-0.1c0.1-0.7,0.2-1.3,0.2-1.9c0-0.2,0-0.4,0.1-0.6l0-0.1c0-0.5,0.1-0.9,0.1-1.4c0-1.4,0-2.8-0.1-4.2
			c-0.1-1.3-0.2-2.6-0.3-4.3c-0.1-1.5-0.3-2.7-0.5-3.8c-0.4-1.7-0.7-3.2-1.1-4.5c-0.4-1.2-0.8-2.6-1.3-4c-0.5-1.4-1.1-2.7-1.7-4
			c-0.5-1.1-1.2-2.2-1.8-3.3l-0.2-0.4c-0.7-1.2-1.5-2.4-2.2-3.5c-0.8-1.2-1.7-2.5-2.6-3.9c-1.7-2.4-3.4-4.5-5.1-6.5
			c-1-1.2-2.1-2.4-3.3-3.7c-0.6-0.7-1.3-1.3-1.9-2l-0.1-0.1c-0.4-0.4-0.9-0.9-1.3-1.3l-0.1-0.1c-1-1-2.1-2.2-3.1-3.4l-0.1-0.1
			c-0.5-0.6-1-1.2-1.5-1.8c-0.5-0.6-0.9-1.2-1.3-1.7l-0.1-0.2l0-0.1c-0.2-0.4-0.5-0.8-0.7-1.2c-0.3-0.6-0.6-1.2-1-2
			c-0.5-1.1-0.9-2.4-1.1-3.4c-0.2-1.2-0.4-2.4-0.5-3.5c-0.1-1-0.1-2.1-0.2-3.1l0-0.1l0-0.7c0-0.6-0.1-1.2-0.2-1.7
			c-0.1-0.2-0.3-0.5-0.5-0.6c-0.4-0.3-0.5-0.3-0.9-0.4l-0.1,0c-0.1,0-0.1,0-0.2,0c-0.4,0-0.9,0.2-1.3,0.4c-0.1,0-0.2,0.1-0.3,0.1
			l0,0l-0.2,0.1c-1.2,0.7-2.2,1.6-3.1,2.5l-0.1,0.1c-0.9,0.8-1.7,1.7-2.5,2.6c-1,1.1-1.9,2.4-2.7,3.7c-0.8,1.3-1.5,2.4-2,3.6
			c-0.6,1.2-1.1,2.6-1.6,4.3c-0.4,1.3-0.7,2.7-0.9,4c-0.3,1.5-0.5,3-0.6,4.6c-0.2,2.7-0.1,5.5,0.1,8.3c0.2,1.6,0.5,3.2,0.8,4.4
			c0.4,1.5,0.7,2.8,1.2,3.9c0.9,2.4,1.9,4.7,2.9,7l0.2,0.5c0.4,0.9,0.8,1.7,1.2,2.6l0.1,0.3l0.1,0.3c0.2,0.5,0.5,1,0.7,1.5
			c0.2,0.4,0.4,0.9,0.6,1.3l0,0.1l0,0.1c0.5,1.1,1,2.2,1.5,3.4c1.2,3,1.9,6.1,2.7,9.6c0.7,3.2,1.1,5.8,1.2,8.2
			c0.2,2.8,0.2,5.7-0.1,8.5c-0.5,3.2-1.2,6.4-2.1,9.4l-0.1,0.2c-0.5,1.5-0.9,3-1.4,4.5c-0.4,1.3-0.9,2.7-1.5,4.2
			c-0.6,1.4-1.2,2.8-2,4.5l-0.2,0.3l0,0.1c-0.7,1.4-1.3,2.8-2.1,4.2c-1.7,3-3.5,6-5.5,9.2c-0.3,0.3-0.6,0.6-0.8,1
			c-0.5,0.9-0.7,2.2,0.1,2.9c0.6,0.5,1.3,0.5,2.1,0.6c0.2,0,0.4,0,0.5,0c0.9,0.1,1.8,0.2,2.6,0.2c0.3,0,0.6,0,0.9,0
			c0.5,0,1.1,0,1.6,0l0.1,0l1,0c1.2,0,2.5,0,3.9-0.1c1.7-0.1,3.1-0.2,4.3-0.3c1.6-0.2,3.1-0.6,4.2-1c1.1-0.4,2.1-0.8,3.2-1.3
			C529.5,492,529.7,491.9,529.8,491.8z"/>
		<path id="XMLID_341_" class="st2" d="M644.4,382c-0.1,0-0.1,0-0.2,0c-0.4,0-0.9,0.1-1.4,0.3c-0.5,0.1-0.9,0.3-1.4,0.4
			c-0.8,0.3-1.9,0.6-2.9,1l-0.2,0.1l-0.8,0.3l-0.7,0.2c-0.7,0.2-1.4,0.4-2.1,0.5c-1.8,0.5-3.6,1.1-5.3,1.6l-0.5,0.1
			c-0.5,0.2-1.1,0.3-1.6,0.5c-1.1,0.3-2.2,0.7-3.2,1l-0.4,0.1c-3.9,1.2-7.8,2.4-11.6,3.9c-3.6,1.4-7.1,3-10.4,4.6
			c-1.8,0.8-3.6,1.6-5.2,2.4c-1.8,0.9-3.4,1.8-5,2.8c-2.6,1.6-4.7,3.1-6.6,4.5l-0.4,0.3l-0.3,0.2l-0.1,0.1c-0.7,0.5-1.5,1.1-2.3,1.7
			c-0.7,0.6-1.4,1.1-2,1.7c-2.3,1.8-4.6,3.7-6.7,5.4c-0.7,0.6-1.5,1.2-2.2,1.8l-0.4,0.4l-0.1,0.1c-0.8,0.7-1.7,1.4-2.5,2.1
			c-1.2,1-2.3,2.1-3.1,3c-0.3,0.3-0.6,0.6-0.9,0.9c-0.5,0.5-1.1,1.1-1.6,1.6c-0.3,0.4-0.7,0.8-1,1.2c-0.3,0.2-0.6,0.4-0.9,0.7
			l-0.2,0.3l-0.2,0.3c-0.2,0.4-0.3,0.8-0.3,1.3c0.3,1.5,0.5,2.9,0.8,4.2c0.2,1.1,0.3,2.2,0.4,3.2c0.1,2.4,0,4.3-0.1,6
			c-0.6,4.4-1.2,9.3-2.9,13.9c-0.2,0.6-0.5,1.2-0.7,1.8l0,0.1l0,0.1c-0.5,1.2-1,2.5-1.3,3.8c-0.2,0.7-0.1,1.2,0,1.9
			c0.2,0.6,0.9,0.9,1.6,1c0,0,0.1,0,0.1,0c0.8,0,1.6-0.4,2.4-0.7l0.2-0.1c0.2-0.1,0.3-0.2,0.5-0.2l0.1-0.1c0.3-0.1,0.6-0.3,0.9-0.4
			c0.4-0.2,0.9-0.4,1.5-0.6l0.1,0c0.8-0.3,1.8-0.6,2.7-0.8c0.5-0.1,1.1-0.2,1.6-0.3l0.1,0c0.5-0.1,0.9-0.2,1.3-0.2
			c2.1-0.4,4-0.7,5.9-0.9c0.8,0,1.6-0.1,2.4-0.1c1.6,0,3.1,0,4.6-0.3c0.6-0.1,1.1-0.3,1.6-0.5l0,0c0.7-0.3,1.3-0.9,2-1.7
			c0.6-0.7,1.1-1.6,1.6-2.4c0.4-0.7,0.8-1.4,1.2-2l0-0.1c0.2-0.4,0.4-0.8,0.6-1.1c1-1.9,2.1-3.7,3.1-5.6c1.2-2.2,3.1-5.6,4.8-8.7
			l0.2-0.3c2.1-3.6,4.2-7.3,6.5-10.9c2.7-4.2,5.2-7.9,7.5-11.2l0.2-0.3l0.1-0.2c0.2-0.2,0.3-0.5,0.5-0.7l0.1-0.2l0.1-0.2l0-0.1
			l0.1-0.1l0.1-0.1c1.2-1.5,2.3-2.9,3.3-4.2c0.9-1.2,2-2.4,2.9-3.4l0.5-0.6c2.2-2.5,4.5-4.9,7.2-7.5c4.1-3.6,8.2-6.7,12.3-9.2
			c1.1-0.6,2.2-1.2,3.3-1.8l0.4-0.2c0.3-0.2,0.7-0.3,1-0.5c0.2-0.1,0.3-0.2,0.5-0.2l0.1,0c0.2-0.1,0.4-0.2,0.6-0.3
			c0.3-0.1,0.5-0.3,0.6-0.4c0.5-0.4,1-1,1.2-1.8c0.2-0.7,0-1.3-0.4-1.8C645.3,382.1,644.8,382,644.4,382z"/>
		<path id="XMLID_338_" class="st2" d="M385.5,505.6c0.1,0,0.2,0,0.3,0c0.4,0,0.7-0.1,1.1-0.2c0.2-0.1,0.4-0.2,0.6-0.3
			c0.3-0.2,0.7-0.4,1-0.6c0.5-0.3,1-0.7,1.4-1c1.6-1.2,3.3-2.3,5.1-3.3c0.7-0.4,1.6-0.9,2.6-1.4c0.2-0.1,0.4-0.2,0.6-0.3
			c1-0.5,2.1-0.9,3.1-1.2l0.1,0l0.1,0c2-0.6,4.2-1.3,6.5-1.7c2-0.4,4.1-0.6,6.7-0.9l0.1,0c0.6,0,1.3-0.1,2-0.1c0.4,0,0.7,0,1,0
			c1,0.1,1.9,0.2,3.2,0.5c1.1,0.3,2.1,0.6,2.9,0.9c0.8,0.3,1.6,0.7,2.5,1.3c1.2,0.8,2.2,1.6,3,2.5c0.9,0.9,1.7,1.8,2.4,2.8
			c1.1,1.3,2.2,2.2,3.3,2.6c0.4,0.1,0.7,0.2,1.1,0.2c0.8,0,1.8-0.3,2.9-0.8c0.5-0.3,1-0.5,1.5-0.8l0.1-0.1l0.5-0.3
			c1.6-0.9,3.3-1.9,5-2.8c0.6-0.3,1.1-0.5,1.6-0.8c1.2-0.5,2.4-1,3.4-1.4l0.3-0.1l0.3-0.1c0.8-0.3,1.6-0.6,2.3-0.9
			c0.1,0,0.2-0.1,0.3-0.1c0.6-0.4,1.1-0.7,1.6-1c0.4-0.3,0.7-0.6,1-0.9c0.6-0.7,0.9-1.5,1.2-2.2c0.2-0.6,0.2-1.3,0.1-1.7
			c-0.1-0.5-0.2-1-0.3-1.4c-0.1-0.3-0.2-0.7-0.4-1.1c-0.2-0.5-0.4-1.2-0.7-1.8c-0.4-0.8-0.9-1.6-1.5-2.4c-1-1.4-2-2.4-3.1-3.3
			l-0.2-0.1c-0.4-0.3-0.9-0.7-1.4-1c-0.8-0.6-1.5-1-2.2-1.4c-2.4-1.4-5-2.5-7.8-3.4c-0.6-0.2-1.1-0.3-1.7-0.5l-0.4-0.1l-0.2,0
			c-0.5-0.1-1.2-0.3-1.8-0.4l-1.3-0.2l-1.1-0.2c-0.5-0.1-1-0.1-1.6-0.2l-0.1,0c-0.2,0-0.4,0-0.7-0.1c-1.3-0.1-2.5-0.2-4-0.2
			c-0.7,0-1.3,0-2,0c-0.8,0-1.5,0-2.3,0c-0.5,0-1.1,0-1.5,0.1c-0.3,0-0.5,0-0.7,0c-0.7,0-1.3,0.1-1.9,0.2l-0.1,0l-0.5,0.1
			c-1.5,0.2-2.7,0.4-3.9,0.6c-0.2,0-0.4,0.1-0.6,0.1l-0.1,0c-0.4,0.1-0.9,0.2-1.3,0.3l-2.2,0.6c-0.6,0.2-1.1,0.4-1.8,0.6
			c-0.3,0.1-0.5,0.2-0.8,0.3c-0.5,0.2-0.9,0.4-1.4,0.5l-0.5,0.2c-0.6,0.2-1.3,0.5-1.9,0.9c-1.1,0.6-2.3,1.3-3.6,2.1
			c-1,0.7-2.1,1.5-3.5,2.5c-1.3,1-2.4,1.9-3.3,2.8l-0.1,0.1c-0.5,0.4-0.9,0.9-1.4,1.3c-0.6,0.6-1.1,1.2-1.5,1.7
			c-0.7,0.8-1.4,1.7-2.1,2.9c-0.6,1-1.2,1.9-1.8,2.9c-0.5,0.9-0.9,1.8-1.3,2.7l-0.1,0.2c-0.4,1-0.9,2.2-1.3,3.6
			c-0.2,0.5-0.3,1-0.4,1.5c-0.3,1-0.5,2.3,0.4,3.1C384.8,505.5,385.1,505.6,385.5,505.6z"/>
		<path id="XMLID_335_" class="st2" d="M462.9,339.9c1.5,2.9,2.6,5.2,3.5,7.4c1,2.4,2,4.9,2.7,7l0.2,0.4l0.4,1.2
			c0.3,0.8,0.6,1.5,0.9,2.3c0.4,1.1,0.7,2.2,1,3.3l0.2,1l0,0.1c0.1,0.7,0.3,1.4,0.4,2.1c0.1,0.6,0.3,1.2,0.5,1.8l0,0.1l0,0.1
			c0.1,0.2,0.1,0.3,0.2,0.5c0.1,0.3,0.2,0.6,0.3,1.1c0.2,1.4,0.4,2.7,0.6,4c0.1,0.8,0.2,1.4,0.3,1.9c0,0.2,0.1,0.3,0.1,0.5l0,0.1
			c0.1,0.3,0.1,0.7,0.2,1c0.1,1.4,0.2,2.7,0.4,4.2l0.1,0.9c0.1,0.7,0.1,1.6,0.2,2.5l0,0.6l0,0.1c0,0.8,0.1,1.6,0.1,2.5
			c0,0.5,0.1,1.1,0.2,1.6c0.1,0.5,0.2,1,0.5,1.5c0.4,0.6,0.7,0.9,1.1,1.3c0.6,0.5,1.2,0.8,1.8,1.1c0.6,0.3,1.2,0.7,1.8,1
			c1,0.6,2,1.2,3.3,1.9c1.2,0.7,2.4,1.4,3.4,2l1.1,0.6c0.6,0.4,1.3,0.7,2.1,1.1c0.6,0.3,1.1,0.6,1.8,1l0.1,0.1l0.1,0.1l0.1,0.1
			c0.4,0.3,0.8,0.5,1.3,0.8c0.2,0.1,0.4,0.2,0.6,0.3l0.2,0.1c0.2,0.1,0.4,0.2,0.7,0.3c0.7,0.5,1.3,1,1.8,1.5
			c0.2,0.2,0.3,0.3,0.5,0.5c0.2,0.2,0.5,0.4,0.7,0.7c0.2,0.2,0.4,0.4,0.6,0.7l0.2,0.2c0.1,0.1,0.2,0.3,0.3,0.4l0.1,0.1
			c0,0.1,0.1,0.1,0.1,0.2c0.2,0.2,0.4,0.3,0.6,0.4l0.1,0.1c0.2,0.1,0.4,0.1,0.6,0.1c0.3,0,0.8-0.1,1.2-0.3l0.1,0l0.1,0
			c0.3-0.2,0.6-0.4,0.9-0.6c0.8-0.5,1.6-1.5,1.5-2.5c-0.2-1.9-0.3-3.9-0.3-5.8c0-1.8,0.1-3.6,0.3-5.4c0.1-1.1,0.2-1.9,0.4-2.7
			c0.3-1.1,0.6-2.2,0.9-3.2c0.3-0.7,0.6-1.4,1-2.1l0-0.1l0.4-0.8c0.6-1.2,1.1-2.3,1.6-3.3c0.4-0.7,0.8-1.4,1.2-2.2l0.2-0.3l0.4-0.7
			c0.7-1.3,1.3-2.7,1.8-3.9c0.9-2.2,1.8-4.8,2.3-7.6c0.3-1.5,0.3-3,0.4-4.5c0.1-1.2,0-2.4-0.3-3.7c-0.2-1-0.5-2.1-0.8-3.1l0-0.1
			c-0.1-0.3-0.2-0.6-0.3-0.9c-0.2-0.6-0.3-1.2-0.5-1.8l-0.1-0.5c-0.1-0.5-0.3-1.1-0.4-1.6c-0.3-1-0.6-2.1-1-3l-0.3-0.7l-0.3-0.8
			l0-0.1c-0.3-0.9-0.6-1.9-1-2.8c-0.5-1.2-1-2.6-1.7-4c-0.6-1.2-1.2-2.3-1.8-3.4c-1.3-2.4-2.7-4.7-4.2-6.8c-1.9-2.7-3.5-4.9-5.1-6.8
			c-2-2.3-3.7-4.2-5.7-5.9c-2.4-1.9-4.9-3.5-7.1-4.8c-0.9-0.5-2.2-1.3-3.5-1.9c-1.2-0.6-2.5-1.1-3.8-1.6c-2.8-1.1-5.8-1.7-8-2.2
			c-1.3-0.3-2.6-0.3-4-0.4l-0.1,0c-0.3,0-0.7,0-1,0c-1.1,0-2.3,0.1-3.3,0.2c-0.9,0.1-1.8,0.2-2.5,0.3l-0.1,0l-0.1,0
			c-0.4,0-0.7,0.1-1.1,0.1c-1.6,0.2-2.9,0.4-4.1,0.6c-1.4,0.2-2.8,0.7-3.8,1c-1.5,0.4-2.9,1-4.1,1.5c-0.5,0.2-0.9,0.4-1.3,0.6
			c-1,0.5-1.9,1-2.8,1.6c-0.2,0.1-0.3,0.2-0.5,0.4c-0.2,0-0.3,0.1-0.5,0.2c-0.4,0.2-0.7,0.5-1,0.8c-0.6,0.6-0.9,1.5-0.9,2.2
			c0,0.5,0.3,1.2,1,1.5c1,0.4,2.2,0.8,3.3,1.1l0.4,0.1l0.2,0.1l0.1,0l0.2,0.1c0.2,0.1,0.4,0.1,0.6,0.2l0.1,0
			c0.3,0.1,0.6,0.2,0.9,0.3c0.7,0.3,1.3,0.6,1.9,1l0.1,0.1l0.2,0.1c1.3,1,2.7,2.2,4.2,3.7c1.7,1.8,3.1,3.4,4.2,5
			c1.3,2,2.6,4.3,4,6.9c0.7,1.4,1.5,2.9,2,4.1C461.9,337.9,462.4,338.9,462.9,339.9z"/>
		<path id="XMLID_334_" class="st2" d="M562.9,336.4c0.4-1.7,0.7-3,0.9-4.2c0.2-1.4,0.4-2.7,0.6-4.3c0.3-2.5,0.5-5.3,0.5-8.6
			c0-3.1,0-5.9-0.1-8.6c0-1.9-0.1-3.8-0.2-5.5l0-0.2c0-0.8-0.1-1.6-0.1-2.4c-0.1-2.7-0.3-5.3-0.6-7.9c-0.2-2.4-0.6-4.8-0.8-7l0-0.2
			l-0.2-1.6c-0.3-2.7-0.6-5.4-0.9-7.8l0-0.3l-0.2-2c-0.2-2.1-0.4-4.2-0.7-6.4c-0.2-2.5-0.4-5.2-0.6-8.6c-0.3-6.4-0.3-12,0.2-17.2
			c0.3-2.4,0.7-4.9,1.1-7.6c0.4-2.2,0.9-5.1,1.7-7.9c0.4-1.5,0.9-3.1,1.4-4.5l0.1-0.2c0.4-1.2,0.7-2.3,1.1-3.5
			c0.8-2.7,1.7-5.4,2.6-8.2c0.4-1.1,0.8-2.2,1.2-3.4c0.1-0.3,0.2-0.6,0.4-0.8c0.1-0.1,0.1-0.3,0.2-0.4l0-0.1c0.3-0.7,0.6-1.4,0.5-2
			c-0.1-0.5-0.2-1.1-0.9-1.3c-0.2-0.1-0.4-0.1-0.6-0.1c-0.3,0-0.6,0.1-0.9,0.2l-0.1,0c-0.5,0.3-0.8,0.5-1.2,0.8
			c-0.2,0.2-0.4,0.4-0.7,0.6l-1.7,1.5c-1.3,1.2-2.4,2.1-3.4,3c-1.9,1.8-3.9,3.7-6.2,6c-1.5,1.5-2.9,3.2-4.2,4.6l-0.3,0.3l-0.8,0.9
			c-0.7,0.8-1.4,1.6-2.1,2.4c-1.1,1.2-2.4,2.8-3.7,4.3c-2.3,2.7-4.5,5.5-6.8,8.3c-2.3,2.9-4.5,5.9-6.4,8.5c-1,1.3-1.9,2.7-2.9,4
			l-0.4,0.6c-0.6,0.8-1.2,1.6-1.7,2.4c-1.8,2.4-3.4,4.9-4.8,7.2c-2,3.1-3.5,5.5-4.9,7.8c-1.5,2.4-2.9,4.9-4.1,7
			c-1.5,2.7-2.9,5.2-4.1,7.6c-1.3,2.4-2.4,5-3.4,7.3c-1.1,2.6-2.3,5.3-3.3,7.8c-0.7,1.7-1.3,3.1-1.8,4.5c-0.4,1.1-0.9,2.3-1.2,3.5
			l0,0.1l0,0.1c-0.1,0.5-0.3,0.9-0.4,1.4c-0.2,1-0.4,1.9-0.4,3c-0.1,1.3,0.2,2.6,0.8,4.1c0.3,0.8,0.7,1.6,1.1,2.3
			c0.5,1,1.1,1.8,1.6,2.6c1.2,1.8,2.6,3.3,4,4.9c1.2,1.3,2.3,2.7,3.3,4c1.3,1.9,2.7,3.9,3.7,6.1l0,0.1c0.5,1,1,2.1,1.5,3.2
			c0.5,1.2,1,2.5,1.4,3.6c0.5,1.4,1.1,2.8,1.7,4.3l0,0.1l0.2,0.5c0.3,0.7,0.6,1.4,0.8,2.1c0.4,1.1,0.9,2.3,1.3,3.5
			c0.4,1.1,0.6,2.2,0.8,3.2c0.2,1.3,0.4,2.4,0.5,3.6c0,0.7,0.1,1.5,0.1,2.2c0,0.2-0.1,0.4-0.1,0.6l0,0.5c0,0.7-0.1,1.4,0,2.1
			c0,0.3,0.1,0.6,0.2,1c0.1,0.2,0.2,0.4,0.4,0.6l0.1,0.1c0.1,0.1,0.1,0.1,0.1,0.1c0.1,0.1,0.2,0.2,0.3,0.2l0.1,0
			c0.2,0.1,0.4,0.3,0.6,0.4l0.3,0.2c0.2,0.1,0.3,0.2,0.5,0.3c0.9,0.6,1.7,1.3,2.3,2c0.2,0.4,0.5,0.8,0.7,1.3l0.2,0.4l0.1,0.3
			c0.2,0.5,0.5,0.9,0.8,1.3c0.3,0.4,1.1,0.5,1.4,0.6c0,0,0.1,0,0.1,0c0.2,0,0.4,0,0.6-0.1c0.1,0,0.2,0,0.3,0c0.5-0.1,1-0.2,1.4-0.4
			c0.2-0.1,0.4-0.2,0.6-0.3c0.4-0.2,0.8-0.4,1.2-0.6c0.2-0.1,0.5-0.3,0.7-0.4c0.4-0.2,0.7-0.4,1.1-0.6c0.8-0.4,1.5-0.8,2.2-1.2
			c0.2-0.1,0.4-0.2,0.6-0.3c1.7-0.8,3.4-1.6,4.9-2.3l0.5-0.2c0.4-0.2,0.9-0.4,1.3-0.6c0.5-0.2,1-0.5,1.6-0.7c0.7-0.3,1.3-0.6,2-0.9
			c0.1-0.1,0.3-0.1,0.4-0.2c0.6-0.3,1.1-0.6,1.5-1c0.5-0.4,0.8-0.7,1.1-1.1c0.4-0.5,0.9-1,1.4-1.6c3.9-4.5,6.4-10,8.4-14.8
			C561.5,341.2,562.3,338.7,562.9,336.4z"/>
		<path id="XMLID_333_" class="st2" d="M644.5,272.3c-0.1,0-0.2,0-0.3,0c-0.7,0-1.3,0.2-2,0.3l-0.3,0.1c-0.6,0.1-1.2,0.3-1.8,0.5
			l-0.3,0.1c-1.2,0.3-2.6,0.7-4,1c-1.2,0.3-2.3,0.6-3.6,0.9l-0.2,0.1c-1.2,0.3-2.5,0.7-3.8,1c-1,0.2-2.1,0.4-3,0.6l-0.7,0.1
			c-1.2,0.2-2.3,0.5-3.6,0.7c-2.6,0.6-5.2,1.2-7.7,1.7l-0.4,0.1c-2.9,0.6-5.4,1.3-7.7,1.9c-0.6,0.2-1.1,0.4-1.6,0.6l-0.1,0
			c-0.3,0.1-0.5,0.2-0.7,0.2c-0.6,0.2-1.1,0.4-1.8,0.7c-1.4,0.6-2.8,1.2-3.9,1.7l-0.6,0.2l-0.1,0l-0.1,0c-2,0.9-4.2,1.8-6.2,2.8
			l-0.9,0.4l-0.1,0c-0.6,0.3-1.2,0.6-1.8,0.9c-1.1,0.6-2.6,1.3-4,2.1c-1,0.6-2,1.2-2.8,1.7l-0.1,0c-0.5,0.3-1,0.6-1.5,0.9l-0.4,0.3
			l-0.3,0.2c-0.9,0.6-1.8,1.1-2.7,1.7c-1.2,0.8-2.3,1.5-3.4,2.3c-0.3,0.2-0.6,0.4-0.9,0.7c-0.3,0.2-0.5,0.5-0.8,0.7
			c-0.4,0.3-0.8,0.7-1.1,1.2c-0.4,0.7-0.4,1.3-0.2,2c0.3,1.1,0.6,2,0.8,2.8c0.4,1.9,0.6,3.6,0.7,5.2c0.1,1.8,0.1,3.7,0.1,5.3l0,1.4
			l0,0.1c0,3.1,0,6.2-0.4,9.3c-0.3,2.1-0.6,4.4-1.1,6.6c-0.3,1.1-0.5,2.3-0.8,3.5c-0.2,0.9-0.5,1.9-1,3c-0.8,2-1.8,4.2-3.2,6.3
			c-0.4,0.6-0.7,1.1-1.1,1.6l-0.1,0.1c-0.2,0.3-0.5,0.7-0.7,1c-0.3,0.4-0.6,0.8-0.9,1.3l-0.1,0.1l-0.1,0.1l-0.2,0.3
			c0,0.1-0.1,0.1-0.1,0.2c-0.3,0.5-0.3,0.8-0.4,1.4l0,0.1c0,0.5,0.2,0.9,0.5,1.2c0.3,0.3,0.6,0.4,1.1,0.4c0.2,0,0.3,0,0.5,0
			c0.2,0,0.4-0.1,0.7-0.2c0.3-0.2,0.6-0.4,0.9-0.6l0.5-0.4l0.5-0.4c0.8-0.7,1.6-1.3,2.5-1.8c1.4-1,2.9-1.9,4.2-2.7l0.3-0.2
			c0.3-0.2,0.6-0.3,0.9-0.5c0.1-0.1,0.3-0.1,0.4-0.2c0.6-0.3,1.2-0.5,1.9-0.7c0.8-0.3,1.6-0.5,2.4-0.8c1-0.3,2-0.5,2.8-0.7l0.7-0.2
			l0.7-0.2c1.6-0.3,3-0.6,4.4-0.9c1.1-0.2,2.1-0.3,3.2-0.5l0.2,0c0.8-0.1,1.5-0.2,2.3-0.3c0.2,0,0.4-0.1,0.7-0.1l0.1,0
			c0.3,0,0.6-0.1,0.9-0.1c0.3-0.1,0.6-0.2,0.9-0.3c0.7-0.4,1.4-1,1.7-1.8c0.2-0.4,0.3-0.8,0.5-1.2c0.1-0.2,0.2-0.4,0.2-0.6
			c1-2.5,1.8-4.5,2.6-6.2l0.3-0.7c0.9-2.1,1.8-4.3,2.8-6.4c1-2.1,2.1-4.2,3.2-6.3l0-0.1l0.1-0.1l0.5-1c1.6-3,2.8-5.2,4-7.3
			c1.7-3,3.7-6.1,6.1-9.5l0.1-0.1c0.8-1.1,1.8-2.4,2.7-3.6c1.2-1.5,2.5-2.9,3.7-4.3c0.8-0.9,1.6-1.8,2.4-2.5l0.1-0.1
			c0.4-0.4,0.7-0.8,1.1-1.2c1.1-1.2,2.2-2.3,3.3-3.3c1.8-1.5,3.6-2.8,5.5-4.2l0.4-0.3c2.1-1.6,3.9-2.8,5.7-3.8l0.3-0.2
			c0.3-0.2,0.7-0.4,1-0.6l0.7-0.4l0.1,0c0.4-0.2,0.8-0.5,1.2-0.8c0.4-0.4,0.6-0.8,0.8-1.4c0.1-0.4,0.1-0.8,0-1.2
			C645.5,272.6,645.1,272.3,644.5,272.3z"/>
		<path id="XMLID_332_" class="st2" d="M601.9,361.8l2.1-0.3c0.5-0.1,0.9-0.1,1.4-0.1l0.2,0c0.9,0,1.8,0,2.7,0
			c1.8,0,3.6,0.1,5.5,0.2c2.7,0.2,5.7,0.4,8.7,0.6l0.1,0c0.6,0,1.2,0.1,1.8,0.1c0.1,0,0.2,0,0.3,0c0.5,0,1,0,1.6-0.1
			c0.3,0,0.6-0.1,0.9-0.3c1-0.5,1.8-1.4,2-2.4c0.1-0.4,0.1-1.1-0.1-1.5c-0.1-0.3-0.3-0.5-0.5-0.8c-0.1-0.2-0.3-0.3-0.5-0.5l-0.2-0.2
			c-0.5-0.4-1-0.8-1.4-1.2c-2.2-1.8-4.6-3.4-7.1-4.8c-1.1-0.6-2.3-1.2-3.4-1.7l-0.3-0.1c-1.2-0.5-2.5-1-3.8-1.5
			c-1.1-0.4-2.2-0.7-3.3-0.9l-0.6-0.2c-0.5-0.1-1-0.2-1.5-0.3l-0.1,0l-0.6-0.1c-0.6-0.1-1.2-0.2-2-0.3c-1.2-0.1-2.3-0.1-3.6-0.1
			c-1.7,0-3.4,0.1-4.9,0.1c-1.5,0.1-3,0.2-4.5,0.4c-1.3,0.2-2.5,0.4-3.8,0.7l-0.3,0.1c-1.2,0.3-2.3,0.6-3.4,0.9l-0.7,0.2
			c-1.5,0.5-2.9,1-4.4,1.6c-1.1,0.4-2.2,0.9-3.2,1.4l-0.1,0l-0.6,0.3c-0.7,0.3-1.5,0.7-2.3,1.1c-0.4,0.2-0.8,0.4-1.2,0.6l-1.4,0.8
			c-1.5,0.8-3.1,1.6-4.7,2.5c-0.4,0.2-0.8,0.4-1.2,0.6l-1.6,0.8c-1.3,0.6-3,1.5-4.6,2.3c-0.4,0.2-0.8,0.4-1.2,0.6
			c-2.6,1.3-5,2.8-7.5,4.3c-2,1.2-4.1,2.6-5.9,3.8l-1.1,0.7c-1,0.7-2.1,1.4-3.4,2.2c-1.3,0.8-2.3,1.5-3.3,2.3
			c-0.6,0.5-1.1,0.9-1.7,1.6c-0.5,0.5-1,1.1-1.5,2c-0.4,0.7-0.7,1.5-0.9,2.5c-0.2,1.1-0.2,2.1,0.1,3.2c0.1,0.3,0.1,0.5,0.2,0.8
			c0.2,0.6,0.5,1.2,0.8,1.9c1.2,2.3,2.9,4.2,5.1,6.4c0.4,0.4,0.8,0.8,1.2,1.3c0.5,0.5,0.9,1,1.4,1.4c1,1,1.8,1.9,2.7,2.8
			c1.7,1.8,3.4,3.8,5.2,5.8c1.7,2,3.2,4.1,4.5,5.9c0.7,1,1.3,1.9,1.8,2.9c0.5,0.9,1,1.7,1.4,2.6l0,0.1l0,0.1l0.2,0.3
			c0.6,1.1,1.1,2.2,1.6,3.3c0.4,1,0.8,2,1,3l0,0.1l0.1,0.4c0.2,0.7,0.9,0.8,1.3,0.8c0.1,0,0.3,0,0.5,0c0.2,0.1,0.4,0.1,0.6,0.1
			c0.2,0,0.3,0,0.5,0c0.2,0,0.4-0.1,0.6-0.2c0.4-0.2,0.8-0.5,1.1-0.8c0.7-0.6,1.1-1.4,1.6-2.3c0.6-1.1,1.1-2.3,1.7-4
			c0.9-2.5,1.6-5,2-7.3c0.2-0.8,0.3-1.7,0.4-2.5l0-0.2c0.3-1.6,0.6-3.4,1-5.1c0.6-2.6,1.5-5.1,2.6-8c0.1-0.4,0.3-0.7,0.4-1.1
			c0.9-2.1,1.9-4.5,3.1-6.7l0.3-0.6c0.4-0.8,0.9-1.8,1.5-2.6c0.6-1,1.3-2,2-3c1.2-1.6,2.4-3,3.6-4.4c1.2-1.4,2.5-2.6,3.8-3.8
			l0.2-0.2l0.6-0.5l0.6-0.5c0.3-0.3,0.7-0.6,1.1-0.9c0.2-0.1,0.4-0.3,0.6-0.4c1-0.7,2-1.4,2.9-1.9l0.2-0.1c0.6-0.3,1.2-0.7,1.8-0.9
			c0.3-0.1,0.5-0.3,0.8-0.4c0.9-0.4,1.9-0.8,2.6-1.1l0.8-0.2l0.8-0.2c0.2-0.1,0.4-0.1,0.7-0.2l0.3-0.1c0.1,0,0.2,0,0.3-0.1l0.1,0
			l0,0C601.5,361.9,601.7,361.9,601.9,361.8z"/>
		<path id="XMLID_330_" class="st2" d="M399.2,271.2c0.5,0.5,1,0.8,1.5,1.1c0.7,0.4,1.3,0.8,1.9,1.1c1.3,0.7,2.6,1.3,3.7,1.9
			l0.2,0.1l0.3,0.1c1.1,0.5,2.2,1.1,3.2,1.7c0.9,0.5,1.9,1,3,1.7c0.7,0.4,1.3,0.8,1.8,1.2c0.8,0.6,1.6,1.2,2.3,1.7
			c1.3,1,2.5,2.2,3.7,3.4l0.4,0.4c1,1,2.2,2.2,3.6,3.8c1.2,1.3,2.3,2.7,3.1,3.9c0.9,1.3,1.8,2.7,2.6,4.3c0.8,1.5,1.5,3,2,4.7
			c0.2,0.7,0.4,1.4,0.6,2.1c0.3,0.9,0.7,2,1.7,2.6c0.3,0.2,0.7,0.3,1.2,0.3c0.6,0,1.2-0.1,1.9-0.4c0.4-0.2,0.9-0.3,1.5-0.6
			c0.8-0.4,1.7-0.7,2.3-0.9c1.3-0.4,2.3-0.7,3.2-0.9c0.7-0.2,1.5-0.3,2.4-0.4c0.4-0.1,0.9-0.1,1.3-0.2c0.6-0.1,1.1-0.2,1.7-0.3
			l0.1,0c0.6-0.1,1.1-0.2,1.7-0.3c0.5-0.1,0.9-0.2,1.4-0.3l0.1,0l0.3-0.1l0.3-0.1c0.5-0.1,1-0.3,1.5-0.5c0.1,0,0.1,0,0.2-0.1
			c0.6-0.3,1.2-0.9,1.7-1.7c0.5-0.8,0.5-1.8,0.5-2.3c0-0.6-0.2-1.2-0.4-1.8l-0.1-0.4c-0.3-1.1-0.6-2.2-0.8-3.2l0-0.1l-0.2-0.6
			l-0.3-1c-0.6-2-1.2-4.3-1.7-6.6c-0.1-0.3-0.2-0.7-0.2-1c-0.2-1-0.4-1.9-0.6-2.9l-0.1-0.7c-0.2-0.8-0.4-1.9-0.5-3
			c0.1-0.5,0-0.9-0.2-1.2c-0.1-0.3-0.2-0.5-0.4-0.7c-0.2-0.2-0.4-0.3-0.7-0.4l-0.5-0.5l-0.6-0.5c-0.4-0.3-0.8-0.6-1.2-0.9l-0.2-0.1
			c-0.2-0.1-0.3-0.2-0.5-0.3c-1.1-0.9-2.4-1.6-3.4-2.3c-2.6-1.6-5.5-2.7-8-3.5c-2.8-0.9-5.8-1.5-8.4-1.9c-1.3-0.2-2.7-0.4-3.9-0.6
			l-0.4,0l-0.1,0c-1.1-0.1-2.3-0.3-3.5-0.3c-0.9,0-2.2-0.1-3.4-0.1c-0.3,0-0.6,0-0.9,0c-1.5,0-2.9,0.1-4.2,0.2
			c-2.6,0.1-5.3,0.6-8.3,1.5l-0.4,0.1c-0.5,0.2-1,0.3-1.6,0.5c-0.4,0.1-0.8,0.3-1.2,0.4c-0.2,0.1-0.3,0.1-0.5,0.2
			c-0.8,0.4-1.4,1-1.9,1.9c-0.3,0.5-0.4,1.1-0.3,1.7l0.1,0.6C398.8,270.6,399,270.8,399.2,271.2L399.2,271.2z"/>
		<path id="XMLID_329_" class="st2" d="M441.7,233.7c0.8,1.7,1.5,3.5,2.2,5.3l0,0.1l0,0.1c0.3,0.8,0.6,1.6,1,2.3l0.5,1.1
			c0.3,0.8,0.6,1.5,0.9,2.2c0.6,1.4,1.1,2.8,1.7,4.4c0.8,2.1,1.4,4.3,2.1,6.4l0,0.1l0,0.1l0.4,1.4c2,6.4,3.4,11.5,4.6,16.3
			c1.3,5.3,2.6,10.8,3.9,17c0.2,1.2,0.5,2.6,0.8,4.1c0.3,1.6,0.5,3,0.9,4.4c0.1,0.5,0.4,1.1,0.7,1.4c0.4,0.4,0.9,0.5,1.4,0.6
			c0.2,0,0.4,0.1,0.6,0.1l0.4,0c0.4,0,0.7,0.1,1.1,0.1l0.2,0c0.3,0,0.7,0,1,0.1l0.1,0l0.1,0l0.1,0l0.1,0c0.1,0,0.3,0.1,0.4,0.1
			c0.6,0.2,1.2,0.2,1.8,0.3l0.4,0c1.5,0.2,3,0.5,4.4,0.8l0.1,0c1.8,0.4,3.6,0.9,5.2,1.3l0.5,0.1l0.8,0.2l0.8,0.2
			c1.5,0.4,2.7,0.7,3.8,1.1c1.1,0.4,2.1,1,3.1,1.5l0.1,0.1c0.8,0.5,1.7,1.1,2.5,1.8c0.3,0.2,0.6,0.4,1,0.4c0.3,0,0.7-0.1,1.1-0.3
			c0.2-0.1,0.3-0.2,0.4-0.3c0.6-0.5,1.1-1.1,1.2-1.8c0.2-0.3,0.3-0.5,0.4-0.9l0.1-0.2c0.1-0.2,0.1-0.3,0.1-0.5l0.1-0.2
			c0.2-0.8,0.5-1.6,0.7-2.4l0.1-0.5c0.7-2.4,1.4-4.3,2.1-6.1c0.2-0.5,0.4-1,0.6-1.5c0.2-0.5,0.5-1.1,0.7-1.7
			c0.3-0.8,0.6-1.6,0.9-2.3c0.3-0.9,0.4-1.7,0.4-2.4c-0.1-0.7-0.3-1.4-0.4-2.1l-0.1-0.4c-0.2-0.9-0.5-2.1-0.9-3.2
			c-0.8-2.4-1.8-4.8-2.8-7l-0.2-0.6l-0.1-0.2c-0.4-1-0.9-1.9-1.3-2.9c-0.6-1.3-1.3-2.6-1.8-3.6l0-0.1l-0.5-0.9l-0.1-0.2
			c-0.4-0.8-0.9-1.6-1.3-2.4l-0.3-0.6l-0.1-0.2c-0.5-0.9-0.9-1.9-1.4-2.7c-1-1.8-2-3.6-3.1-5.4l-0.1-0.1l-0.1-0.1
			c-0.3-0.6-0.7-1.2-1-1.8c-1.2-2.1-2.6-4.2-3.9-6.3l-0.1-0.1l-0.6-0.9c-1.4-2.2-3.1-4.8-5-7.2c-3.6-4.5-7.4-9.1-10.8-13.1l-0.2-0.2
			c-0.9-1-1.8-2-2.8-3.1c-0.9-1-1.9-1.9-2.9-2.8l-0.1-0.1c-1.2-1.1-2.4-2.3-3.5-3.4l-0.1-0.1c-0.7-0.7-1.6-1.6-2.6-2.5
			c-0.8-0.8-1.7-1.5-2.6-2.2l-2.2-1.8l-1.1-0.9l-0.7-0.6c-0.7-0.5-1.3-1.1-2-1.6c-0.8-0.6-1.5-1.1-2.2-1.7c-0.8-0.5-1.7-1-2.4-1.4
			l-0.5-0.3c-1.9-1.1-4-2.1-6.4-3.2l-1-0.5l-0.3-0.1c-0.7-0.3-1.4-0.6-2-1c-0.6-0.3-1.2-0.6-1.7-0.9c-0.2-0.1-0.3-0.2-0.4-0.2
			l-0.3-0.1c-0.3-0.1-0.5-0.2-0.8-0.3l-0.3-0.1l-0.3-0.1c-0.3,0-0.5,0-0.8,0.1c-0.3,0.1-0.5,0.2-0.8,0.3c-0.2,0.1-0.4,0.2-0.5,0.3
			c-0.7,0.5-1.1,1.2-1.5,2.1c-0.2,0.6-0.2,1.2,0.1,1.8c0.2,0.3,0.4,0.5,0.6,0.8l0.3,0.3l0.5,0.5l0.5,0.5l0,0.1
			c0.6,0.8,1.3,1.5,1.9,2.3c1.2,1.5,2.4,3.1,3.8,5c0.8,1.2,1.5,2.2,2.1,3.3c0.8,1.3,1.6,2.6,2.4,4c0.5,0.9,1,1.8,1.6,2.7l0.4,0.8
			l0.4,0.7c0.5,0.9,1,1.8,1.5,2.8c0.6,1.2,1.3,2.6,2,3.9C440.5,231,441.1,232.5,441.7,233.7z"/>
		<path id="XMLID_328_" class="st2" d="M477.7,236.4l0.1,0.1c0.5,0.6,0.9,1.2,1.4,1.8c0.4,0.6,0.9,1.1,1.3,1.7l0.1,0.1l0.3,0.3
			c0.9,1.2,1.8,2.3,2.6,3.4c1.1,1.7,2.2,3.5,3.2,5.1l0,0.1c0.3,0.5,0.6,1,0.9,1.5c0.7,1.1,1.3,2.2,2,3.3c0.1,0.2,0.2,0.4,0.3,0.6
			l0.2,0.3l0.2,0.3c0.4,0.7,0.9,1.6,1.4,2.4c1,1.9,1.9,3.9,2.8,5.8l0.6,1.3c0.5,1.2,1.1,2.4,1.6,3.6l0.1,0.3l0.2,0.4
			c0.5,1,0.9,2.1,1.4,3.1c1.1,2.4,2.1,5,3.4,8.2c0.3,0.7,1,0.9,1.4,0.9c0.3,0,0.7-0.1,1-0.2l0.1,0c0.5-0.2,1-0.7,1.3-1.1
			c1-0.6,1.6-1.6,2.2-2.7c0.1-0.2,0.2-0.4,0.3-0.6c0.5-0.8,1-1.7,1.4-2.6l0.3-0.5c1.2-2.4,2.5-4.8,3.8-7c0.5-0.9,1-1.8,1.4-2.7
			l0.1-0.1l0.3-0.7c0.5-1.1,1.1-2.3,1.7-3.4c0.7-1.4,1.3-3,1.8-4.3l0.2-0.5l0.1-0.2l0.1-0.2c0.3-0.9,0.7-1.8,1-2.7l0.1-0.3
			c0.4-1.1,0.8-2.2,1.1-3.4c0.3-1,0.5-2.1,0.6-3.1l0.1-0.5l0.1-0.3c0.5-3.1,0.8-5.9,0.7-8.6c0-2.8-0.2-5.3-0.5-7.7
			c-0.3-2.9-0.9-5.8-1.5-8.5c-1.1-4.9-2.6-10.2-4.6-16c-0.9-2.7-2-5.3-3.1-7.7c-1.1-2.4-2.2-4.9-3.4-7.5c-2.2-4.7-4.7-9.8-7.6-14.6
			c-0.6-0.9-1.2-1.9-1.7-2.8c-0.8-1.3-1.7-2.8-2.6-4.3c-1.3-2.2-2.8-4.7-4.3-7.5c-1.9-3.4-3.7-7.3-5.4-11.8c-0.7-1.9-1.5-4-2.2-6.1
			c-0.7-2-1.3-4.1-1.8-6.3c-0.2-1.3-0.5-2.5-0.6-3.7c-0.2-1.3-0.3-2.6-0.4-3.8l0-0.4c-0.2-2.9-0.2-5.7,0-8.3l0-0.3l0-0.1
			c0.1-0.7,0.2-1.8,0.4-2.9l0.1-0.6c0.1-0.8,0.3-1.6,0.5-2.4c0.2-0.9,0.5-1.9,0.9-3.2l0-0.1c0.1-0.4,0.2-0.8,0.3-1.2l0-0.1
			c0.1-0.3,0.1-0.6,0.2-0.9c0.1-0.6,0.3-1.5-0.1-2c-0.2-0.4-0.4-0.6-0.8-0.8c-0.2-0.1-0.4-0.1-0.6-0.1c-0.3,0-0.7,0.1-1,0.2
			c-0.1,0-0.1,0.1-0.2,0.1c-0.9,0.4-1.4,1.3-2,2L481,106l-0.2,0.4c-0.4,0.5-0.7,1.1-1.1,1.6c-0.9,1.3-1.7,2.7-2.3,3.6
			c-1.4,2.3-2.5,4.6-3.8,7.3c-2.8,5.9-4.9,10.8-6.4,15.7c-1,3.2-1.8,5.9-2.5,8.5c-0.6,2.3-1.1,4.7-1.5,7l0,0.2l-0.2,1
			c-1.2,5.8-2,11.7-2.4,17.6c-0.2,2.4-0.2,5-0.2,7.2l0,0.7l0,1.7l0,0.1l0,0.1c0,2.1,0,4.4,0,6.5c0.1,2.8,0.3,5.6,0.6,8.7
			c0.3,2.5,0.6,5.1,1.2,8.4c1.1,6.2,2.5,11.6,4.4,16.5c2,5.2,5.2,9.8,8.3,14C475.8,233.8,476.8,235.2,477.7,236.4z"/>
		<path id="XMLID_327_" class="st2" d="M589.7,129.8c-0.2-0.1-0.4-0.1-0.6-0.1c-0.6,0-1.1,0.2-1.6,0.5l-0.2,0.1l-0.1,0
			c-0.5,0.3-1.1,0.6-1.6,0.9l-0.1,0c-1.2,0.7-2.4,1.3-3.6,2c-2.5,1.4-4.8,3.1-6.9,4.8c-1.9,1.4-4.1,3.2-6.1,5
			c-2.3,2-4.4,4.1-6.4,6.2c-1.2,1.2-2.4,2.5-3.4,3.6c-1.8,1.6-3.8,3.5-5.7,5.4c-1.3,1.3-2.6,2.7-3.9,4.1l-0.1,0.1l-0.1,0.1l-0.4,0.4
			l-0.8,0.9l-0.4,0.4l-0.1,0.1l-0.1,0.1c-1.7,1.8-3.5,3.7-5.2,5.5c-3.9,4.3-7.3,8.4-10.3,12.7c-1.5,2-2.9,4.2-4.2,6.4
			c-1,1.7-2,3.5-2.9,5.2l0,0.1l-0.8,1.5c-1,1.8-1.9,3.8-2.7,6.1c-0.3,0.9-0.6,1.7-0.7,2.4c-0.1,0.5-0.2,1-0.2,1.6
			c0,0.5,0.1,1.1,0.2,1.6c0.1,0.5,0.4,1,0.6,1.5c0.1,0.2,0.2,0.4,0.3,0.6c0.3,0.8,0.7,1.6,1,2.7c0.5,1.6,1,3.4,1.4,5.3
			c0.2,1.2,0.5,2.4,0.7,3.7c0.2,1.1,0.3,2.3,0.4,3.4l0,0.2l0,0.1l0.1,0.8c0,0.1,0,0.3,0,0.4c0,0.9,0,1.9,0,3.1
			c0,1.8-0.1,3.6-0.2,5.4l0,0.1l-0.1,1c-0.1,1-0.1,2.1-0.2,3.1c0,0.5-0.1,1.1-0.1,1.6c0,0.2,0,0.4,0,0.6c0,0.6,0.2,1.1,0.6,1.5
			c0.3,0.2,0.6,0.4,0.9,0.4l0.1,0c0.4,0,0.7-0.1,1.1-0.2c0.1,0,0.2-0.1,0.3-0.1c0.7-0.3,1.2-1,1.7-1.6l0-0.1l0.1-0.1
			c0-0.1,0.1-0.1,0.1-0.2c0.4-0.5,0.9-1.1,1.3-1.6c0.7-1,1.5-2,2.6-3.3c0.5-0.7,1-1.3,1.5-2l0.2-0.3l0,0l0.1-0.1
			c1-1.3,2-2.6,3.1-3.9l2.2-2.6l1.1-1.3c0.6-0.7,1.2-1.4,1.8-2.2c1.8-2.1,3.5-3.9,5.2-5.6c0.4-0.4,0.8-0.8,1.2-1.1
			c0.1-0.1,0.3-0.3,0.4-0.4c0.4-0.3,0.8-0.7,1.2-1.1c0.3-0.4,0.5-0.7,0.8-1.2c0.2-0.5,0.4-1,0.6-1.5c0.1-0.3,0.2-0.6,0.2-0.9l0-0.1
			l0.1-0.3c0.1-0.6,0.3-1.3,0.4-1.9c0.2-1.1,0.4-2.3,0.6-3.4l0-0.2l0-0.1c0.2-1.4,0.5-3,0.8-4.5c1.1-5.5,2.2-10.9,3.8-16.2
			c0.4-1.3,0.9-2.7,1.5-4.6c0.3-0.9,0.7-1.9,1-2.7l0.4-0.9c1-2.4,1.9-4.6,2.9-6.7c1-2.3,2.1-4.4,3.5-6.9c0.3-0.5,0.5-1,0.8-1.5
			l0.3-0.6l0-0.1c0.8-1.5,1.6-3,2.4-4.4c1.3-2.3,2.8-4.4,4-6.3c2.3-3.1,4.5-5.8,6.7-8.2c1.4-1.6,2.7-2.9,3.9-4.1
			c0.8-0.7,1.4-1.4,2-2c0.3-0.3,0.6-0.5,0.9-0.8c0.1-0.1,0.1-0.1,0.2-0.2c0.2-0.1,0.4-0.3,0.5-0.5c0.7-0.9,0.9-1.6,0.8-2.3
			c0.1-0.3,0.2-0.6,0.1-0.9C590.6,130.6,590.3,130.1,589.7,129.8z"/>
		<path id="XMLID_26_" class="st2" d="M613.6,491.6l-0.3-0.7c-0.2-0.6-0.4-1.1-0.6-1.7c-0.1-0.4-0.3-0.7-0.4-1.1l-0.1-0.2l0-0.1
			c-0.2-0.7-0.5-1.3-0.7-2c-1-2.5-2.2-4.9-3.7-7.1c-0.9-1.4-1.7-2.5-2.6-3.6c-0.9-1.1-1.8-2.1-2.7-3.2c-1.8-2.1-3.7-3.8-5.8-5.1
			c-1.3-0.8-2.5-1.5-3.7-2c-1.1-0.5-2.4-1-3.7-1.4c-0.5-0.2-1.1-0.3-1.7-0.4l-0.1,0l-0.3-0.1l-0.2,0c-0.6-0.1-1.2-0.3-1.9-0.3
			c-1.2-0.2-2.4-0.3-3.7-0.3l-0.2,0l-0.1,0c-2.7,0-5.5,0.3-8.3,0.9c-2.6,0.5-5.4,1.2-8.1,2.2c-1.1,0.5-2.3,1-3.4,1.5
			c-3.8,1.9-7.4,4.5-10.8,7.6c-3.9,3.6-7.4,7.4-10.9,11.3c-0.3,0.3-0.5,0.6-0.8,0.9l-0.2,0.2c-0.5,0.6-1,1.1-1.5,1.7
			c-0.7,0.7-1.4,1.4-1.9,1.9c-0.3,0.1-0.7,0.2-1,0.4c-0.2,0.1-0.4,0.2-0.5,0.3c-0.2,0.2-0.5,0.4-0.8,0.7c-0.2,0.2-0.4,0.4-0.6,0.8
			l-0.2,0.1l-0.2,0.1c-0.2,0.2-0.5,0.4-0.7,0.6c9.6,2.6,19.1,6,26.8,9.5c0,0,0.1,0,0.1-0.1c0.9-0.6,1.7-1.3,2.5-1.9
			c1-0.8,1.8-1.8,2.5-2.7c0.8-0.9,1.6-1.9,2.3-2.9l0.1-0.1l0.2-0.3c0.5-0.6,1-1.3,1.5-1.9c0.8-1,1.6-1.9,2.1-2.5
			c0.7-0.8,1.4-1.5,1.9-2c0.4-0.4,1-0.8,1.6-1.2c0.1-0.1,0.3-0.1,0.4-0.2c0.5-0.2,0.9-0.4,1.4-0.6c0.5-0.2,1.1-0.3,1.9-0.5
			c0.7-0.2,1.4-0.2,2.1-0.3l0.2,0c0.8,0,1.6,0,2.3,0c1.1,0,2.3,0.1,3.3,0.2c1,0.1,2.1,0.2,3.2,0.4c1,0.1,1.9,0.3,2.7,0.5l0.2,0
			c1.6,0.4,3,0.8,4.2,1.2c1.5,0.5,2.9,1.1,4.3,1.7l0.2,0.1c2.5,1.1,5.3,2.3,8,3.9c0.4,0.3,0.8,0.5,1.2,0.8c0.2,0.1,0.4,0.3,0.6,0.5
			l0.1,0c0.2,0.1,0.3,0.3,0.5,0.4c0.3,0.2,0.6,0.4,0.9,0.4l0.1,0c0.4,0,0.7-0.1,1-0.2l0.1,0c0.4-0.2,0.7-0.4,1-0.8l0.5-0.7
			c0.2-0.4,0.4-0.9,0.4-1.4C613.8,492.3,613.7,492,613.6,491.6z"/>
		<path id="XMLID_25_" class="st2" d="M476.8,434.5c-0.2-1.3-0.4-2.8-0.6-4.2c0-0.3-0.1-0.6-0.1-1l0-0.1c-0.1-1-0.2-2-0.4-3
			c-0.5-2.6-1.2-5.4-2.3-8.3c-0.8-2.2-1.9-4.9-3.2-7.4l-0.2-0.3c-1.1-2.2-2.3-4.6-3.8-6.7c-0.6-0.9-1.3-1.7-1.9-2.5l0-0.1
			c-0.3-0.3-0.5-0.7-0.8-1c-0.9-1.2-1.7-2.3-2.5-3.3c-1.8-2.2-3.7-4.1-5.6-5.7c-0.3-0.3-0.7-0.5-1-0.8l-0.2-0.2l0,0
			c-1.7-1.4-3.5-2.9-5.4-4.1c-1.2-0.7-2.5-1.6-3.9-2.4c-1.3-0.7-2.7-1.4-3.8-1.9c-2.5-1.1-5-2-7.6-2.8c-2.9-0.9-5.7-1.6-8.1-2.1
			c-5.7-1.3-11.5-1.8-16.9-2.2c-1.9-0.1-3.9-0.2-6-0.2c-10.4-0.8-29.5,2.6-42.1,5.1c-2,0.4-1.8,3.3,0.2,3.4
			c4.9,0.4,11.2,0.9,18.5,1.8c37,3,59.1,18.7,79.8,38.5c0.7,0.9,1.6,1.8,2.8,2.8c2.1,1.9,3.8,3.4,5.5,5.2c0.8,0.9,1.6,1.8,2.4,2.6
			c0.6,0.6,1.1,1.3,1.5,1.9l0.3,0.4l0.2,0.3l0.1,0.2c0.2,0.4,0.5,0.7,0.7,1c0.3,0.3,0.6,0.4,1.1,0.4c0.5,0,1-0.2,1.3-0.3
			c0.2-0.1,0.3-0.2,0.5-0.3c0.6-0.4,1.1-1.1,1.3-1.7C476.7,435.4,476.8,434.9,476.8,434.5z"/>
		<path id="XMLID_30_" class="st2" d="M464.3,353.2c-0.2-0.9-0.4-1.6-0.7-2.3c-0.6-1.9-1.4-3.8-2.1-5.6c-0.2-0.5-0.4-1-0.6-1.6
			c-0.5-1.2-1-2.4-1.5-3.6c-0.2-0.5-0.4-1-0.7-1.5c-0.2-0.5-0.5-1-0.8-1.4l-0.2-0.3c-0.2-0.4-0.5-0.8-0.7-1.2l-0.2-0.3
			c-0.9-1.5-1.7-3-2.7-4.4c-1.2-1.8-2.5-3.5-4-5c-1.2-1.2-2.8-2.8-4.7-4.2c-1-0.7-2.1-1.3-3.1-1.7c-1-0.4-1.9-0.9-2.7-1.3
			c-0.8-0.5-1.4-1-1.9-1.5c-0.5-0.4-0.9-0.9-1.4-1.6c-0.4-0.6-0.8-1.3-1.1-1.9c-0.2-0.4-0.4-0.7-0.5-1c-0.6-1.1-1.3-2.1-2-3.3
			c-0.7-1.1-1.6-2.3-2.6-3.3c-1.4-1.5-3.3-2.3-5.1-3.1c-1.1-0.5-2.3-0.9-3.7-1.3c-1.1-0.3-2.6-0.7-4.1-1c-2.6-0.5-5.3-0.8-8-0.9
			l-0.2,0c-0.2,0-0.3,0-0.5,0c0,0,0,0,0,0c-11-1.1-26,3.4-37.3,8.1c-1.1,0.5-0.9,2.1,0.3,2.2c7.6,0.7,22.6,3.5,41.3,10.1
			c0.8,0.4,1.6,0.8,2.3,1.2l0.1,0l1.2,0.6c0.6,0.3,1.3,0.7,1.9,1c1.3,0.7,2.5,1.3,3.8,2c1.8,1,3.5,2,5.6,3.2c4.1,2.6,8.4,5.7,13,9.4
			c2,1.6,4.1,3.4,6.1,5.2c1.8,1.7,3.5,3.6,5,5.2l0.2,0.2c0.9,1,1.8,2,2.8,3c0.2,0.2,0.4,0.5,0.7,0.7l0.1,0.1c0.6,0.6,1.2,1.3,1.9,2
			c0.3,0.4,0.6,0.8,1,1.1l0.1,0.1l0.4,0.5l0.2,0.3c0.3,0.4,0.6,0.7,1.1,0.9c0.2,0.1,0.5,0.1,0.6,0.1c0.2,0,0.4,0,0.6-0.1
			c0.2,0,0.5-0.1,0.7-0.3c0.4-0.2,0.7-0.5,1-0.8c0.5-0.5,0.7-1,0.9-1.5C464.6,354.2,464.5,353.8,464.3,353.2z"/>
		<path id="XMLID_31_" class="st2" d="M472.3,380.8c-0.2-0.9-0.4-1.9-0.8-3c-0.4-1.3-1.1-2.6-1.7-3.7c-0.7-1.3-1.6-2.5-2.3-3.6
			l-0.1-0.2l-0.1-0.1c-1.5-2.1-3.1-4.2-4.8-6.2c-1.7-2-3.7-3.9-5.9-5.8c-0.9-0.7-2-1.7-3.1-2.5c-1.1-0.8-2.4-1.7-3.7-2.5
			c-1.3-0.8-2.6-1.5-4-2.1c-1.2-0.6-2.4-1.1-3.6-1.5c-2.6-1-5.2-1.9-7.7-2.7c-1.1-0.3-2.2-0.7-3.4-1l-0.8-0.2
			c-1.3-0.3-2.5-0.7-3.7-1c-1.6-0.4-3.3-0.7-4.8-1c-1.4-0.3-3-0.5-4.1-0.6l-0.1,0c-1.7-0.2-3.4-0.4-5-0.5l-0.1,0
			c-1.4-0.2-3.2-0.3-5.3-0.3c0,0-0.1,0-0.1,0c-0.8,0-1.5,0-2.3,0c-1.2,0-2.4,0-3.4,0.1c-0.3,0-0.6,0-0.9,0.1
			c-7.1,0.2-15.4,0.9-22.1,1.5c-1.6,0.1-1.6,2.5,0,2.7c6.7,0.8,15.3,1.8,23.7,3c14.4,1.9,39.4,23.3,47,32.7c0.3,0.6,0.7,1.2,1.1,1.7
			c0.4,0.6,0.8,1,1.1,1.3c0.5,0.5,1,1,1.5,1.4c0.4,0.4,0.9,0.8,1.3,1.1c0.6,0.6,1.6,1.5,2.5,2.3c0.2,0.2,0.4,0.3,0.6,0.5
			c0.6,0.4,1.2,0.7,1.9,0.7c1.1,0,2-0.4,3-0.9l0.1-0.1c0.5-0.2,1-0.5,1.4-0.7l0.5-0.2l0.1,0l0.6-0.3c0.2-0.1,0.4-0.2,0.6-0.3
			c0.4-0.2,0.7-0.4,1.1-0.5c0.3-0.1,0.9-0.3,1.2-0.4l0.3-0.1l0.5-0.1c0.2,0,0.3-0.1,0.5-0.1c0.4-0.1,0.7-0.2,0.9-0.4
			c0.2-0.1,0.4-0.2,0.6-0.3c0.6-0.4,1.1-1.1,1.3-1.9c0.4-0.5,0.6-1.1,0.6-1.7C472.5,382.4,472.5,381.6,472.3,380.8z"/>
		<path id="XMLID_28_" class="st2" d="M481.3,487.7c-0.2-2.4-0.4-4.9-0.8-7.4c-0.3-2.2-0.7-5.2-1-8.2c-0.3-2.9-0.9-5.8-1.3-8.4
			l-0.2-0.9c-0.4-2.5-0.9-5.1-1.6-7.5c-1.6-5.2-3.4-10.7-6.5-15.5l-0.1-0.2l-0.1-0.1c-0.4-0.5-0.7-1.1-1.1-1.6
			c-0.1-0.2-0.3-0.4-0.4-0.6c-0.3-0.4-0.6-0.9-0.9-1.3l-1.5-1.9c-0.3-0.4-0.7-0.8-1-1.2l-0.2-0.2l-0.2-0.2l-0.2-0.2
			c-1.8-2-3.8-3.9-5.8-5.6c-4.8-4-10.5-6.7-14.9-8.7c-2.3-1-4.8-1.8-7.6-2.5c-3-0.7-6-1.4-8.9-1.8c-1.1-0.1-2.3-0.2-3.8-0.3l-0.8,0
			l-0.1,0c-0.7,0-1.4-0.1-2.2-0.1c-0.4,0-0.8,0-1.1,0l-2.2,0.1c-21.1-0.7-50.3,26-45.2,25.4l0,0c0,0,24.1-0.6,38.7,3.5
			s37.8,24,48.3,43.3l0,0c0.2,0.6,0.4,1.2,0.6,1.8c0.3,0.9,0.7,2,1.3,2.9c0.3,0.4,0.6,0.8,0.9,1.2c0.3,0.4,0.8,0.7,1.4,1.1
			c0.7,0.4,1.6,0.6,2.5,0.7c0.3,0,0.5,0,0.8,0c0.5,0,1,0,1.5-0.1l0.1,0c0.7,0,1.4-0.1,2.1-0.2l0.1,0l0.1,0l0.5-0.1
			c0.3,0,0.5,0,0.8-0.1c1-0.1,2.1-0.1,3.1-0.3c1.1-0.2,2.2-0.5,3.3-0.9c0.2,0.1,0.5,0.2,0.8,0.2c0.1,0,0.3,0,0.4,0
			c0.2,0,0.4-0.1,0.7-0.2c0.3-0.2,0.7-0.4,1-0.7c0.4-0.5,0.9-1.3,0.8-2L481.3,487.7z"/>
	</g>
</g>
</svg>
