<?xml version="1.0" encoding="UTF-8" standalone="no"?>
<!-- Created with Inkscape (http://www.inkscape.org/) -->

<svg
   xmlns:dc="http://purl.org/dc/elements/1.1/"
   xmlns:cc="http://creativecommons.org/ns#"
   xmlns:rdf="http://www.w3.org/1999/02/22-rdf-syntax-ns#"
   xmlns:svg="http://www.w3.org/2000/svg"
   xmlns="http://www.w3.org/2000/svg"
   xmlns:sodipodi="http://sodipodi.sourceforge.net/DTD/sodipodi-0.dtd"
   xmlns:inkscape="http://www.inkscape.org/namespaces/inkscape"
   version="1.1"
   id="svg4287"
   xml:space="preserve"
   width="800"
   height="800"
   viewBox="0 0 800 800"
   sodipodi:docname="pineapple-publicdomainvectors.org.svg"
   inkscape:version="0.92.4 (5da689c313, 2019-01-14)"><metadata
     id="metadata4293"><rdf:RDF><cc:Work
         rdf:about=""><dc:format>image/svg+xml</dc:format><dc:type
           rdf:resource="http://purl.org/dc/dcmitype/StillImage" /><dc:title></dc:title></cc:Work></rdf:RDF></metadata><defs
     id="defs4291"><clipPath
       clipPathUnits="userSpaceOnUse"
       id="clipPath4303"><path
         d="M 0,600 H 600 V 0 H 0 Z"
         id="path4301"
         inkscape:connector-curvature="0" /></clipPath></defs><sodipodi:namedview
     pagecolor="#ffffff"
     bordercolor="#666666"
     borderopacity="1"
     objecttolerance="10"
     gridtolerance="10"
     guidetolerance="10"
     inkscape:pageopacity="0"
     inkscape:pageshadow="2"
     inkscape:window-width="1920"
     inkscape:window-height="1018"
     id="namedview4289"
     showgrid="false"
     inkscape:zoom="1.0264549"
     inkscape:cx="435.59322"
     inkscape:cy="393.22034"
     inkscape:window-x="-8"
     inkscape:window-y="-8"
     inkscape:window-maximized="1"
     inkscape:current-layer="g4295" /><g
     id="g4295"
     inkscape:groupmode="layer"
     inkscape:label="pineapple-publicdomainvectors.org"
     transform="matrix(1.3333333,0,0,-1.3333333,0,800)"><g
       id="g4297"><g
         id="g4299"
         clip-path="url(#clipPath4303)"><path
           d="m 383.213,98.156 c 0.056,-0.996 -0.267,-1.923 -0.91,-2.603 -0.6,-0.631 -1.411,-0.98 -2.292,-0.98 -1.924,0 -3.574,1.652 -3.678,3.675 -0.048,1.008 0.284,1.94 0.937,2.626 0.596,0.624 1.402,0.97 2.267,0.97 1.914,0 3.564,-1.656 3.676,-3.688 m 22.031,2.49 c -0.029,0.004 -0.032,-0.519 -0.314,-1.342 -0.12,-0.418 -0.363,-0.885 -0.647,-1.405 -0.316,-0.504 -0.716,-1.037 -1.211,-1.57 -1.993,-2.143 -5.469,-4.059 -9.115,-5.483 -1.229,-0.482 -2.465,-0.903 -3.689,-1.295 l 5.011,5.798 c 3.476,4.077 3.032,10.67 -0.987,14.695 l -8.551,8.636 c -1.951,1.991 -4.493,3.086 -7.157,3.086 -2.584,0 -4.971,-1.042 -6.717,-2.926 l -11.665,-12.444 c -3.761,-3.958 -3.566,-10.419 0.434,-14.407 l 9.65,-9.527 c 1.938,-1.895 4.444,-2.94 7.058,-2.94 1.172,0 2.289,0.222 3.335,0.619 l 0.016,-0.062 c 0,0 0.503,0.203 1.378,0.559 0.852,0.36 2.055,0.886 3.474,1.554 2.834,1.336 6.547,3.255 10.033,5.585 3.476,2.309 6.729,5.145 8.362,7.902 0.408,0.688 0.705,1.349 0.921,1.952 0.187,0.617 0.327,1.154 0.357,1.607 0.103,0.903 -0.005,1.412 0.024,1.408 m -184.518,205.79 c 0.17,2.011 1.597,3.709 3.116,3.709 0.727,0 1.23,-0.382 1.528,-0.703 0.631,-0.684 0.943,-1.727 0.855,-2.866 -0.158,-2.007 -1.581,-3.701 -3.114,-3.701 -0.74,0 -1.251,0.386 -1.547,0.709 -0.628,0.682 -0.933,1.721 -0.838,2.852 m -16.25,0.904 c 0.236,-0.957 0.38,-1.978 0.712,-2.939 0.578,-1.957 1.37,-3.875 2.3,-5.591 0.445,-0.872 0.966,-1.661 1.443,-2.431 0.519,-0.734 0.995,-1.455 1.506,-2.065 0.652,-0.841 1.284,-1.538 1.847,-2.117 0.693,-1.381 1.507,-2.577 2.434,-3.402 1.292,-1.147 2.985,-1.752 4.894,-1.752 2.772,0 5.68,1.318 7.784,3.53 l 5.095,5.399 c 3.574,3.812 4.283,10.334 1.587,14.532 l -6.198,9.801 c -1.488,2.381 -3.694,3.748 -6.052,3.748 -1.791,0 -3.518,-0.816 -4.86,-2.298 -2.977,-3.267 -5.879,-10.228 -6.472,-15.516 l -0.3,-2.662 c -0.019,-0.172 -0.013,-0.353 -0.028,-0.527 -0.628,0.846 -1.233,1.732 -1.772,2.685 -0.487,0.768 -0.801,1.614 -1.215,2.418 -0.364,0.821 -0.626,1.669 -0.938,2.482 -0.268,0.824 -0.438,1.647 -0.651,2.426 -0.238,0.777 -0.27,1.538 -0.402,2.236 -0.094,0.701 -0.239,1.349 -0.239,1.925 -0.033,0.58 -0.06,1.086 -0.082,1.502 -0.042,0.841 -0.068,1.32 -0.068,1.32 0,0 -0.083,-0.472 -0.228,-1.299 -0.073,-0.417 -0.161,-0.923 -0.265,-1.505 -0.131,-0.584 -0.136,-1.248 -0.203,-1.978 -0.029,-0.728 -0.172,-1.531 -0.114,-2.373 0.032,-0.844 0.013,-1.749 0.096,-2.678 0.126,-0.92 0.202,-1.897 0.389,-2.871 m 20.314,-53.617 c -0.154,-2.041 -1.623,-3.701 -3.276,-3.701 -0.659,0 -1.256,0.268 -1.726,0.778 -0.627,0.679 -0.935,1.696 -0.845,2.786 0.167,2.044 1.638,3.706 3.28,3.706 0.819,0 1.377,-0.419 1.703,-0.771 0.633,-0.682 0.947,-1.702 0.864,-2.798 m -25.523,8.474 c 0.235,-0.957 0.38,-1.977 0.712,-2.939 0.579,-1.957 1.369,-3.874 2.298,-5.591 0.445,-0.871 0.966,-1.661 1.444,-2.431 0.52,-0.735 0.994,-1.455 1.508,-2.065 0.904,-1.171 1.781,-2.073 2.464,-2.739 l 8.897,-11.542 c 1.565,-1.999 3.793,-3.098 6.273,-3.098 2.404,0 4.732,1.044 6.559,2.945 l 11.805,12.454 c 3.65,3.901 4.074,10.325 0.95,14.313 l -9.737,12.625 c -1.522,2.006 -3.686,3.109 -6.093,3.109 -2.329,0 -4.591,-1.048 -6.366,-2.945 l -11.792,-12.448 c -1.268,-1.321 -2.145,-2.935 -2.676,-4.637 -0.833,1.038 -1.634,2.157 -2.328,3.384 -0.486,0.766 -0.802,1.613 -1.211,2.417 -0.365,0.822 -0.628,1.67 -0.94,2.483 -0.268,0.824 -0.438,1.647 -0.649,2.426 -0.241,0.776 -0.272,1.538 -0.405,2.235 -0.096,0.701 -0.239,1.348 -0.239,1.924 -0.03,0.58 -0.057,1.088 -0.08,1.504 -0.043,0.839 -0.067,1.32 -0.067,1.32 0,0 -0.083,-0.472 -0.231,-1.299 -0.073,-0.417 -0.162,-0.924 -0.264,-1.506 -0.13,-0.584 -0.136,-1.248 -0.203,-1.978 -0.031,-0.727 -0.173,-1.53 -0.115,-2.372 0.033,-0.844 0.015,-1.75 0.097,-2.678 0.125,-0.921 0.203,-1.898 0.389,-2.871 m 11.934,-42.664 c -0.175,-2.047 -1.714,-3.71 -3.433,-3.71 -0.708,0 -1.339,0.283 -1.828,0.819 -0.618,0.675 -0.915,1.673 -0.816,2.738 0.185,2.047 1.727,3.713 3.437,3.713 0.691,0 1.314,-0.279 1.8,-0.808 0.624,-0.68 0.931,-1.682 0.84,-2.752 m -15.575,-10.856 c 0.547,-1.525 1.128,-2.773 1.55,-3.659 0.119,-0.236 0.224,-0.444 0.321,-0.629 l -0.04,-0.387 c -0.234,-2.305 0.093,-3.964 0.972,-4.934 0.507,-0.561 1.178,-0.858 1.944,-0.858 1.253,0 2.672,0.777 4.217,2.312 l 12.365,12.457 c 3.827,3.902 4.368,10.332 1.211,14.33 l -9.821,12.626 c -1.553,2.025 -2.922,2.451 -3.798,2.451 -0.963,0 -3.261,-0.545 -3.768,-5.58 l -2.176,-21.488 c -0.033,0.07 -0.069,0.127 -0.104,0.198 -0.805,1.615 -1.54,3.412 -2.178,5.257 -0.351,0.915 -0.575,1.865 -0.868,2.79 -0.271,0.931 -0.45,1.868 -0.673,2.771 -0.209,0.904 -0.318,1.796 -0.471,2.639 -0.168,0.845 -0.216,1.65 -0.298,2.397 -0.063,0.746 -0.175,1.437 -0.178,2.046 -0.019,0.614 -0.038,1.147 -0.053,1.588 -0.028,0.887 -0.045,1.393 -0.045,1.393 0,0 -0.091,-0.499 -0.251,-1.368 -0.08,-0.437 -0.178,-0.969 -0.29,-1.581 -0.128,-0.61 -0.168,-1.307 -0.268,-2.07 -0.081,-0.762 -0.209,-1.592 -0.227,-2.474 -0.03,-0.88 -0.116,-1.818 -0.105,-2.787 0.025,-0.965 0.001,-1.977 0.07,-2.998 0.092,-1.017 0.114,-2.071 0.268,-3.105 0.248,-2.079 0.61,-4.164 1.097,-6.095 0.466,-1.937 1.03,-3.725 1.597,-5.242 m 13.756,-41.546 c 0.762,0 1.47,-0.313 1.994,-0.879 0.624,-0.675 0.935,-1.654 0.851,-2.686 -0.164,-2.041 -1.777,-3.703 -3.597,-3.703 -0.776,0 -1.493,0.316 -2.019,0.885 -0.617,0.676 -0.921,1.648 -0.832,2.673 0.176,2.044 1.793,3.71 3.603,3.71 m -9.531,-18.52 0.009,-0.57 c 0.104,-4.945 2.596,-5.327 3.355,-5.327 1.38,0 2.927,0.979 4.473,2.843 l 11.416,13.899 c 3.543,4.371 3.32,10.783 -0.494,14.287 l -11.835,11.012 c -2.253,2.123 -4.546,2.433 -6,0.962 -0.994,-1.007 -1.503,-2.767 -1.471,-5.086 l 0.365,-21.351 c -0.776,1.272 -1.519,2.639 -2.169,4.059 -0.458,0.913 -0.813,1.858 -1.17,2.801 -0.396,0.93 -0.631,1.889 -0.925,2.811 -0.312,0.92 -0.455,1.838 -0.657,2.707 -0.216,0.867 -0.33,1.702 -0.418,2.478 -0.088,0.777 -0.218,1.492 -0.247,2.131 -0.026,0.637 -0.048,1.193 -0.065,1.654 -0.037,0.926 -0.057,1.454 -0.057,1.454 0,0 -0.089,-0.521 -0.24,-1.434 -0.077,-0.461 -0.172,-1.017 -0.28,-1.657 -0.104,-0.645 -0.122,-1.378 -0.197,-2.178 -0.072,-0.803 -0.133,-1.678 -0.098,-2.605 0.02,-0.926 -0.027,-1.919 0.096,-2.926 0.101,-1.014 0.143,-2.083 0.351,-3.137 0.168,-1.061 0.338,-2.153 0.617,-3.214 0.98,-4.309 2.718,-8.458 4.362,-11.419 0.448,-0.826 0.88,-1.556 1.279,-2.194 m 199.556,-16.602 c 0.559,0.595 1.315,0.923 2.129,0.923 1.866,0 3.508,-1.66 3.66,-3.698 0.075,-1.016 -0.231,-1.954 -0.865,-2.639 -0.559,-0.6 -1.32,-0.931 -2.147,-0.931 -1.882,0 -3.525,1.657 -3.663,3.691 -0.067,1.011 0.255,1.977 0.886,2.654 m 15.195,11.078 c 0,0 -0.083,-0.465 -0.232,-1.275 -0.061,-0.408 -0.165,-0.889 -0.349,-1.435 -0.178,-0.543 -0.303,-1.163 -0.585,-1.807 -0.269,-0.65 -0.496,-1.36 -0.847,-2.083 -0.351,-0.717 -0.662,-1.488 -1.088,-2.251 -0.801,-1.544 -1.717,-3.151 -2.715,-4.714 -0.351,-0.559 -0.716,-1.102 -1.078,-1.648 l 1.435,15.637 c 0.208,2.353 -0.115,4.009 -0.953,4.924 -1.238,1.349 -3.333,0.83 -5.493,-1.631 l -11.083,-12.446 c -3.557,-3.944 -3.318,-10.503 0.535,-14.619 l 5.579,-5.911 c 1.588,-1.673 3.226,-2.554 4.729,-2.554 1.903,0 3.293,1.368 3.915,3.713 0.003,0.003 0.006,0.011 0.006,0.014 0.391,0.767 0.923,1.858 1.535,3.178 1.23,2.634 2.747,6.195 4.006,9.85 0.642,1.823 1.192,3.68 1.639,5.434 0.248,0.865 0.386,1.743 0.57,2.547 0.181,0.803 0.247,1.6 0.364,2.306 0.128,0.705 0.112,1.387 0.162,1.963 0.054,0.58 0.046,1.088 0.011,1.506 -0.04,0.83 -0.063,1.302 -0.063,1.302 m -18.17,61.351 c 1.732,0 3.268,-1.659 3.422,-3.699 0.078,-1.051 -0.239,-2.045 -0.87,-2.722 -0.513,-0.555 -1.173,-0.846 -1.908,-0.846 -1.751,0 -3.284,1.656 -3.42,3.692 -0.075,1.061 0.247,2.058 0.884,2.739 0.511,0.548 1.165,0.836 1.892,0.836 m 12.083,-14.861 c 0.843,2.877 1.879,6.739 2.719,10.642 0.85,3.902 1.475,7.854 1.662,10.841 0.077,0.738 0.055,1.432 0.077,2.035 0.023,0.603 0.015,1.13 -0.025,1.564 -0.052,0.861 -0.082,1.353 -0.082,1.353 0,0 -0.08,-0.486 -0.216,-1.334 -0.055,-0.422 -0.159,-0.93 -0.313,-1.506 -0.149,-0.578 -0.274,-1.228 -0.512,-1.925 -0.811,-2.799 -2.249,-6.413 -3.886,-9.929 -0.356,-0.775 -0.726,-1.542 -1.093,-2.299 -0.045,6.093 -0.306,12.395 -2.089,19.109 -0.256,3.531 -1.643,5.641 -3.707,5.641 -1.254,0 -2.59,-0.822 -3.862,-2.371 l -10.37,-12.445 c -3.337,-3.947 -2.98,-10.384 0.799,-14.353 l 12.195,-12.633 c 1.539,-1.574 2.967,-2.373 4.251,-2.373 0.763,0 1.445,0.294 1.966,0.853 0.846,0.913 1.219,2.524 1.102,4.639 0.216,0.662 0.748,2.307 1.384,4.491 m -45.811,157.209 c 0.29,0.305 0.779,0.667 1.453,0.667 1.435,0 2.736,-1.688 2.842,-3.682 0.062,-1.146 -0.284,-2.235 -0.926,-2.914 -0.293,-0.308 -0.782,-0.672 -1.467,-0.672 -1.45,0 -2.756,1.682 -2.85,3.673 -0.053,1.154 0.301,2.249 0.948,2.928 m 11.394,8.125 c -0.086,-0.835 -0.171,-1.699 -0.259,-2.576 -0.138,-0.868 -0.375,-1.736 -0.559,-2.602 -0.197,-0.805 -0.341,-1.613 -0.569,-2.387 l -5.573,8.651 c -1.799,2.821 -4.634,4.506 -7.585,4.506 -1.634,0 -3.184,-0.53 -4.48,-1.535 l -3.23,-2.496 c -1.709,-1.311 -2.795,-3.254 -3.053,-5.471 -0.29,-2.48 0.5,-5.073 2.169,-7.12 l 10.465,-12.636 c 1.604,-1.911 3.667,-2.963 5.806,-2.963 2.274,0 4.387,1.221 5.79,3.342 l 0.127,0.188 c 0.878,1.339 1.424,2.991 1.698,4.746 0.013,0.045 0.035,0.088 0.048,0.133 0.186,0.594 0.394,1.264 0.623,1.996 0.186,0.733 0.338,1.533 0.516,2.368 0.195,0.834 0.354,1.713 0.418,2.635 0.09,0.91 0.187,1.851 0.282,2.807 0.064,0.951 0,1.927 0.002,2.886 -0.023,0.961 0,1.915 -0.071,2.848 -0.125,0.93 -0.25,1.843 -0.367,2.727 -0.12,0.872 -0.237,1.715 -0.347,2.516 -0.133,0.792 -0.38,1.525 -0.545,2.205 -0.718,2.686 -1.195,4.477 -1.195,4.477 0,0 0.045,-1.843 0.117,-4.603 0,-0.684 0.072,-1.417 0.016,-2.199 -0.077,-0.776 -0.159,-1.595 -0.244,-2.443 m 21.57,-24.32 c 0.04,-0.572 0,-1.184 0.003,-1.84 -0.008,-0.659 -0.017,-1.354 -0.026,-2.072 0.004,-0.726 -0.099,-1.451 -0.147,-2.208 -0.061,-0.756 -0.125,-1.523 -0.189,-2.29 -0.205,-1.515 -0.383,-3.054 -0.625,-4.478 -0.256,-1.421 -0.474,-2.764 -0.733,-3.896 -0.133,-0.668 -0.265,-1.267 -0.39,-1.795 l 1.038,-2.698 c 0.981,-2.517 1.157,-4.19 0.532,-5.106 -0.31,-0.451 -0.794,-0.698 -1.365,-0.698 -0.927,0 -2.09,0.656 -3.565,2.008 l -8.679,8.043 c -3.762,3.522 -4.572,9.402 -1.804,13.108 1.379,1.866 2.858,2.258 3.856,2.258 2.198,0 4.233,-1.902 5.438,-5.089 l 1.509,-3.923 c 0.473,1.01 0.939,2.06 1.423,3.13 0.27,0.683 0.535,1.365 0.796,2.037 0.25,0.678 0.557,1.341 0.745,1.998 0.205,0.659 0.403,1.297 0.591,1.9 0.182,0.609 0.392,1.186 0.514,1.726 0.458,2.192 0.762,3.654 0.762,3.654 0,0 0.127,-1.507 0.316,-3.769 m -1.174,-64.435 c -0.077,1.107 0.24,2.136 0.876,2.819 0.319,0.343 0.867,0.754 1.666,0.754 1.615,0 3.064,-1.663 3.226,-3.705 0.088,-1.099 -0.221,-2.119 -0.852,-2.799 -0.322,-0.351 -0.876,-0.766 -1.69,-0.766 -1.629,0 -3.074,1.658 -3.226,3.697 m 10.505,-9.087 c 0.918,2.498 2.03,5.861 2.896,9.286 0.441,1.71 0.795,3.443 1.083,5.069 0.268,1.633 0.436,3.166 0.519,4.478 0.037,1.322 0.074,2.406 -0.014,3.168 -0.058,0.753 -0.09,1.185 -0.09,1.185 0,0 -0.075,-0.425 -0.207,-1.167 -0.102,-0.74 -0.405,-1.775 -0.756,-2.992 -0.397,-1.212 -0.918,-2.597 -1.56,-4.045 -0.655,-1.446 -1.394,-2.958 -2.212,-4.437 -0.003,-0.008 -0.008,-0.013 -0.011,-0.02 -0.33,5.11 -1.027,10.419 -2.414,15.825 -0.382,5.09 -2.631,5.639 -3.582,5.639 -1.211,0 -2.485,-0.829 -3.688,-2.393 l -9.717,-12.445 c -3.125,-3.938 -2.749,-10.36 0.841,-14.318 l 11.603,-12.631 c 1.478,-1.585 2.851,-2.389 4.083,-2.389 0.721,0 1.361,0.28 1.853,0.811 0.881,0.948 1.24,2.603 1.069,4.819 0.08,2.004 0.144,4.094 0.182,6.226 0.042,0.113 0.082,0.216 0.122,0.331 m -18.321,249.77 c -39.11,4.919 -54.99,-36.418 -64.033,-48.48 -6.192,9.656 -14.393,19.133 -14.393,19.133 0,0 30.822,50.906 78.426,29.347 M 324.456,420.55 c -6.061,4.512 -14.577,14.942 -14.577,14.942 0,0 28.823,56.471 75.378,32.833 -30.633,9.57 -51.756,-35.712 -60.801,-47.775 m 90.348,-9.071 c -30.633,9.571 -75.707,-8.64 -85.415,-29.315 -9.866,1.693 -23.748,18.079 -23.748,18.079 0,0 59.152,50.757 109.163,11.236 M 286.278,578.461 c 34.93,-6.271 34.581,-76.127 34.581,-76.127 0,0 -11.507,-13.484 -16.478,-20.57 -9.045,12.061 13.607,78.466 -18.103,96.697 m -47.691,-86.597 c 43.841,23.44 80.88,-36.081 80.88,-36.081 0,0 -9.588,-11.408 -12.933,-17.366 -9.048,12.063 -28.665,59.741 -67.947,53.447 m -18.072,-34.995 c 41.062,31.477 100.344,-39.442 100.344,-39.442 0,0 -14.805,-8.867 -21.41,-14.588 -9.045,12.06 -48.303,63.599 -78.934,54.03 m -13.751,-48.017 c 50.008,39.52 111.224,-26.688 111.224,-26.688 0,0 -14.504,-6.268 -31.868,-1.804 -13.307,23.991 -48.723,38.062 -79.356,28.492 m 46.232,-123.581 c 0.774,0 1.322,-0.404 1.647,-0.742 0.655,-0.689 0.998,-1.727 0.942,-2.848 -0.098,-2.028 -1.474,-3.678 -3.066,-3.678 -0.793,0 -1.344,0.41 -1.67,0.753 -0.648,0.687 -0.985,1.719 -0.922,2.835 0.113,2.027 1.49,3.68 3.069,3.68 m -17.185,-6.656 9.745,-12.635 c 1.563,-1.998 3.759,-3.099 6.183,-3.099 2.353,0 4.609,1.051 6.355,2.962 l 11.219,12.456 c 3.465,3.898 3.742,10.315 0.62,14.295 l -9.74,12.626 c -1.522,2.004 -3.652,3.109 -6,3.109 -2.279,0 -4.471,-1.055 -6.166,-2.964 l -11.205,-12.446 c -3.573,-3.914 -4.029,-10.327 -1.011,-14.304 m -1.807,-84.554 c -0.732,0 -1.419,0.303 -1.935,0.854 -0.633,0.68 -0.956,1.673 -0.883,2.722 0.138,2.037 1.661,3.693 3.398,3.693 0.732,0 1.391,-0.293 1.911,-0.845 0.641,-0.681 0.974,-1.677 0.907,-2.734 -0.125,-2.035 -1.65,-3.69 -3.398,-3.69 m -4.77,24.281 -12.178,-12.45 c -3.891,-3.923 -4.422,-10.36 -1.179,-14.35 l 10.414,-12.637 c 1.659,-1.984 3.992,-3.076 6.568,-3.076 2.505,0 4.914,1.04 6.794,2.937 l 12.19,12.455 c 3.785,3.911 4.136,10.347 0.791,14.343 l -10.409,12.626 c -1.618,1.99 -3.886,3.086 -6.386,3.086 -2.43,0 -4.776,-1.043 -6.605,-2.934 m -16.12,67.249 c 2.633,-3.567 1.781,-9.639 -1.899,-13.529 l -0.178,-0.19 c -1.472,-1.547 -2.794,-2.332 -3.935,-2.332 -0.664,0 -1.243,0.266 -1.674,0.769 -0.805,0.945 -1.019,2.642 -0.637,5.048 l 1.014,6.425 c 0.585,3.718 2.082,5.852 4.105,5.852 0.78,0 1.968,-0.355 3.204,-2.043 m 31.143,-206.32 c 1.818,-2.028 2.471,-3.53 1.996,-4.592 -0.173,-0.389 -0.659,-1.04 -1.965,-1.04 -0.866,0 -2.023,0.282 -3.435,0.838 l -9.755,3.859 c -2.977,1.183 -5.024,3.153 -5.614,5.409 -0.407,1.549 -0.058,3.109 0.98,4.39 1.05,1.305 2.59,2.029 4.334,2.029 2.421,0 4.981,-1.329 7.019,-3.645 z m -19.089,13.993 c -0.965,-1.194 -2.21,-1.825 -3.606,-1.825 -1.704,0 -3.427,0.959 -4.868,2.642 -0.897,0.325 -2.013,0.783 -3.298,1.373 -1.53,0.75 -3.289,1.655 -5.034,2.884 -0.891,0.569 -1.75,1.27 -2.605,1.986 -0.866,0.695 -1.637,1.567 -2.43,2.357 -0.687,0.926 -1.484,1.723 -2.019,2.72 -0.572,0.963 -1.144,1.881 -1.477,2.896 -0.189,0.485 -0.376,0.963 -0.561,1.432 -0.125,0.484 -0.213,0.968 -0.314,1.43 -0.096,0.462 -0.189,0.908 -0.28,1.343 -0.068,0.434 -0.045,0.869 -0.072,1.271 -0.013,0.814 -0.087,1.551 -0.034,2.198 0.085,0.641 0.159,1.204 0.223,1.666 0.123,0.912 0.192,1.43 0.192,1.43 0,0 0.04,-0.523 0.104,-1.441 0.033,-0.451 0.074,-1 0.119,-1.631 0.082,-0.62 0.301,-1.306 0.468,-2.048 0.102,-0.366 0.158,-0.76 0.304,-1.139 0.166,-0.374 0.334,-0.76 0.509,-1.157 0.178,-0.391 0.339,-0.797 0.534,-1.193 0.247,-0.374 0.498,-0.754 0.755,-1.141 0.45,-0.799 1.122,-1.485 1.763,-2.186 0.599,-0.73 1.456,-1.27 2.15,-1.907 0.829,-0.526 1.584,-1.102 2.441,-1.533 0.844,-0.443 1.663,-0.878 2.523,-1.196 0.506,-0.223 1.008,-0.407 1.505,-0.58 l -6.106,11.315 c -1.602,3.026 -1.423,4.053 -1.088,4.613 0.246,0.407 0.677,0.637 1.181,0.637 0.538,0 1.498,-0.216 3.641,-2.105 l 12.63,-11.012 c 4.062,-3.499 5.297,-8.928 2.75,-12.099 m 33.025,4.419 c -0.878,0 -1.695,0.348 -2.299,0.983 -0.655,0.682 -0.993,1.61 -0.945,2.615 0.088,2.024 1.709,3.669 3.614,3.669 0.865,0 1.672,-0.346 2.274,-0.971 0.663,-0.687 1.007,-1.62 0.968,-2.63 -0.076,-2.021 -1.696,-3.666 -3.612,-3.666 m 19.716,11.54 -11.613,12.626 c -1.784,1.966 -4.238,3.048 -6.905,3.048 -2.598,0 -5.086,-1.038 -6.999,-2.92 l -12.805,-12.446 c -4.104,-3.94 -4.492,-10.4 -0.862,-14.406 l 11.617,-12.632 c 1.828,-1.963 4.344,-3.042 7.086,-3.042 2.675,0 5.229,1.035 7.193,2.921 l 12.817,12.455 c 3.996,3.926 4.205,10.388 0.471,14.396 m -47.541,26.818 c 0.815,0 1.57,-0.33 2.132,-0.927 0.635,-0.675 0.965,-1.64 0.902,-2.654 -0.125,-2.032 -1.747,-3.688 -3.615,-3.688 -0.827,0 -1.592,0.332 -2.155,0.933 -0.64,0.686 -0.952,1.625 -0.883,2.642 0.138,2.038 1.763,3.694 3.619,3.694 m -19.516,-9.709 11.636,-12.853 c 1.741,-1.896 4.141,-2.937 6.77,-2.937 2.679,0 5.243,1.079 7.222,3.042 l 12.183,12.229 c 3.92,3.984 4.224,10.482 0.681,14.483 l -11.023,12.626 c -1.704,1.976 -4.083,3.064 -6.696,3.064 -2.542,0 -4.999,-1.036 -6.911,-2.919 l -12.8,-12.449 c -4.102,-3.938 -4.579,-10.344 -1.062,-14.286 m 113.854,40.263 c 0.011,-1.034 -0.372,-2.026 -1.053,-2.713 -0.581,-0.587 -1.333,-0.912 -2.121,-0.912 -1.78,0 -3.239,1.634 -3.247,3.638 -0.005,1.044 0.385,2.038 1.073,2.727 0.579,0.583 1.326,0.904 2.103,0.904 1.768,0 3.223,-1.634 3.245,-3.644 m -3.12,-21.857 c 2.57,0 4.974,1.049 6.768,2.954 l 11.584,12.455 c 3.604,3.925 3.505,10.371 -0.213,14.363 l -11.622,12.626 c -1.789,1.967 -4.172,3.05 -6.713,3.05 -2.495,0 -4.831,-1.05 -6.577,-2.949 l -11.57,-12.449 c -3.713,-3.94 -3.794,-10.388 -0.176,-14.372 l 11.625,-12.636 c 1.828,-1.96 4.276,-3.042 6.894,-3.042 m -30.133,-61.55 c 0.898,0 1.749,-0.359 2.39,-1.006 0.681,-0.693 1.052,-1.621 1.038,-2.618 -0.021,-2.008 -1.624,-3.642 -3.568,-3.642 -0.913,0 -1.771,0.359 -2.415,1.016 -0.673,0.686 -1.037,1.612 -1.017,2.598 0.038,2.014 1.64,3.652 3.572,3.652 m 7.332,7.587 c -1.871,1.956 -4.398,3.035 -7.114,3.035 -2.656,0 -5.176,-1.041 -7.085,-2.923 L 271.807,78.44 c -1.693,-1.63 -2.438,-3.137 -2.279,-4.601 0.245,-2.226 2.529,-3.906 5.02,-5.426 3.744,-1.902 7.899,-2.828 12.705,-2.828 5.077,0 10.162,0.987 15.547,2.03 1.642,0.32 3.294,0.642 4.862,0.92 2.58,0 4.51,1.069 5.293,2.935 0.853,2.03 0.108,4.591 -1.937,6.679 z m 54.758,-14.358 c 0.029,-0.987 -0.319,-1.91 -0.981,-2.591 -0.634,-0.655 -1.486,-1.014 -2.402,-1.014 -1.956,0 -3.593,1.638 -3.643,3.656 -0.024,0.992 0.33,1.919 0.998,2.603 0.633,0.652 1.48,1.008 2.384,1.008 1.941,0 3.575,-1.642 3.644,-3.662 m 3.418,11.265 c -1.951,1.946 -4.523,3.019 -7.237,3.019 -2.672,0 -5.155,-1.045 -6.995,-2.934 l -12.258,-12.45 c -1.92,-1.926 -2.592,-4.221 -1.797,-6.133 0.763,-1.842 2.737,-2.942 5.282,-2.942 0.174,0 0.354,0.008 0.376,0.022 1.708,-0.221 3.485,-0.333 5.283,-0.333 7.242,0 14.36,1.814 21.244,3.567 l 2.572,0.669 c 3.741,0.213 5.01,1.55 5.416,2.635 0.396,1.057 0.33,2.848 -2.242,5.361 z m 31.253,75.759 c 0.066,-1.027 -0.261,-2.003 -0.898,-2.682 -0.545,-0.576 -1.274,-0.896 -2.054,-0.896 -1.813,0 -3.38,1.652 -3.494,3.683 -0.059,1.031 0.279,2.015 0.92,2.696 0.543,0.572 1.267,0.889 2.037,0.889 1.796,0 3.361,-1.655 3.489,-3.69 m -2.047,-21.809 c 2.584,0 4.947,1.052 6.659,2.968 l 10.97,12.455 c 3.42,3.933 3.005,10.381 -0.926,14.365 l -12.304,12.626 c -1.878,1.956 -4.314,3.031 -6.85,3.031 -2.51,0 -4.81,-1.054 -6.473,-2.97 l -10.957,-12.446 c -3.526,-3.947 -3.287,-10.394 0.537,-14.372 l 12.307,-12.632 c 1.925,-1.954 4.421,-3.025 7.037,-3.025 M 357.52,135.48 c 0.037,-1.007 -0.317,-1.976 -0.972,-2.659 -0.583,-0.606 -1.36,-0.939 -2.188,-0.939 -1.852,0 -3.409,1.642 -3.47,3.66 -0.033,1.018 0.33,1.994 0.995,2.676 0.583,0.602 1.352,0.932 2.17,0.932 1.836,0 3.39,-1.644 3.465,-3.67 m -9.79,-18.804 c 1.915,-1.953 4.437,-3.025 7.107,-3.025 2.627,0 5.059,1.045 6.852,2.951 l 11.557,12.457 c 3.606,3.935 3.351,10.389 -0.567,14.377 l -12.242,12.627 c -1.872,1.956 -4.331,3.034 -6.923,3.034 -2.552,0 -4.918,-1.052 -6.661,-2.953 L 335.31,143.697 c -3.715,-3.946 -3.636,-10.4 0.177,-14.384 z m -29.131,-15.355 c -0.007,1.014 0.371,1.953 1.06,2.646 0.63,0.633 1.459,0.983 2.33,0.983 1.885,0 3.44,-1.635 3.464,-3.642 0.012,-1.007 -0.358,-1.943 -1.042,-2.632 -0.634,-0.641 -1.467,-0.993 -2.349,-0.993 -1.9,0 -3.455,1.63 -3.463,3.638 m 22.723,-3.371 c 3.8,3.934 3.704,10.395 -0.211,14.396 l -12.205,12.629 c -1.869,1.953 -4.357,3.032 -7.007,3.032 -2.602,0 -5.045,-1.044 -6.87,-2.937 l -12.161,-12.446 c -3.91,-3.947 -3.993,-10.409 -0.183,-14.402 l 12.21,-12.636 c 1.911,-1.95 4.464,-3.025 7.192,-3.025 2.677,0 5.183,1.042 7.059,2.934 z m -52.166,30.822 c -0.837,0 -1.627,0.337 -2.227,0.955 -0.668,0.68 -1.041,1.651 -1.02,2.661 0.043,2.014 1.57,3.653 3.407,3.653 0.821,0 1.605,-0.333 2.204,-0.94 0.676,-0.689 1.054,-1.664 1.04,-2.68 -0.029,-2.014 -1.557,-3.649 -3.404,-3.649 m -7.37,-15.188 c 1.829,-1.963 4.314,-3.042 6.998,-3.042 2.624,0 5.103,1.041 6.988,2.934 l 12.23,12.456 c 3.81,3.926 3.872,10.381 0.144,14.381 l -11.615,12.625 c -1.786,1.966 -4.205,3.048 -6.813,3.048 -2.549,0 -4.967,-1.04 -6.8,-2.932 l -12.216,-12.45 c -3.919,-3.939 -4.162,-10.393 -0.535,-14.388 z m -20.665,53.547 c 0.772,0 1.504,-0.319 2.06,-0.896 0.66,-0.682 1.014,-1.668 0.974,-2.706 -0.076,-2.021 -1.602,-3.666 -3.404,-3.666 -0.788,0 -1.528,0.322 -2.085,0.907 -0.651,0.68 -0.999,1.66 -0.954,2.688 0.09,2.024 1.618,3.673 3.409,3.673 m -1.13,-25.499 c 2.567,0 5.016,1.038 6.9,2.933 l 12.224,12.456 c 3.802,3.921 4.008,10.367 0.467,14.366 l -11.026,12.624 c -1.705,1.977 -4.053,3.066 -6.607,3.066 -2.491,0 -4.876,-1.045 -6.71,-2.932 l -12.213,-12.45 c -3.91,-3.933 -4.294,-10.377 -0.854,-14.371 l 11.029,-12.633 c 1.748,-1.973 4.159,-3.059 6.79,-3.059 m 30.321,52.429 c -0.743,0 -1.454,0.31 -2.002,0.872 -0.676,0.687 -1.049,1.689 -1.026,2.745 0.041,2.014 1.472,3.652 3.187,3.652 0.728,0 1.43,-0.306 1.979,-0.862 0.681,-0.69 1.063,-1.697 1.05,-2.76 -0.031,-2.011 -1.461,-3.647 -3.188,-3.647 m -18.061,-2.537 11.008,-12.636 c 1.74,-1.971 4.114,-3.059 6.682,-3.059 2.513,0 4.884,1.048 6.683,2.95 l 11.606,12.456 c 3.608,3.918 3.67,10.356 0.143,14.347 l -11.004,12.626 c -1.7,1.979 -4.008,3.068 -6.5,3.068 -2.436,0 -4.744,-1.049 -6.493,-2.95 l -11.595,-12.449 c -3.715,-3.932 -3.952,-10.37 -0.53,-14.353 m -11.029,44.005 c 0.685,0 1.316,-0.28 1.824,-0.811 0.662,-0.688 1.017,-1.705 0.973,-2.789 -0.082,-2.025 -1.512,-3.67 -3.189,-3.67 -0.699,0 -1.338,0.283 -1.849,0.818 -0.654,0.688 -1.002,1.699 -0.953,2.777 0.096,2.026 1.528,3.675 3.194,3.675 m -18.183,-12.897 10.388,-12.635 c 1.658,-1.985 3.957,-3.076 6.475,-3.076 2.452,0 4.793,1.046 6.597,2.95 l 11.631,12.454 c 3.605,3.911 3.826,10.341 0.498,14.329 l -10.388,12.627 c -1.611,1.99 -3.845,3.086 -6.289,3.086 -2.376,0 -4.653,-1.049 -6.406,-2.952 L 243.926,236.97 c -3.713,-3.925 -4.113,-10.354 -0.887,-14.338 m 123.787,68.376 c -0.055,1.13 0.29,2.172 0.945,2.86 0.317,0.334 0.857,0.732 1.619,0.732 1.532,0 2.922,-1.688 3.033,-3.684 0.064,-1.12 -0.274,-2.158 -0.923,-2.845 -0.319,-0.338 -0.862,-0.741 -1.637,-0.741 -1.576,0 -2.935,1.65 -3.037,3.678 m 1.672,23.537 c -2.289,0 -4.381,-1.068 -5.888,-3.003 l -9.834,-12.447 c -3.15,-3.929 -2.951,-10.342 0.453,-14.303 l 11.018,-12.634 c 1.743,-1.972 4.022,-3.058 6.412,-3.058 2.363,0 4.522,1.062 6.078,3.003 l 9.845,12.457 c 3.045,3.913 2.669,10.327 -0.838,14.293 l -11.018,12.626 c -1.704,1.977 -3.915,3.066 -6.228,3.066 m -23.146,-48.702 c 0.342,0.354 0.925,0.774 1.74,0.774 1.599,0 2.962,-1.643 3.031,-3.664 0.037,-1.1 -0.322,-2.128 -0.99,-2.818 -0.346,-0.359 -0.931,-0.785 -1.759,-0.785 -1.615,0 -2.978,1.641 -3.034,3.657 -0.032,1.11 0.338,2.144 1.012,2.836 m -17.657,-12.14 11.018,-12.635 c 1.741,-1.973 4.049,-3.059 6.497,-3.059 2.414,0 4.642,1.059 6.281,2.986 l 10.436,12.455 c 3.228,3.915 2.997,10.337 -0.517,14.312 l -11.013,12.627 c -1.701,1.977 -3.944,3.067 -6.318,3.067 -2.339,0 -4.501,-1.061 -6.087,-2.986 l -10.424,-12.445 c -3.337,-3.932 -3.281,-10.355 0.127,-14.322 M 315.301,294.6 c 1.537,0 2.799,-1.634 2.811,-3.641 0.008,-1.127 -0.384,-2.175 -1.075,-2.872 -0.343,-0.345 -0.918,-0.757 -1.703,-0.757 -1.552,0 -2.814,1.631 -2.814,3.636 0,2.002 1.247,3.634 2.781,3.634 m 6.114,16.859 c -1.612,1.991 -3.781,3.086 -6.105,3.086 -2.283,0 -4.415,-1.06 -6.005,-2.983 l -10.444,-12.447 c -3.341,-3.924 -3.448,-10.338 -0.233,-14.304 l 10.398,-12.634 c 1.658,-1.986 3.891,-3.077 6.29,-3.077 2.355,0 4.553,1.057 6.194,2.983 l 10.461,12.458 c 3.232,3.906 3.159,10.319 -0.16,14.293 z m -75.714,23.556 c 0.692,0 1.184,-0.368 1.474,-0.677 0.636,-0.677 0.977,-1.763 0.91,-2.906 -0.117,-1.996 -1.466,-3.683 -2.943,-3.683 -0.705,0 -1.203,0.372 -1.496,0.687 -0.632,0.673 -0.963,1.755 -0.892,2.888 0.134,2.002 1.483,3.691 2.947,3.691 m 0.348,17.448 c -2.196,0 -4.311,-1.113 -5.944,-3.131 l -7.003,-8.54 c -0.538,-0.651 -0.972,-1.381 -1.355,-2.137 -0.089,0.237 -0.176,0.475 -0.27,0.71 -0.321,0.879 -0.544,1.773 -0.816,2.634 -0.242,0.865 -0.382,1.725 -0.57,2.539 -0.203,0.81 -0.247,1.595 -0.356,2.319 -0.075,0.724 -0.213,1.395 -0.213,1.99 -0.025,0.596 -0.048,1.117 -0.064,1.546 -0.037,0.864 -0.059,1.357 -0.059,1.357 0,0 -0.087,-0.485 -0.24,-1.334 -0.076,-0.429 -0.169,-0.95 -0.276,-1.546 -0.134,-0.599 -0.146,-1.28 -0.231,-2.028 -0.056,-0.747 -0.187,-1.565 -0.165,-2.428 0.002,-0.863 -0.051,-1.787 0.002,-2.738 0.075,-0.944 0.104,-1.942 0.235,-2.942 0.165,-0.99 0.25,-2.03 0.493,-3.031 0.294,-1.437 0.696,-2.843 1.143,-4.21 0.173,-1.91 0.769,-3.728 1.818,-5.196 l 1.067,-1.476 c 0.759,-1.38 1.523,-2.485 2.084,-3.27 0.293,-0.392 0.531,-0.709 0.749,-0.956 0.173,-0.209 0.265,-0.32 0.265,-0.32 l 0.112,0.118 3.843,-5.302 c 1.461,-1.988 3.622,-3.13 5.93,-3.13 2.262,0 4.438,1.052 6.129,2.967 l 6.998,8.009 c 3.364,3.888 3.742,10.322 0.845,14.339 l -8.558,12.061 c -1.406,2.016 -3.394,3.126 -5.593,3.126 m 25.428,7.425 c 0.653,0 1.133,-0.356 1.42,-0.654 0.657,-0.681 1.025,-1.784 0.984,-2.949 -0.07,-1.987 -1.332,-3.665 -2.753,-3.665 -0.671,0 -1.155,0.359 -1.447,0.663 -0.65,0.68 -1.012,1.778 -0.963,2.935 0.084,1.99 1.345,3.67 2.759,3.67 m 8.612,11.986 c -1.802,1.703 -4.385,2.68 -7.085,2.68 -2.243,0 -4.407,-0.679 -6.088,-1.908 l -9.482,-6.861 c -3.994,-2.868 -4.884,-8.489 -1.979,-12.535 l 9.222,-12.635 c 1.469,-1.982 3.606,-3.118 5.862,-3.118 2.228,0 4.347,1.059 5.972,2.988 l 10.331,12.456 c 3.23,3.952 2.985,9.834 -0.544,13.112 z m 57.558,-49.799 c -0.028,1.156 0.346,2.218 1.025,2.913 0.314,0.321 0.836,0.701 1.548,0.701 1.464,0 2.755,-1.677 2.816,-3.661 0.034,-1.147 -0.33,-2.203 -1.004,-2.896 -0.313,-0.325 -0.841,-0.712 -1.567,-0.712 -1.506,0 -2.769,1.64 -2.818,3.655 m 2.155,23.561 c -2.234,0 -4.296,-1.068 -5.805,-3.005 l -9.857,-12.445 c -3.154,-3.923 -3.114,-10.327 0.095,-14.285 l 10.404,-12.633 c 1.656,-1.986 3.859,-3.08 6.199,-3.08 2.305,0 4.431,1.065 5.993,3.004 l 9.868,12.457 c 3.048,3.903 2.827,10.31 -0.486,14.274 l -10.396,12.625 c -1.616,1.991 -3.753,3.088 -6.015,3.088 m 5.283,21.099 c 0.674,-1.902 0.152,-4.188 -1.424,-6.269 l -3.361,-4.407 c -1.497,-1.948 -3.541,-3.019 -5.757,-3.019 -2.248,0 -4.357,1.1 -5.937,3.095 l -9.844,12.637 c -1.645,2.144 -2.188,3.932 -1.574,5.176 0.243,0.493 0.903,1.323 2.586,1.323 0.547,0 1.17,-0.088 1.853,-0.259 l 19.354,-4.853 c 2.049,-0.512 3.508,-1.727 4.104,-3.424 m -37.339,-23.444 c -0.691,0 -1.208,0.375 -1.519,0.688 -0.684,0.688 -1.086,1.786 -1.079,2.942 0.015,1.973 1.218,3.64 2.629,3.64 1.408,0 2.596,-1.665 2.596,-3.633 -0.003,-2.006 -1.181,-3.637 -2.627,-3.637 m 0.162,27.216 c -2.181,0 -4.228,-1.067 -5.759,-2.999 l -9.996,-12.445 c -3.194,-3.912 -3.34,-10.312 -0.325,-14.27 l 9.782,-12.636 c 1.571,-1.996 3.703,-3.097 6.006,-3.097 2.257,0 4.368,1.064 5.949,3 l 10.013,12.456 c 3.083,3.896 3.052,10.296 -0.065,14.259 l -9.782,12.625 c -1.526,2.003 -3.595,3.107 -5.823,3.107 m -25.726,-54.696 c 0.056,2.019 1.327,3.661 2.829,3.661 0.723,0 1.254,-0.386 1.569,-0.711 0.681,-0.695 1.058,-1.754 1.033,-2.906 -0.043,-2.013 -1.31,-3.651 -2.825,-3.651 -0.74,0 -1.277,0.391 -1.596,0.719 -0.673,0.694 -1.041,1.745 -1.01,2.888 m 0.872,23.607 c -2.231,0 -4.348,-1.06 -5.959,-2.981 l -10.587,-12.445 c -3.378,-3.916 -3.673,-10.322 -0.653,-14.287 l 9.779,-12.637 c 1.57,-1.998 3.736,-3.096 6.098,-3.096 2.307,0 4.487,1.056 6.149,2.979 l 10.601,12.455 c 3.268,3.901 3.385,10.308 0.261,14.278 l -9.773,12.626 c -1.528,2.004 -3.628,3.108 -5.916,3.108 M 381.18,231.841 c 0.066,-1.074 -0.267,-2.084 -0.909,-2.767 -0.502,-0.533 -1.133,-0.815 -1.828,-0.815 -1.684,0 -3.145,1.652 -3.255,3.681 -0.058,1.083 0.28,2.098 0.932,2.783 0.497,0.527 1.123,0.806 1.807,0.806 1.672,0 3.128,-1.655 3.253,-3.688 m 4.287,-15.716 10.315,12.456 c 3.207,3.924 2.803,10.356 -0.896,14.327 l -11.604,12.626 c -1.783,1.968 -4.091,3.051 -6.505,3.051 -2.387,0 -4.569,-1.064 -6.142,-2.989 L 360.33,243.149 c -3.311,-3.939 -3.082,-10.366 0.514,-14.336 L 372.45,216.18 c 1.823,-1.961 4.196,-3.042 6.686,-3.042 2.462,0 4.708,1.059 6.331,2.987 m -27.458,-18.464 c 0.043,-1.054 -0.312,-2.05 -0.971,-2.736 -0.535,-0.557 -1.235,-0.864 -1.97,-0.864 -1.74,0 -3.21,1.643 -3.273,3.665 -0.037,1.059 0.327,2.061 0.99,2.749 0.534,0.55 1.227,0.855 1.956,0.855 1.722,0 3.191,-1.644 3.268,-3.669 m -9.238,-18.79 c 1.836,-1.961 4.258,-3.042 6.816,-3.042 2.517,0 4.847,1.055 6.553,2.971 l 10.938,12.456 c 3.401,3.926 3.127,10.363 -0.604,14.348 l -11.687,12.625 c -1.793,1.964 -4.151,3.047 -6.632,3.047 -2.446,0 -4.708,-1.055 -6.366,-2.969 l -10.926,-12.449 c -3.506,-3.939 -3.41,-10.378 0.219,-14.353 z m -24.774,49.903 c 0.012,-1.079 -0.374,-2.095 -1.059,-2.79 -0.533,-0.536 -1.209,-0.833 -1.909,-0.833 -1.667,0 -3.031,1.632 -3.041,3.638 -0.006,1.088 0.388,2.108 1.078,2.803 0.538,0.542 1.193,0.829 1.891,0.829 1.653,0 3.016,-1.636 3.04,-3.647 m -2.91,-21.853 c 2.462,0 4.758,1.051 6.474,2.966 l 10.991,12.455 c 3.411,3.917 3.313,10.347 -0.217,14.333 L 327.299,249.3 c -1.705,1.978 -3.984,3.067 -6.414,3.067 -2.389,0 -4.623,-1.056 -6.287,-2.969 l -10.977,-12.446 c -3.518,-3.933 -3.598,-10.365 -0.173,-14.34 l 11.041,-12.633 c 1.747,-1.974 4.089,-3.058 6.598,-3.058 m -32.072,49.861 c -0.04,-2.013 -1.389,-3.65 -3.013,-3.65 -0.84,0 -1.439,0.431 -1.794,0.796 -0.674,0.69 -1.042,1.718 -1.016,2.816 0.051,2.017 1.403,3.656 3.014,3.656 0.826,0 1.42,-0.428 1.771,-0.786 0.68,-0.695 1.06,-1.726 1.038,-2.832 m 0.343,26.674 c -2.328,0 -4.532,-1.055 -6.203,-2.967 l -11.033,-12.446 c -3.528,-3.926 -3.781,-10.348 -0.56,-14.321 l 10.394,-12.635 c 1.656,-1.985 3.923,-3.078 6.38,-3.078 2.405,0 4.675,1.053 6.397,2.968 l 11.046,12.455 c 3.419,3.908 3.492,10.331 0.169,14.311 l -10.391,12.626 c -1.613,1.99 -3.814,3.087 -6.199,3.087"
           style="fill:#ffffff;fill-opacity:1;fill-rule:nonzero;stroke:none"
           id="path4305"
           inkscape:connector-curvature="0" /></g></g></g></svg>
