<?xml version="1.0" encoding="UTF-8" standalone="no"?>
<svg
   xmlns:dc="http://purl.org/dc/elements/1.1/"
   xmlns:cc="http://creativecommons.org/ns#"
   xmlns:rdf="http://www.w3.org/1999/02/22-rdf-syntax-ns#"
   xmlns:svg="http://www.w3.org/2000/svg"
   xmlns="http://www.w3.org/2000/svg"
   height="1129.7186" width="1159.031" viewBox="0 0 1159.031 1129.7186 " version="1">
  <metadata>
    <rdf:RDF>
      <cc:Work
         rdf:about="">
        <dc:title>Clipart by Paul B. Joiner - United States - Texas</dc:title>
        <dc:description />
        <dc:subject>
          <rdf:Bag>
            <rdf:li />
            <rdf:li>0xa115960</rdf:li>
            <rdf:li>america</rdf:li>
            <rdf:li>flag</rdf:li>
            <rdf:li>unitedstates</rdf:li>
            <rdf:li>north_america</rdf:li>
            <rdf:li>sign</rdf:li>
          </rdf:Bag>
        </dc:subject>
        <dc:publisher>
          <cc:Agent
             rdf:about="http://www.openclipart.org">
            <dc:title>Paul B. Joiner</dc:title>
          </cc:Agent>
        </dc:publisher>
        <dc:creator>
          <cc:Agent>
            <dc:title>Paul B. Joiner</dc:title>
          </cc:Agent>
        </dc:creator>
        <dc:rights>
          <cc:Agent>
            <dc:title>Paul B. Joiner</dc:title>
          </cc:Agent>
        </dc:rights>
        <dc:date />
        <dc:format>image/svg+xml</dc:format>
        <dc:type
           rdf:resource="http://purl.org/dc/dcmitype/StillImage" />
        <cc:license
           rdf:resource="http://web.resource.org/cc/PublicDomain" />
        <dc:language>en</dc:language>
      </cc:Work>
      <cc:License
         rdf:about="http://web.resource.org/cc/PublicDomain">
        <cc:permits
           rdf:resource="http://web.resource.org/cc/Reproduction" />
        <cc:permits
           rdf:resource="http://web.resource.org/cc/Distribution" />
        <cc:permits
           rdf:resource="http://web.resource.org/cc/DerivativeWorks" />
      </cc:License>
    </rdf:RDF>
  </metadata>
  <path
     style="fill:#ffffff;fill-opacity:1;fill-rule:evenodd;stroke:#bf0a30;stroke-width:3;stroke-miterlimit:4;stroke-opacity:1;stroke-dasharray:none"
     d="m 543.06245,1.8125 0,563.1875 608.24975,0 -1.531,-1.59375 0.4063,-2.96875 0.625,-1.96875 -1.75,-0.78125 0.031,-1.9375 -0.4062,-1.6875 -3.375,-1.125 -0.9063,-1.71875 -1.3125,-1.75 0.5938,-1.6875 0.7812,-2.375 1.7813,-1.875 -1.8438,-0.0625 -1.1562,-2.84375 -2,-2.1875 1.0312,-2.21875 -2.5312,-1.4375 -2.4375,-1.59375 0.375,-1.78125 1.875,-1.15625 0.8125,-1.875 -2.2813,-0.40625 -1.7187,-0.625 -2.4375,-0.34375 -1.0313,-1.65625 -1.6875,-1.25 0.031,-1.71875 -1.5313,-2.15625 -0.1875,-1.625 1.8125,-1.59375 0.094,-1.84375 -0.4375,-1.8125 0.75,-1.625 0.8125,-1.6875 -0.7813,-2.90625 -1.0937,-2 -1.0625,-1.6875 1,-1.78125 -0.9063,-1.90625 -1.5625,-1.84375 -1.5312,-1.78125 -0.1563,-1.78125 -0.8437,-1.6875 0.062,-1.71875 -1.7813,-0.625 -0.9375,-1.90625 -1.75,-0.125 -0.4687,-1.65625 -1.625,-0.8125 -1.875,-1 -1.625,-2.90625 -0.9688,-2.0625 -1.4375,-1.78125 -1.7187,-0.9375 -0.031,-2.6875 -1.2187,-162.3125 -1.1875,-2.15625 -1.6563,0.625 -2.0937,0.875 -1.625,1.5 -0.5,-1.90625 -1.75,-0.53125 -1.7188,-1.59375 -1.7812,1.03125 -1.75,0.5 1.9687,0.3125 0.1563,1.78125 -1.875,-0.6875 -1.625,1.1875 -1.6563,-0.5625 0.5625,-1.71875 0.375,-1.6875 -1.7812,0.90625 -1.0313,2.0625 -1.6562,0.15625 0.8437,-1.9375 -1.75,0.5625 -0.9687,2.34375 -1.8438,-0.5 -1.7187,-0.53125 -0.7813,1.6875 -1.7812,0.0625 -1.75,-1.625 0.7187,-1.625 -1.75,0.5625 -1.4687,-2.28125 -1.8438,-0.75 -1.625,-0.96875 0.7813,-1.8125 1.0312,-1.9375 -1.7187,0.5625 -2.0625,1.3125 -1.75,0.1875 -2.0313,0.21875 1.4063,-1.71875 -1.6875,-0.0937 -2.6875,0.125 0.7187,-2.09375 -2.375,0.71875 2.2813,-1.9375 -1.7188,0.21875 -1.0937,-1.875 0.094,1.8125 -1.75,-0.3125 -1.6875,-0.375 -1.5937,1.15625 -1.75,-0.96875 2.0937,-0.1875 0.625,-2.40625 -1.8437,0.4375 -2.25,0.8125 -2.9688,-0.4375 1.0938,-1.875 -2.4375,-0.53125 1.5625,1.75 -1.75,0.34375 -1.5938,-1.8125 0.5313,-1.75 -1.8438,-0.1875 -1.75,-0.90625 0.4375,-0.84375 -2.5,0.875 -0.031,-1.65625 -1.625,-0.75 0.25,1.8125 -1.875,0.15625 -2.25,-1.03125 0.7812,-1.75 -1.75,0.0625 -1.625,-0.84375 -1.5312,-1.8125 0.625,-1.90625 -1.0625,-2.03125 0.2812,2 -2.1562,0.0312 0.3437,-2.3125 -1.8125,-0.71875 -0.7187,-2.625 -1.75,1 -2.0313,-0.5625 -2.9375,-0.65625 -0.5,-1.875 -0.4687,-2.125 -1.6563,-0.34375 -0.3125,2.65625 -1.5937,-1.65625 0.9375,-1.9375 -1.8125,0.90625 -1.875,-1.125 0.9062,-1.625 -1.5937,-0.34375 -2.8438,-1.28125 -3,-1.25 -2.4062,0.9375 -1.5625,1.625 0.1875,2.90625 -1.1875,2 -1.7188,-2.1875 0.3125,1.9375 -1.4375,1.84375 -1.74995,-0.9375 -2.0625,0.75 -2.1875,0.8125 -1.875,-0.1875 -1.875,0.4375 -2,-0.625 -2.28125,-0.0312 -1,-1.6875 -1.625,1.0625 -2,-0.125 -0.28125,-2.09375 -2.03125,1.71875 -1.65625,-0.875 0.1875,-2.3125 -0.75,-1.96875 -1.71875,-0.28125 -1.78125,-1 -1.6875,1.5625 -1.4375,2.40625 -1.96875,-0.53125 -2.125,1.625 -1.875,0.90625 -1.71875,-0.53125 -2.21875,-0.625 -1.5,1.65625 0.71875,1.6875 -0.34375,1.65625 -2.15625,-0.15625 -1.71875,-1.125 -1.6875,0.90625 -0.8125,1.9375 -1.625,-0.75 -1.625,-1 -2.46875,-1.71875 -3.25,-1.71875 -1.40625,2.625 -2.3125,0.375 -1.8125,-0.6875 -1.40625,1.875 -1.71875,-1.1875 -1.625,2 -2.09375,-0.6875 -2.53125,-0.28125 0.1875,1.59375 -2.5,-1 -1.90625,0.3125 -0.875,1.9375 -1.75,0.90625 1.6875,-0.15625 -0.25,2.65625 -1.375,2.75 -1.71875,0.84375 -2.75,0.46875 -2.28125,-1.4375 -2.0625,-0.9375 -1.6875,0.96875 -0.75,1.84375 -0.0312,2.1875 -0.5,1.78125 -1.8125,1.40625 -2.03125,0.59375 -0.90625,-1.90625 -0.8125,-1.625 -1.75,-1.84375 -1.59375,-2.0625 -1.65625,-2.25 -1.625,-0.15625 -1.65625,0.5 -2.78125,0.3125 -1.375,-1.625 -0.125,-1.96875 -1.25,-1.8125 -1.65625,0.5 -1.9375,0.0312 -1.75,-1.25 -3.1875,-2.28125 2.78125,-2.40625 0.40625,-2.15625 -3.125,0.125 -3.96875,-1.875 -0.90625,2.96875 -0.0937,2.25 -1.75,2.9375 -1.8125,0.5 -1.84375,0.46875 -2.15625,-0.40625 -0.59375,-1.96875 -1.5,-2.1875 -1.625,-0.375 -2.375,0.4375 -0.15625,1.625 -1.65625,0.34375 -2,-1.9375 -1.125,-3 -0.0625,-1.78125 -0.40625,-2.6875 -2.03125,-2.15625 -2.4375,1.53125 -1.84375,0.9375 -1.9375,-1.34375 -0.0312,1.75 0.90625,2.875 0,1.71875 -1.09375,1.84375 -2.125,2.59375 -2.1875,0.75 -1.8125,-2.21875 -1.8125,2 3.125,0.90625 0.3125,1.625 -3.90625,1.40625 -0.15625,1.71875 0.84375,2.78125 -0.21875,2.15625 -1.75,2.125 -2.34375,0.3125 -1.8125,-0.625 -1.65625,-1.5625 -0.625,-1.65625 -0.65625,-1.625 -0.625,-1.625 -0.9375,-1.71875 0.84375,-3.09375 2.5625,-1 -0.28125,-2.03125 -0.5625,-2.0625 -0.90625,-2.375 -1.71875,-1.34375 -1.8125,-0.0312 -1.625,1.1875 -0.34375,2.40625 -1.5625,2.1875 -1.84375,-1.09375 -2.0625,-1.78125 -0.28125,2.3125 -1.75,0.25 -0.15625,-1.71875 -0.3125,1.9375 -1.6875,3.25 -2.4375,1.09375 -1.78125,0.0937 -1.78125,0 -2.3125,-1.03125 -0.75,-2.21875 0.875,-2.28125 0.0625,-1.65625 -1.125,-1.9375 -3.21875,-1.53125 -3,1.46875 -2.875,0.4375 -1.96875,-0.25 -0.6875,-1.71875 0.1875,-1.8125 0.46875,-1.71875 -1.71875,-1.53125 -2.1875,-1.40625 -3.28125,-1.0625 -1.9375,0.8125 -0.96875,2.15625 -1.5,2 -1.78125,0.75 -1.875,0.6875 -0.4375,1.84375 -1.625,0 0.46875,2 -1.84375,0.96875 -1.6875,1.71875 -2.03125,1.28125 -1.78125,0.75 -2.15625,-0.71875 -1.875,-1.125 -2.125,-1.15625 -2.03125,-0.0625 -1.8125,-1.15625 0.0625,-2.40625 1.75,-0.21875 0.15625,-2.5 -1.65625,-0.5 1.53125,-1.65625 0.34375,-3.34375 -1.65625,-1.59375 -1.6875,0.6875 -3.25,0.59375 -2.4375,-0.28125 -2.40625,-0.6875 -0.59375,-1.78125 -1.46875,-1.65625 1.65625,-0.96875 -2.40625,-1.9375 -0.5625,-2 1.46875,-1.78125 1.0625,-1.96875 -0.96875,-1.9375 -0.53125,-2 -2.4375,1 -2.96875,3.21875 -3.40625,-0.71875 -2.03125,-1.4375 -2.125,0.53125 -2.09375,-0.125 -1.75,-0.40625 -2.21875,-1.75 -3.75,-0.5 -1.65625,1.8125 -1,1.84375 -1.03125,3.03125 -1.65625,0.75 -1.8125,1.28125 -1.96875,0.8125 -2.03125,-0.46875 -1.96875,-1.6875 -1.71875,-2.25 -2.09375,-2.71875 -2.09375,-1.9375 -2.875,-0.53125 -3.4375,-0.1875 -2.5,2.0625 -1.6875,0.3125 -1.8125,0.0625 -2,1.03125 -1.6875,-1.15625 -2.6875,-0.6875 -1.6875,-1.625 -1.9375,0.1875 -2.71875,0.71875 -1.6875,-1.96875 -1.9375,-0.96875 -1.65625,-1.59375 -3.40625,-0.90625 -1.25,-1.6875 -1.875,0.8125 -1.96875,0.5625 -1.75,0.625 -1.65625,-0.90625 -2.28125,-0.1875 -1.6875,0.53125 -1.625,0.0312 -0.34375,-1.71875 -2.03125,1.28125 -3.1875,-0.75 0,-1.625 -0.5625,-2.0625 -0.0312,-1.78125 -0.9375,-1.84375 -0.21875,-1.625 0.34375,-2.125 -0.0937,-2.03125 -1.78125,0.0625 -0.625,-1.65625 -1.8125,-2 -1.71875,-1.28125 0.1875,-1.71875 -1.96875,-1.53125 -2.21875,0.6875 -1.8125,-2.25 -1.65625,-2.71875 -1.9375,-0.125 -1.0625,2.65625 0.3125,1.9375 -0.53125,1.65625 -1.625,2.125 -2.125,0.6875 -1.71875,-0.9375 -1.40625,-1.625 -2.25,-1.4375 -1.75,-0.5625 -1.96875,0.125 -1.84375,-0.4375 -1.9375,1.03125 -0.0312,1.71875 -1.34375,1.75 -2.125,0.125 -2.125,-0.9375 -2.03125,0.5 -2.09375,-0.0625 -1.75,-1.71875 -1.0625,-1.6875 -2.40625,-1.125 -1.625,-2.125 -1.84375,-1.34375 -1.9375,-2.8125 -1.53125,-2.0625 -1.78125,-1.21875 -1.375,-1.6875 -1.40625,-2.03125 -1.65625,-1.21875 -2.71875,-1.9375 -1.71875,-0.1875 -1.5625,1.71875 -2.53125,0.1875 0,-204.6875 -43.59375,0 -2.5e-4,5e-5 z m 503.15625,291 0.3125,-0.0937 0.625,-1.625 -0.9375,1.71875 0,-5e-5 z m 102.7694,275.93651 -1.2427,0.26114 1.5748,-1.30473 1.3627,0.33817 -0.408,0.0715 -1.2868,0.63396 z"
     id="Northeastborderandfill"/>
  <path
     style="fill:#bf0a30;fill-rule:evenodd;stroke-width:1pt"
     d="m 543.06245,565 0,265.15625 1.84375,1.15625 2.53125,1.0625 -0.25,2.125 1.625,2.1875 2.875,2.1875 -1.21875,2.625 0.96875,2.09375 1.0625,1.71875 2.28125,0.65625 2.09375,0.71875 -0.5,1.625 -2.0625,1.1875 1.46875,1.6875 1.15625,1.71875 0.0625,1.65625 -1.09375,2.59375 0.6875,1.875 2.15625,2.90625 1.1875,2.4375 1.34375,1.84375 0.0937,1.65625 0.375,3.21875 1.375,2.15625 1.875,1.71875 2.53125,0.75 0.3125,2.25 0.53125,1.625 1.96875,0.46875 2.21875,1.875 1.6875,0 1.90625,1.3125 3.125,1.15625 1.09375,2.53125 1.4375,2.0625 0.8125,2.34375 2.15625,1.0625 0.5,1.65625 0.28125,1.71875 0.59375,1.96875 0.84375,1.78125 1.6875,1.28125 2.40625,0.65625 1.5625,1.65625 -0.59375,1.9375 1.15625,2.3125 2.28125,1.59375 0.53125,2.03125 -0.90625,1.875 0.9375,2.03125 1.5625,1.90625 0.1875,2.65625 0.34375,1.9375 2.21875,1.65625 1.03125,1.6875 1.75,-1.15625 0.65625,1.59375 0.8125,2.4375 2.28125,0.375 1.125,2.125 2.21875,2.8125 0.96875,2.03125 1.96875,1.125 1.78125,-0.375 1.84375,1.1875 -0.0625,1.78125 1.75,0.4375 2.03125,-1.15625 1.9375,-0.0937 1.4375,2.125 -0.0937,1.71875 2.09375,-1.28125 1.65625,2.40625 1.71875,2.03125 -0.1875,2.03125 -0.3125,1.9375 -0.28125,1.71875 -0.0625,2.3125 2.09375,-0.375 1.84375,1.25 -0.375,2.625 -0.875,2.625 0.71875,2.875 -0.46875,2.0625 -0.5625,2 -0.75,2 -0.125,2.15625 -1.96875,1.0625 0.90625,2.09375 1.78125,-0.21875 1.1875,1.71875 0.5625,3.15625 2.53125,-0.4375 0.96875,2.875 -0.125,1.90625 0.875,1.78125 0.5625,2.71875 -1,2.3125 0.5625,1.75 -0.15625,1.9375 0.25,2.59375 -0.375,1.71875 -1.40625,2.5625 0.59375,2.21875 0.4375,1.9687 2.0625,-0.2812 1.03125,2.0937 2.40625,2.0938 -1.53125,1.7812 0.5,1.75 2.375,1.625 2.09375,0.6563 1.375,1.6875 0.4375,4.3125 1.90625,0.062 2.34375,2.3437 0.5625,2.9063 1.75,2.875 0.21875,4.5 2.71875,2.2188 -0.0937,3.25 0.84375,3.9687 1.96875,3.8125 0.9375,6.375 0.0625,2.5313 2.03125,0.875 2.21875,1.1875 1.21875,1.7187 0.8125,1.9688 -0.21875,1.9375 -0.375,1.625 -1,1.625 1.21875,1.625 1.5625,2.1875 2.40625,-0.5 2,-1.2188 2.5,2.0313 2.59375,-0.8125 1.71875,0.7187 -0.125,1.8125 1.84375,0.4688 1,-2.0313 1.125,2.1563 1.9375,1.5312 1.65625,-0.5312 2.3125,0.375 1.71875,-1.2813 1.8125,0.375 0.6875,1.9063 0.5625,1.8125 1.625,0.75 1.90625,-0.5313 0.96875,1.7188 -0.34375,2.0625 2.0625,0.625 1.6875,0.7812 -1.71875,0.9063 1.65625,0.6562 2,0.9688 0.125,1.625 1.9375,0.5937 1.96875,-1.7187 2.09375,-0.125 1.84375,-0.4688 1.78125,1.7188 0.71875,1.625 1.28125,-1.8438 0.8125,1.9063 1.8125,-0.1875 0.96875,1.9687 2.1875,0.7188 -0.21875,-1.8438 1.78125,-0.7187 1.84375,0.7187 -0.34375,1.9375 1.6875,1 2,2.0625 1.9375,1.625 1.96875,-0.2812 1.75,0.6562 0.25,1.625 1.28125,2.0625 2,1.4063 0.65625,-1.6563 2.1875,0.3438 -1.8125,1.5937 1.71875,1.125 1.59375,2.0625 3.15625,0.3125 1.8125,1.6563 1.78125,-1.875 1.125,1.8437 1.65625,-0.125 1.84375,-1 2.21875,0.625 1.71875,-0.1562 -0.4375,1.9062 1.65625,-0.4687 1.9375,0.5312 0.5625,-2.1875 1.8125,0.5938 1.625,-0.2813 1.625,0.094 2.125,-0.4062 1.75,-0.1563 1.75,0.75 2.15625,-1.0625 2.21875,-0.375 1.0625,1.9063 2.09375,-0.4063 1.625,-0.25 1.625,0.9063 0.5625,1.6562 1.625,-1.0625 0.40625,1.875 2.15625,-0.625 2.6875,-0.4062 1.65625,0.9687 2.0625,-1.1875 -0.5,1.9688 2.40625,-0.5313 -0.53125,1.7813 1.75,0.1875 -0.65625,1.6562 1.6875,1.25 1.875,1.7813 1.71875,0.8125 -0.75,1.6875 2.90625,0.1562 1.75,1.75 0.25,1.8125 0.46875,1.7188 2.09375,-1.3438 0.46875,1.9375 1.65625,0.4375 1.625,-0.7812 0.96875,1.75 0.75,1.875 2.4687,-0.5313 1.28125,1.8438 1.78125,-0.2813 -0.21875,-1.75 1.46875,-1.6875 -0.625,-1.9375 -0.78125,-1.6562 1.71875,-1.375 1.9375,-0.6875 1.625,-0.5938 1.65625,-0.1875 1.71875,-0.2187 0,-1.75 2.78125,0.2812 1.75,-1.0312 1.75,0.094 1.625,-0.031 1.75,-0.1875 1.75,0.5 0.0625,-1.625 4.875,-0.3125 -0.25,-7.3125 0.40625,-2.4375 -0.4375,-2.3438 -1.21875,-1.7187 -0.21875,-4.3125 -0.59375,-5.5625 -0.6875,-5.3125 -2.75,-13.4063 -2.46875,-10.625 -2.59375,-10.6562 -0.9375,-2.2188 -2.375,-6.7812 -2.75,-10.75 -1.5625,-7.5001 -1.1875,-8.3125 -0.59375,-7.5312 -0.21875,-2.7188 0,-4.31245 0.3125,-6.21875 0.53125,-6.3125 0.375,-2.8125 1.125,-5.71875 0.71875,-2.875 2.78125,-10.34375 0.59375,-1.78125 4.4375,-11.40625 3.0625,-7.1875 3.5,-7.625 6.625,-11.59375 3.625,-3.875 2.15625,-1.78125 2.1875,-7.5625 1.84375,-2.75 2.625,-3.46875 2.96875,-3.78125 2.71875,-3.21875 8.625,-8.375 9.3125,-8 3.90625,-2.90625 5.75,-4.03125 9.28125,-5.03125 2.65625,-1.15625 1.78125,-1.1875 2.6875,-3.71875 0.59375,-1.9375 1.53125,-1.96875 2.34375,-0.5625 2.375,-2.09375 0.78125,-2.09375 2,-1.4375 4.6875,-3.21875 9.375,-5.0625 6.65625,-3.40625 11.03125,-5.34375 8.5625,-4.5 2.4375,-1.375 19.0625,-11.8125 3.53125,-1.59375 6.5,-4.28125 1.65625,-0.0312 2.0625,-0.4375 2.15625,-0.8125 2.75,-1.75 1.0625,-1.75 1.6875,-2.1875 3.3437,-2.21875 2.25,-1.875 1.8438,-1.71875 2.25,-2.34375 4.8437,-5.71875 1.7188,-1.25 1.5312,-3.5 0.2188,-2.15625 7.5938,-3.8125 3.2187,-2.1875 4.5625,-3.625 6.3438,-4.125 5.9375,-3.5 2.7812,-2.96875 2.4375,-2.40625 1.8438,0.5625 2.3125,-0.40625 2.0937,-2.03125 1.5938,-3.6875 -0.375,-2.4375 -1.9063,-2.59375 2.2188,-1.5625 11.0625,-5.78125 7.0625,-3.3125 4.3125,-1.75 21.5937,-10.09375 8.0625,-3.09375 11.25,0 2.7188,0.375 1.5,1.71875 1.9062,0.875 1.9375,0.0312 -1.25,-6.65625 -0.7812,-3.21875 -3.2188,-5.03125 -1.7187,-1.8125 -0.4375,-1.78125 -2.4688,-1.90625 -0.125,-2.09375 1.25,-1.875 2.4375,-1.9375 2.7188,-1.96875 2.1875,-3.1875 1.1562,-2.53125 0.3125,-1.78125 0.9063,-2.875 1.3125,-2.78125 1.875,-1.5625 2.3125,-1.90625 0.3125,-1.65625 3.0312,-3.0625 -1.8437,-1.71875 0.75,-1.90625 1.2812,-2.375 0.6875,-2 -0.875,-2.03125 -0.6562,-1.96875 -0.375,-1.875 -0.5313,-1.90625 0.8125,-1.6875 0.2188,-1.75 0.094,-1.75 0.2813,-1.71875 -1.25,-1.625 -1.9375,-1.15625 -1.3438,-1.96875 -0.2812,-1.75 0.75,-1.84375 -0.375,-2 0.8437,-1.875 1.5,-1.78125 0.2188,-1.8125 1.9375,-0.40625 0.1875,-1.625 -0.9375,-2.125 0.2187,-1.71875 -0.1562,-1.84375 -0.5938,-1.8125 -1.7187,-1.75 0.5937,-1.625 0.3125,-2.25 2.125,-1.53125 1.6563,-0.375 0.1562,-1.71875 -0.1562,-1.78125 0.1875,-1.6875 1.0937,-1.78125 1.6563,-1.25 1.7812,-0.84375 0.9688,-1.71875 0.3437,-1.9375 0.6563,-1.875 0.062,-1.71875 0.6875,-1.65625 1.5312,-1.75 0.75,-2.40625 0.9375,-1.6875 0.9063,-1.875 -0.3125,-1.78125 -0.625,-1.75 -0.75,-2 1.6562,-1.625 0.9375,-1.8125 1.5313,-1.84375 -0.4063,-1.8125 -1.6875,-1.3125 -1.7187,-0.96875 -0.3438,-1.65625 0.1563,-1.875 1.9375,-0.0625 2.4062,-1.03125 0.1875,-2.3125 -0.094,-1.625 -1.0313,-1.8125 -1.7187,-0.46875 -1,-1.65625 1.5625,-1.75 0.7187,-1.625 -0.7187,-1.78125 0.6875,-2.125 0.1562,-0.4375 -4.4062,0 -0.25,0.1875 -0.125,-0.1875 -608.25005,0 z"
     id="Southeastfill" />
  <path
     style="fill:none;stroke:#bf0a30;stroke-width:3;stroke-miterlimit:4;stroke-opacity:1;stroke-dasharray:none"
     d="m 543.06245,565 0,265.15625 1.84375,1.15625 2.53125,1.0625 -0.25,2.125 1.625,2.1875 2.875,2.1875 -1.21875,2.625 0.96875,2.09375 1.0625,1.71875 2.28125,0.65625 2.09375,0.71875 -0.5,1.625 -2.0625,1.1875 1.46875,1.6875 1.15625,1.71875 0.0625,1.65625 -1.09375,2.59375 0.6875,1.875 2.15625,2.90625 1.1875,2.4375 1.34375,1.84375 0.0937,1.65625 0.375,3.21875 1.375,2.15625 1.875,1.71875 2.53125,0.75 0.3125,2.25 0.53125,1.625 1.96875,0.46875 2.21875,1.875 1.6875,0 1.90625,1.3125 3.125,1.15625 1.09375,2.53125 1.4375,2.0625 0.8125,2.34375 2.15625,1.0625 0.5,1.65625 0.28125,1.71875 0.59375,1.96875 0.84375,1.78125 1.6875,1.28125 2.40625,0.65625 1.5625,1.65625 -0.59375,1.9375 1.15625,2.3125 2.28125,1.59375 0.53125,2.03125 -0.90625,1.875 0.9375,2.03125 1.5625,1.90625 0.1875,2.65625 0.34375,1.9375 2.21875,1.65625 1.03125,1.6875 1.75,-1.15625 0.65625,1.59375 0.8125,2.4375 2.28125,0.375 1.125,2.125 2.21875,2.8125 0.96875,2.03125 1.96875,1.125 1.78125,-0.375 1.84375,1.1875 -0.0625,1.78125 1.75,0.4375 2.03125,-1.15625 1.9375,-0.0937 1.4375,2.125 -0.0937,1.71875 2.09375,-1.28125 1.65625,2.40625 1.71875,2.03125 -0.1875,2.03125 -0.3125,1.9375 -0.28125,1.71875 -0.0625,2.3125 2.09375,-0.375 1.84375,1.25 -0.375,2.625 -0.875,2.625 0.71875,2.875 -0.46875,2.0625 -0.5625,2 -0.75,2 -0.125,2.15625 -1.96875,1.0625 0.90625,2.09375 1.78125,-0.21875 1.1875,1.71875 0.5625,3.15625 2.53125,-0.4375 0.96875,2.875 -0.125,1.90625 0.875,1.78125 0.5625,2.71875 -1,2.3125 0.5625,1.75 -0.15625,1.9375 0.25,2.59375 -0.375,1.71875 -1.40625,2.5625 0.59375,2.21875 0.4375,1.9687 2.0625,-0.2812 1.03125,2.0937 2.40625,2.0938 -1.53125,1.7812 0.5,1.75 2.375,1.625 2.09375,0.6563 1.375,1.6875 0.4375,4.3125 1.90625,0.062 2.34375,2.3437 0.5625,2.9063 1.75,2.875 0.21875,4.5 2.71875,2.2188 -0.0937,3.25 0.84375,3.9687 1.96875,3.8125 0.9375,6.375 0.0625,2.5313 2.03125,0.875 2.21875,1.1875 1.21875,1.7187 0.8125,1.9688 -0.21875,1.9375 -0.375,1.625 -1,1.625 1.21875,1.625 1.5625,2.1875 2.40625,-0.5 2,-1.2188 2.5,2.0313 2.59375,-0.8125 1.71875,0.7187 -0.125,1.8125 1.84375,0.4688 1,-2.0313 1.125,2.1563 1.9375,1.5312 1.65625,-0.5312 2.3125,0.375 1.71875,-1.2813 1.8125,0.375 0.6875,1.9063 0.5625,1.8125 1.625,0.75 1.90625,-0.5313 0.96875,1.7188 -0.34375,2.0625 2.0625,0.625 1.6875,0.7812 -1.71875,0.9063 1.65625,0.6562 2,0.9688 0.125,1.625 1.9375,0.5937 1.96875,-1.7187 2.09375,-0.125 1.84375,-0.4688 1.78125,1.7188 0.71875,1.625 1.28125,-1.8438 0.8125,1.9063 1.8125,-0.1875 0.96875,1.9687 2.1875,0.7188 -0.21875,-1.8438 1.78125,-0.7187 1.84375,0.7187 -0.34375,1.9375 1.6875,1 2,2.0625 1.9375,1.625 1.96875,-0.2812 1.75,0.6562 0.25,1.625 1.28125,2.0625 2,1.4063 0.65625,-1.6563 2.1875,0.3438 -1.8125,1.5937 1.71875,1.125 1.59375,2.0625 3.15625,0.3125 1.8125,1.6563 1.78125,-1.875 1.125,1.8437 1.65625,-0.125 1.84375,-1 2.21875,0.625 1.71875,-0.1562 -0.4375,1.9062 1.65625,-0.4687 1.9375,0.5312 0.5625,-2.1875 1.8125,0.5938 1.625,-0.2813 1.625,0.094 2.125,-0.4062 1.75,-0.1563 1.75,0.75 2.15625,-1.0625 2.21875,-0.375 1.0625,1.9063 2.09375,-0.4063 1.625,-0.25 1.625,0.9063 0.5625,1.6562 1.625,-1.0625 0.40625,1.875 2.15625,-0.625 2.6875,-0.4062 1.65625,0.9687 2.0625,-1.1875 -0.5,1.9688 2.40625,-0.5313 -0.53125,1.7813 1.75,0.1875 -0.65625,1.6562 1.6875,1.25 1.875,1.7813 1.71875,0.8125 -0.75,1.6875 2.90625,0.1562 1.75,1.75 0.25,1.8125 0.46875,1.7188 2.09375,-1.3438 0.46875,1.9375 1.65625,0.4375 1.625,-0.7812 0.96875,1.75 0.75,1.875 2.4687,-0.5313 1.28125,1.8438 1.78125,-0.2813 -0.21875,-1.75 1.46875,-1.6875 -0.625,-1.9375 -0.78125,-1.6562 1.71875,-1.375 1.9375,-0.6875 1.625,-0.5938 1.65625,-0.1875 1.71875,-0.2187 0,-1.75 2.78125,0.2812 1.75,-1.0312 1.75,0.094 1.625,-0.031 1.75,-0.1875 1.75,0.5 0.0625,-1.625 4.875,-0.3125 -0.25,-7.3125 0.40625,-2.4375 -0.4375,-2.3438 -1.21875,-1.7187 -0.21875,-4.3125 -0.59375,-5.5625 -0.6875,-5.3125 -2.75,-13.4063 -2.46875,-10.625 -2.59375,-10.6562 -0.9375,-2.2188 -2.375,-6.7812 -2.75,-10.75 -1.5625,-7.5001 -1.1875,-8.3125 -0.59375,-7.5312 -0.21875,-2.7188 0,-4.31245 0.3125,-6.21875 0.53125,-6.3125 0.375,-2.8125 1.125,-5.71875 0.71875,-2.875 2.78125,-10.34375 0.59375,-1.78125 4.4375,-11.40625 3.0625,-7.1875 3.5,-7.625 6.625,-11.59375 3.625,-3.875 2.15625,-1.78125 2.1875,-7.5625 1.84375,-2.75 2.625,-3.46875 2.96875,-3.78125 2.71875,-3.21875 8.625,-8.375 9.3125,-8 3.90625,-2.90625 5.75,-4.03125 9.28125,-5.03125 2.65625,-1.15625 1.78125,-1.1875 2.6875,-3.71875 0.59375,-1.9375 1.53125,-1.96875 2.34375,-0.5625 2.375,-2.09375 0.78125,-2.09375 2,-1.4375 4.6875,-3.21875 9.375,-5.0625 6.65625,-3.40625 11.03125,-5.34375 8.5625,-4.5 2.4375,-1.375 19.0625,-11.8125 3.53125,-1.59375 6.5,-4.28125 1.65625,-0.0312 2.0625,-0.4375 2.15625,-0.8125 2.75,-1.75 1.0625,-1.75 1.6875,-2.1875 3.3437,-2.21875 2.25,-1.875 1.8438,-1.71875 2.25,-2.34375 4.8437,-5.71875 1.7188,-1.25 1.5312,-3.5 0.2188,-2.15625 7.5938,-3.8125 3.2187,-2.1875 4.5625,-3.625 6.3438,-4.125 5.9375,-3.5 2.7812,-2.96875 2.4375,-2.40625 1.8438,0.5625 2.3125,-0.40625 2.0937,-2.03125 1.5938,-3.6875 -0.375,-2.4375 -1.9063,-2.59375 2.2188,-1.5625 11.0625,-5.78125 7.0625,-3.3125 4.3125,-1.75 21.5937,-10.09375 8.0625,-3.09375 11.25,0 2.7188,0.375 1.5,1.71875 1.9062,0.875 1.9375,0.0312 -1.25,-6.65625 -0.7812,-3.21875 -3.2188,-5.03125 -1.7187,-1.8125 -0.4375,-1.78125 -2.4688,-1.90625 -0.125,-2.09375 1.25,-1.875 2.4375,-1.9375 2.7188,-1.96875 2.1875,-3.1875 1.1562,-2.53125 0.3125,-1.78125 0.9063,-2.875 1.3125,-2.78125 1.875,-1.5625 2.3125,-1.90625 0.3125,-1.65625 3.0312,-3.0625 -1.8437,-1.71875 0.75,-1.90625 1.2812,-2.375 0.6875,-2 -0.875,-2.03125 -0.6562,-1.96875 -0.375,-1.875 -0.5313,-1.90625 0.8125,-1.6875 0.2188,-1.75 0.094,-1.75 0.2813,-1.71875 -1.25,-1.625 -1.9375,-1.15625 -1.3438,-1.96875 -0.2812,-1.75 0.75,-1.84375 -0.375,-2 0.8437,-1.875 1.5,-1.78125 0.2188,-1.8125 1.9375,-0.40625 0.1875,-1.625 -0.9375,-2.125 0.2187,-1.71875 -0.1562,-1.84375 -0.5938,-1.8125 -1.7187,-1.75 0.5937,-1.625 0.3125,-2.25 2.125,-1.53125 1.6563,-0.375 0.1562,-1.71875 -0.1562,-1.78125 0.1875,-1.6875 1.0937,-1.78125 1.6563,-1.25 1.7812,-0.84375 0.9688,-1.71875 0.3437,-1.9375 0.6563,-1.875 0.062,-1.71875 0.6875,-1.65625 1.5312,-1.75 0.75,-2.40625 0.9375,-1.6875 0.9063,-1.875 -0.3125,-1.78125 -0.625,-1.75 -0.75,-2 1.6562,-1.625 0.9375,-1.8125 1.5313,-1.84375 -0.4063,-1.8125 -1.6875,-1.3125 -1.7187,-0.96875 -0.3438,-1.65625 0.1563,-1.875 1.9375,-0.0625 2.4062,-1.03125 0.1875,-2.3125 -0.094,-1.625 -1.0313,-1.8125 -1.7187,-0.46875 -1,-1.65625 1.5625,-1.75 0.7187,-1.625 -0.7187,-1.78125 0.6875,-2.125 0.1562,-0.4375 -4.4062,0 -0.25,0.1875 -0.125,-0.1875 -608.25005,0 z"
     id="Southeastborder" />
  <path
     style="fill:#002868;fill-opacity:1;fill-rule:evenodd;stroke:none"
     d="m 399.75075,1.50045 -81.03125,0.0312 0.094,52.875 -0.125,18.46875 0.094,3.53125 -0.1875,70.4375 0.062,11.71875 -0.125,74.25 0.062,30.75 -1.875,107.8125 0.031,105.625 -192.5938,0.0312 -77.0625,-0.25 -43.5313,0.8125 -1.6562,1.90625 1.6875,1.28125 0.3437,1.65625 -0.7812,1.8125 1.0938,1.25 -1.9376,1.09375 -0.8124,1.78125 0.7187,1.9375 0.7813,1.9375 2.125,1.75 1.2187,1.84375 2.2187,1.15625 2.375,1.34375 0.6563,1.78125 1.625,2.15625 1.8125,1.34375 1.9062,-1.125 2.5626,0.25 2.0312,0.625 3.3125,2.375 0.5,1.65625 2,1.6875 1.3437,3.5 2.7188,4.375 0.5938,1.96875 0.7187,1.71875 0.6875,2.65625 3,2.15625 1.9375,4.3125 0.5313,2.25 1.625,1.8125 2.1562,0.78125 1.6562,1.875 2.1876,1.28125 2.0624,0.3125 2.9376,2.59375 6.2187,0.5625 4.5,2.90625 0.5313,2.6875 1.4062,2.8125 2.5,0.625 1.0938,1.78125 1.9062,0.125 1.6562,2.53125 1.25,1.8125 1.5626,1.875 2.125,2.9375 1.2812,2.0625 1.4688,1.96875 1.875,-0.0625 2.7812,2.9375 5.625,2.5 1.7188,1.5625 2.5312,2.53125 1.1562,1.84375 0.5,2.25 0.9376,2.21875 0.4687,1.84375 1.8125,1.34375 2,1.21875 1.5938,0.5625 1.375,2.65625 1.9062,1.75 1.7812,1.34375 1.6563,1.375 2.25,1.15625 0.4687,1.90625 -0.5937,1.75 1.9375,0.4375 1.75,0.5 2,1.3125 1.6875,0.59375 0.8125,1.75 1.7188,-1.3125 1.1874,1.75 1.6563,1.34375 1.9687,-0.875 1.7188,-0.34375 0.75,2.0625 1.8125,0.1875 0.8437,1.75 1.6563,0.125 0.5,1.625 1.9687,0.125 1.6563,0.71875 0.6563,1.8125 1.4062,1.75 1.6875,0.65625 0.7187,1.71875 1.6876,-0.15625 1.75,0.78125 1.6874,0.0625 1.375,2.40625 0.2188,1.625 0.3125,2.1875 1.8125,1.1875 1.7188,0.84375 1.625,0.4375 1.2187,1.71875 1.0625,2.125 0.7188,1.625 0.625,1.90625 0.75,1.875 0.4687,1.75 -0.2187,1.65625 -0.031,2.0625 0.8125,2.0625 0.3125,1.625 -0.031,1.625 0.3126,2.5 2.0312,1.3125 1.6875,0.65625 -1,1.71875 1.3125,1.8125 1.6875,1.21875 0.8125,1.6875 1.5938,0.5625 0.2812,2.03125 0.6562,2 2.3438,0.96875 1.5938,1.9375 0.3124,2.3125 0.5626,1.84375 0.7187,2.03125 0.031,1.75 -0.1876,1.96875 -0.5312,1.625 0.3438,1.78125 0.4062,2.25 -0.3438,1.8125 -1.0937,1.625 0.25,2.03125 0.6563,1.75 0.25,1.65625 0.4062,1.71875 0.031,1.75 1.0938,1.65625 -0.7188,1.8125 0.125,1.75 1.8438,2.125 1.0938,1.875 1.4374,2 1.4376,1.9375 -0.5,1.6875 1.625,1.46875 0.9062,1.9375 1.4062,1.71875 0.75,1.75 0.5626,1.90625 0.9374,1.75 0.3438,1.78125 0.125,1.84375 0,1.65625 1.625,1.34375 0.7812,1.625 0.8438,1.625 1.7188,0.65625 1.6874,1.25 1.4376,1.65625 5.125,4.625 1.0937,1.71875 1.6875,0.78125 2.7812,1.40625 1.6876,-0.0625 1.7187,0.40625 2.7813,1.34375 2.0624,0.96875 0.5626,2 1.9062,-0.21875 -0.2812,1.65625 0.1874,1.71875 2.5626,2.34375 0.6562,1.71875 1.5,1.71875 1.6562,1.1875 1.7813,1.28125 1.75,0.9375 1.9375,1.75 1.6875,1.25 1.6875,1.4375 1.875,0.8125 2.1562,0.875 2.375,0.5625 1.8438,0.34375 2.1875,1.09375 1.7187,-0.28125 1.6876,0.25 2.2812,0.375 1.6562,0.9375 1.9376,-0.125 1.25,1.625 1.8437,0.6875 -0.1875,1.6875 0.3125,1.65625 1.9375,-0.5 1.0938,1.6875 1.2187,1.71875 1.875,0.96875 1.6563,0.53125 1.7187,0.53125 1.5,1.65625 1.625,-0.0625 1.9063,-0.71875 1.75,1.625 2.3437,-0.4375 1.8437,0.96875 1.75,0.84375 1.0626,1.65625 1.7812,1.75 2,2.0625 -0.125,1.96875 1.8125,-0.25 1.5,1.78125 1.5937,1.5 1.8126,0.5625 1.7812,0.9375 1.875,0.0937 0.5,-1.84375 1.8125,0.8125 0.062,1.71875 1.75,-0.6875 -0.1875,2.0625 1.9063,0.21875 0.6874,2.5625 1.0626,-2.03125 2.75,1.21875 1.875,-0.3125 2.0312,0.375 2.4375,1.25 1.7187,-0.5625 2.4376,-0.71875 -0.031,-1.6875 1.6875,-2.75 -0.625,-1.90625 1.7188,-1.65625 0.75,-1.6875 1.125,-1.625 2.2187,-0.59375 0.3125,-1.8125 1.8438,-1.71875 0.5937,-1.90625 1.0625,-1.625 1.3125,-2.3125 2.0937,0.71875 1.6563,-0.96875 1.7187,-1.15625 1.7188,-1.09375 1.8125,-0.4375 0.9063,-1.78125 -1.6876,-1.625 -1.6562,-1.5 0.3125,-1.6875 1.3125,-1.84375 -0.4375,-1.625 0.7187,-1.8125 1.0626,-2.78125 2.4062,-1.3125 1.0938,-2.46875 1.7187,-1.5 -1.1875,-1.625 -0.3438,-1.75 0.625,-1.90625 0.6563,-1.9375 1.375,-1.65625 -0.5937,-1.84375 0.9062,-2.71875 1.6562,-1.5 0.063,-1.84375 1.375,-1.96875 -0.2813,-1.90625 1.6563,0.53125 0.68745,-1.6875 -0.28125,-2.59375 1.6875,-1.90625 1.25,-1.65625 0.78125,-2.03125 0.84375,-2.21875 0.71875,-2.21875 1.90625,-0.78125 2.71875,0.0312 1.71875,-1.3125 1.8125,-0.15625 2.34375,-1.9375 0.71875,2 1.78125,-0.65625 1.84375,-1.125 -0.375,-1.90625 1.75,0.21875 2.46875,0.0625 1.96875,0.34375 1.90625,0.46875 1.875,0.84375 1.71875,-0.6875 0.6875,-1.9375 0.34375,-1.875 0.96875,-2.9375 1.0625,-2.28125 1.625,-0.59375 1.71875,-1.53125 2.5625,1.375 1.625,-0.34375 1.625,0.34375 1.28125,1.6875 2.21875,0.53125 2.125,-0.28125 0.21875,2.0625 2.15625,1.5 1.75,1.125 1.75,0.96875 1.84375,0.125 1.90625,0.5 2.0625,0.125 1.875,-1.75 1.96875,0.0312 1.65625,0.5 1.8125,-1.6875 1.125,1.78125 1.625,-0.375 0.5625,1.78125 1.5625,-1.625 3.15625,0.4375 1.75,-1.40625 1.59375,1.46875 1.65625,0.1875 -0.59375,-1.65625 1.6875,0.84375 0.625,2.09375 2.25,-1 2.1875,1.1875 1.8125,0.53125 1.71875,1.15625 2.40625,0.0937 1.75,-1.0625 1.5,1.75 1.5625,-1.75 2.0625,-0.375 2.75,0.0937 0.40625,-2.65625 2.28125,-1.28125 0.34375,2.40625 0.65625,3 2.40625,-0.53125 2.125,-2.0625 2.03125,-0.40625 0.0625,1.6875 1.5,2.21875 3.46875,-1.1875 -1.46875,1.65625 1.625,1.3125 0,2.125 2.21875,2.1875 0.40625,2.375 1.875,0.90625 3.8125,1.25 0.125,1.65625 -1.0625,3.4375 0.125,1.71875 1.84375,1.53125 1.15625,-2.03125 0.0312,-1.6875 0.75,-2.46875 1.625,0.625 -0.15625,2.09375 0.15625,5.03125 -0.9375,2.09375 0.5625,1.75 2.40625,-0.21875 3.0625,0.21875 1.84375,1.71875 1.75,2.84375 1.9375,-0.125 2.3125,0.8125 2.34375,0.6875 1.78125,1.75 1.1875,1.875 0.40625,2 1.71875,2.09375 0.4375,1.78125 1.65625,1.125 2.09375,1.28125 2,0.4375 1.8125,2.15625 2.09375,1.5625 2,1.375 1.53125,2.4375 2.25,1.34375 2,1 1.65625,0.75 1.0625,1.96875 0.96875,1.84375 0.65625,1.625 -0.78125,2.3125 1.4375,1.71875 1.90625,1.90625 2.46875,2.03125 2.28125,1 1.1875,1.9375 0.5625,1.875 0.0937,2.78125 0.25,1.75 0.5625,1.6875 0.40625,2.03125 0.0625,2 0.0312,1.75 -0.28125,1.8125 1.09375,1.6875 0.21875,1.6875 1.96875,1.03125 1.90625,1.3125 0.15625,1.78125 1.5625,2.5625 0.21875,2.34375 2.125,1.0625 1.15625,1.78125 -0.28125,2.28125 0.28125,1.9375 1.65625,0.96875 0.6875,1.90625 0,1.625 -0.3125,2.75 1.25,3.40625 0.0625,0.0312 0,-828.59375 -42.4375,0 -10.75,0.0937 L 399.7501,1.5 z"
     id="Westfill" />
  <path
     style="fill:#ffffff;fill-rule:evenodd;stroke-width:1pt"
     d="m 227.4374,477 -6.75,21.5625 -148.75,-0.90625 119.7813,93.59375 -21.875,70.09375 0.6875,0.28125 1.5938,1.9375 0.3124,2.3125 0.5626,1.84375 0.7187,2.03125 0.031,1.75 -0.1876,1.96875 -0.5312,1.625 0.3438,1.78125 0.4062,2.25 -0.3438,1.8125 -1.0937,1.625 0.25,2.03125 0.6563,1.75 0.25,1.65625 0.4062,1.71875 0.031,1.75 1.0938,1.65625 -0.7188,1.8125 0.125,1.75 1.8438,2.125 1.0938,1.875 1.4374,2 1.4376,1.9375 -0.5,1.6875 1.625,1.46875 0.9062,1.9375 1.4062,1.71875 0.063,0.15625 82.125,-62.4375 86.2187,67.25 0.25,-0.0937 2.71875,0.0312 1.71875,-1.3125 1.8125,-0.15625 2.34375,-1.9375 0.71875,2 1.78125,-0.65625 1.84375,-1.125 -0.375,-1.90625 1.75,0.21875 2.46875,0.0625 1.96875,0.34375 1.90625,0.46875 1.875,0.84375 1.71875,-0.6875 0.0625,-0.125 -36,-120.15625 L 461.5311,500.1875 312.7499,499.15625 306.0936,477 l -78.6563,0 z"
     id="Whitestar" />
  <path
     style="fill:none;stroke:#002868;stroke-width:3;stroke-miterlimit:4;stroke-opacity:1;stroke-dasharray:none"
     d="m 399.75075,1.50045 -81.03125,0.0312 0.094,52.875 -0.125,18.46875 0.094,3.53125 -0.1875,70.4375 0.062,11.71875 -0.125,74.25 0.062,30.75 -1.875,107.8125 0.031,105.625 -192.5938,0.0312 -77.0625,-0.25 -43.5313,0.8125 -1.6562,1.90625 1.6875,1.28125 0.3437,1.65625 -0.7812,1.8125 1.0938,1.25 -1.9376,1.09375 -0.8124,1.78125 0.7187,1.9375 0.7813,1.9375 2.125,1.75 1.2187,1.84375 2.2187,1.15625 2.375,1.34375 0.6563,1.78125 1.625,2.15625 1.8125,1.34375 1.9062,-1.125 2.5626,0.25 2.0312,0.625 3.3125,2.375 0.5,1.65625 2,1.6875 1.3437,3.5 2.7188,4.375 0.5938,1.96875 0.7187,1.71875 0.6875,2.65625 3,2.15625 1.9375,4.3125 0.5313,2.25 1.625,1.8125 2.1562,0.78125 1.6562,1.875 2.1876,1.28125 2.0624,0.3125 2.9376,2.59375 6.2187,0.5625 4.5,2.90625 0.5313,2.6875 1.4062,2.8125 2.5,0.625 1.0938,1.78125 1.9062,0.125 1.6562,2.53125 1.25,1.8125 1.5626,1.875 2.125,2.9375 1.2812,2.0625 1.4688,1.96875 1.875,-0.0625 2.7812,2.9375 5.625,2.5 1.7188,1.5625 2.5312,2.53125 1.1562,1.84375 0.5,2.25 0.9376,2.21875 0.4687,1.84375 1.8125,1.34375 2,1.21875 1.5938,0.5625 1.375,2.65625 1.9062,1.75 1.7812,1.34375 1.6563,1.375 2.25,1.15625 0.4687,1.90625 -0.5937,1.75 1.9375,0.4375 1.75,0.5 2,1.3125 1.6875,0.59375 0.8125,1.75 1.7188,-1.3125 1.1874,1.75 1.6563,1.34375 1.9687,-0.875 1.7188,-0.34375 0.75,2.0625 1.8125,0.1875 0.8437,1.75 1.6563,0.125 0.5,1.625 1.9687,0.125 1.6563,0.71875 0.6563,1.8125 1.4062,1.75 1.6875,0.65625 0.7187,1.71875 1.6876,-0.15625 1.75,0.78125 1.6874,0.0625 1.375,2.40625 0.2188,1.625 0.3125,2.1875 1.8125,1.1875 1.7188,0.84375 1.625,0.4375 1.2187,1.71875 1.0625,2.125 0.7188,1.625 0.625,1.90625 0.75,1.875 0.4687,1.75 -0.2187,1.65625 -0.031,2.0625 0.8125,2.0625 0.3125,1.625 -0.031,1.625 0.3126,2.5 2.0312,1.3125 1.6875,0.65625 -1,1.71875 1.3125,1.8125 1.6875,1.21875 0.8125,1.6875 1.5938,0.5625 0.2812,2.03125 0.6562,2 2.3438,0.96875 1.5938,1.9375 0.3124,2.3125 0.5626,1.84375 0.7187,2.03125 0.031,1.75 -0.1876,1.96875 -0.5312,1.625 0.3438,1.78125 0.4062,2.25 -0.3438,1.8125 -1.0937,1.625 0.25,2.03125 0.6563,1.75 0.25,1.65625 0.4062,1.71875 0.031,1.75 1.0938,1.65625 -0.7188,1.8125 0.125,1.75 1.8438,2.125 1.0938,1.875 1.4374,2 1.4376,1.9375 -0.5,1.6875 1.625,1.46875 0.9062,1.9375 1.4062,1.71875 0.75,1.75 0.5626,1.90625 0.9374,1.75 0.3438,1.78125 0.125,1.84375 0,1.65625 1.625,1.34375 0.7812,1.625 0.8438,1.625 1.7188,0.65625 1.6874,1.25 1.4376,1.65625 5.125,4.625 1.0937,1.71875 1.6875,0.78125 2.7812,1.40625 1.6876,-0.0625 1.7187,0.40625 2.7813,1.34375 2.0624,0.96875 0.5626,2 1.9062,-0.21875 -0.2812,1.65625 0.1874,1.71875 2.5626,2.34375 0.6562,1.71875 1.5,1.71875 1.6562,1.1875 1.7813,1.28125 1.75,0.9375 1.9375,1.75 1.6875,1.25 1.6875,1.4375 1.875,0.8125 2.1562,0.875 2.375,0.5625 1.8438,0.34375 2.1875,1.09375 1.7187,-0.28125 1.6876,0.25 2.2812,0.375 1.6562,0.9375 1.9376,-0.125 1.25,1.625 1.8437,0.6875 -0.1875,1.6875 0.3125,1.65625 1.9375,-0.5 1.0938,1.6875 1.2187,1.71875 1.875,0.96875 1.6563,0.53125 1.7187,0.53125 1.5,1.65625 1.625,-0.0625 1.9063,-0.71875 1.75,1.625 2.3437,-0.4375 1.8437,0.96875 1.75,0.84375 1.0626,1.65625 1.7812,1.75 2,2.0625 -0.125,1.96875 1.8125,-0.25 1.5,1.78125 1.5937,1.5 1.8126,0.5625 1.7812,0.9375 1.875,0.0937 0.5,-1.84375 1.8125,0.8125 0.062,1.71875 1.75,-0.6875 -0.1875,2.0625 1.9063,0.21875 0.6874,2.5625 1.0626,-2.03125 2.75,1.21875 1.875,-0.3125 2.0312,0.375 2.4375,1.25 1.7187,-0.5625 2.4376,-0.71875 -0.031,-1.6875 1.6875,-2.75 -0.625,-1.90625 1.7188,-1.65625 0.75,-1.6875 1.125,-1.625 2.2187,-0.59375 0.3125,-1.8125 1.8438,-1.71875 0.5937,-1.90625 1.0625,-1.625 1.3125,-2.3125 2.0937,0.71875 1.6563,-0.96875 1.7187,-1.15625 1.7188,-1.09375 1.8125,-0.4375 0.9063,-1.78125 -1.6876,-1.625 -1.6562,-1.5 0.3125,-1.6875 1.3125,-1.84375 -0.4375,-1.625 0.7187,-1.8125 1.0626,-2.78125 2.4062,-1.3125 1.0938,-2.46875 1.7187,-1.5 -1.1875,-1.625 -0.3438,-1.75 0.625,-1.90625 0.6563,-1.9375 1.375,-1.65625 -0.5937,-1.84375 0.9062,-2.71875 1.6562,-1.5 0.063,-1.84375 1.375,-1.96875 -0.2813,-1.90625 1.6563,0.53125 0.68745,-1.6875 -0.28125,-2.59375 1.6875,-1.90625 1.25,-1.65625 0.78125,-2.03125 0.84375,-2.21875 0.71875,-2.21875 1.90625,-0.78125 2.71875,0.0312 1.71875,-1.3125 1.8125,-0.15625 2.34375,-1.9375 0.71875,2 1.78125,-0.65625 1.84375,-1.125 -0.375,-1.90625 1.75,0.21875 2.46875,0.0625 1.96875,0.34375 1.90625,0.46875 1.875,0.84375 1.71875,-0.6875 0.6875,-1.9375 0.34375,-1.875 0.96875,-2.9375 1.0625,-2.28125 1.625,-0.59375 1.71875,-1.53125 2.5625,1.375 1.625,-0.34375 1.625,0.34375 1.28125,1.6875 2.21875,0.53125 2.125,-0.28125 0.21875,2.0625 2.15625,1.5 1.75,1.125 1.75,0.96875 1.84375,0.125 1.90625,0.5 2.0625,0.125 1.875,-1.75 1.96875,0.0312 1.65625,0.5 1.8125,-1.6875 1.125,1.78125 1.625,-0.375 0.5625,1.78125 1.5625,-1.625 3.15625,0.4375 1.75,-1.40625 1.59375,1.46875 1.65625,0.1875 -0.59375,-1.65625 1.6875,0.84375 0.625,2.09375 2.25,-1 2.1875,1.1875 1.8125,0.53125 1.71875,1.15625 2.40625,0.0937 1.75,-1.0625 1.5,1.75 1.5625,-1.75 2.0625,-0.375 2.75,0.0937 0.40625,-2.65625 2.28125,-1.28125 0.34375,2.40625 0.65625,3 2.40625,-0.53125 2.125,-2.0625 2.03125,-0.40625 0.0625,1.6875 1.5,2.21875 3.46875,-1.1875 -1.46875,1.65625 1.625,1.3125 0,2.125 2.21875,2.1875 0.40625,2.375 1.875,0.90625 3.8125,1.25 0.125,1.65625 -1.0625,3.4375 0.125,1.71875 1.84375,1.53125 1.15625,-2.03125 0.0312,-1.6875 0.75,-2.46875 1.625,0.625 -0.15625,2.09375 0.15625,5.03125 -0.9375,2.09375 0.5625,1.75 2.40625,-0.21875 3.0625,0.21875 1.84375,1.71875 1.75,2.84375 1.9375,-0.125 2.3125,0.8125 2.34375,0.6875 1.78125,1.75 1.1875,1.875 0.40625,2 1.71875,2.09375 0.4375,1.78125 1.65625,1.125 2.09375,1.28125 2,0.4375 1.8125,2.15625 2.09375,1.5625 2,1.375 1.53125,2.4375 2.25,1.34375 2,1 1.65625,0.75 1.0625,1.96875 0.96875,1.84375 0.65625,1.625 -0.78125,2.3125 1.4375,1.71875 1.90625,1.90625 2.46875,2.03125 2.28125,1 1.1875,1.9375 0.5625,1.875 0.0937,2.78125 0.25,1.75 0.5625,1.6875 0.40625,2.03125 0.0625,2 0.0312,1.75 -0.28125,1.8125 1.09375,1.6875 0.21875,1.6875 1.96875,1.03125 1.90625,1.3125 0.15625,1.78125 1.5625,2.5625 0.21875,2.34375 2.125,1.0625 1.15625,1.78125 -0.28125,2.28125 0.28125,1.9375 1.65625,0.96875 0.6875,1.90625 0,1.625 -0.3125,2.75 1.25,3.40625 0.0625,0.0312 0,-828.59375 -42.4375,0 -10.75,0.0937 L 399.7501,1.5 z"
     id="WestBorder" />
</svg>
