<?xml version="1.0" encoding="UTF-8" standalone="no"?>
<!-- Created with Inkscape (http://www.inkscape.org/) -->

<svg
   xmlns:dc="http://purl.org/dc/elements/1.1/"
   xmlns:cc="http://creativecommons.org/ns#"
   xmlns:rdf="http://www.w3.org/1999/02/22-rdf-syntax-ns#"
   xmlns:svg="http://www.w3.org/2000/svg"
   xmlns="http://www.w3.org/2000/svg"
   xmlns:sodipodi="http://sodipodi.sourceforge.net/DTD/sodipodi-0.dtd"
   xmlns:inkscape="http://www.inkscape.org/namespaces/inkscape"
   width="100%"
   height="100%"
   id="svg4888"
   version="1.1"
   inkscape:version="0.92.3 (2405546, 2018-03-11)"
   sodipodi:docname="Texas.svg"
   viewBox="0 0 682 635">
  <title
     id="title3012">Flag of the state of Texas</title>
  <defs
     id="defs4890">
    <clipPath
       clipPathUnits="userSpaceOnUse"
       id="clipPath5481">
      <path
         id="path5483"
         style="fill:#ffffff;stroke:#ffffff;stroke-width:0.5;stroke-miterlimit:4;stroke-opacity:1;stroke-dasharray:none"
         d="m 418.47998,1235.3608 -4.59695,8.2958 -3.6758,10.1387 -0.92116,12.9054 0.92116,17.5116 3.6758,13.8269 4.59695,8.2946 2.76049,7.3744 0.92117,1.8441 0,-5.5311 -3.68171,-9.2161 -3.6758,-10.1399 -2.75753,-14.7484 0,-10.1387 1.83637,-12.9043 3.67875,-9.2172 1.83943,-4.6085 1.83932,-2.7647 0,-0.9226 -0.9211,-0.9215 z m 15.61848,-25.8103 -6.43634,10.1387 -4.59697,5.5314 -1.83938,4.6085 0.92115,0 2.7576,-1.8442 6.43628,-10.1387 2.75766,-3.6858 2.75758,-3.6874 0,-1.8441 -1.83943,0 -0.91815,0.9215 z m 29.43592,-26.7286 -6.43634,2.7656 -7.3575,5.5302 -6.43634,7.3741 -2.75759,4.6087 0,0.9215 3.6758,-2.7656 3.67875,-4.6087 5.51813,-6.4526 4.59696,-3.6862 4.59697,-1.8429 1.83937,-2.7655 z M 143.55373,952.38022 c 4.90343,-79.57642 9.80685,-159.1528 14.71028,-238.72921 17.77573,0.61411 35.55143,1.22822 53.32718,1.84233 27.89079,0.30803 55.78158,0.61608 83.67243,0.92411 0,37.48333 0,74.96663 0,112.44998 1.22527,0.61508 2.45054,1.23019 3.67581,1.84528 1.83937,0.30705 3.67875,0.6141 5.51812,0.92116 1.22622,1.8433 2.45248,3.68663 3.67876,5.52994 0.61211,0.61411 1.22427,1.22822 1.83642,1.84234 1.22622,-1.22823 2.45249,-2.45645 3.67875,-3.68467 1.22623,0 2.4525,0 3.67876,0 2.14543,2.45743 4.29086,4.91486 6.43634,7.37227 0.61311,0.92214 1.22622,1.8443 1.83938,2.76644 0.6131,1.53528 1.22621,3.07056 1.83937,4.60583 0.91917,1.53725 1.83837,3.07447 2.7576,4.61173 0.91916,0 1.83836,0 2.75758,0 1.83938,-0.6151 3.67876,-1.2302 5.51813,-1.84529 2.14544,0.61509 4.29086,1.23019 6.43634,1.84529 3.06465,0 6.12929,0 9.19393,0 1.22622,0.92116 2.45249,1.84231 3.67875,2.76348 0,0.30706 0,0.61412 0,0.92117 0.6131,0.92214 1.22622,1.8443 1.83938,2.76645 2.45148,0 4.90301,0 7.35456,0 2.45148,-0.61509 4.90301,-1.2302 7.35454,-1.84529 0.61311,0 1.22623,0 1.83939,0 0.91915,1.2292 1.83837,2.45841 2.75758,3.68761 1.22621,1.53625 2.45248,3.07252 3.67876,4.60878 2.14542,0.30705 4.29085,0.6141 6.43634,0.92116 2.45247,-0.61411 4.90496,-1.22822 7.3575,-1.84233 1.22527,0.61411 2.45054,1.22822 3.6758,1.84233 0.61311,0.92215 1.22622,1.8443 1.83938,2.76644 2.14542,-0.30705 4.29085,-0.6141 6.43634,-0.92115 1.22621,1.84329 2.45248,3.68662 3.67875,5.52993 0.6121,0.92215 1.22426,1.8443 1.83643,2.76645 1.22621,0 2.45248,0 3.67875,0 0.61309,-0.61508 1.22621,-1.2302 1.83937,-1.84528 1.22622,-1.53626 2.45248,-3.07252 3.67875,-4.60878 0.91917,-1.22919 1.83838,-2.45841 2.75759,-3.68761 1.22623,0.61508 2.45248,1.2302 3.67875,1.84529 1.22528,0.6141 2.45054,1.22822 3.67581,1.84232 0.92015,-1.84331 1.84032,-3.68663 2.76053,-5.52994 1.83838,-0.61411 3.67676,-1.22822 5.51519,-1.84233 1.53232,0 3.06464,0 4.59696,0 1.53232,0.92116 3.06465,1.84233 4.59697,2.7635 1.22621,2.45841 2.45247,4.9168 3.67875,7.37521 1.53232,1.2292 3.06464,2.45842 4.59696,3.68762 2.75854,-0.61508 5.51713,-1.2302 8.27572,-1.84528 0.91916,0 1.83837,0 2.75758,0 1.53232,-0.92117 3.06464,-1.84234 4.59698,-2.7635 0.92015,-0.92215 1.84031,-1.84431 2.76052,-2.76645 2.14443,-1.8433 4.28891,-3.68663 6.4334,-5.52994 3.67875,-0.92214 7.3575,-1.8443 11.03625,-2.76644 3.06465,0.61508 6.12929,1.23019 9.19393,1.84528 2.14543,-0.30705 4.29086,-0.61411 6.43634,-0.92116 3.37171,0.92116 6.7434,1.84232 10.1151,2.76349 3.06465,0.92215 6.12928,1.84431 9.19392,2.76645 4.90402,1.8433 9.80805,3.68662 14.71206,5.52993 3.67776,1.53625 7.3555,3.07254 11.03331,4.60878 1.53232,0 3.06464,0 4.59696,0 2.45148,0.61411 4.90302,1.22822 7.35456,1.84233 1.83937,-0.30705 3.67875,-0.61411 5.51813,-0.92116 1.53232,37.79136 3.06464,75.58272 4.59696,113.37408 1.83838,1.84331 3.67675,3.68664 5.51518,5.52997 1.83937,1.53624 3.67875,3.07244 5.51812,4.60874 1.22528,1.5362 2.45054,3.0725 3.67582,4.6088 0.6131,2.1503 1.2262,4.3007 1.83937,6.4511 -1.22528,1.2292 -2.45059,2.4584 -3.6758,3.6876 0.61209,1.2292 1.22427,2.4584 1.83643,3.6876 1.2272,1.5353 2.45442,3.0706 3.68165,4.6059 0,2.1513 0,4.3026 0,6.454 -1.22723,3.6867 -2.45445,7.3735 -3.68165,11.0602 -0.91923,1.8434 -1.83843,3.6868 -2.75759,5.5302 0,2.7652 0,5.5303 0,8.2955 1.22621,2.1509 2.45248,4.3019 3.67876,6.4528 -0.61317,2.4577 -1.22628,4.9153 -1.83944,7.3729 -0.30606,1.8439 -0.61211,3.6877 -0.91816,5.5315 0,2.4575 0,4.9152 0,7.3728 0.6121,1.8438 1.22427,3.6876 1.83636,5.5314 -1.22526,2.458 -2.45053,4.916 -3.67579,7.3741 -4.29086,0 -8.58176,0 -12.87263,0 -8.58182,4.301 -17.1636,8.602 -25.74537,12.903 -2.14547,2.4582 -4.29091,4.9163 -6.43634,7.3744 -0.61316,0 -1.22627,0 -1.83943,0 -0.6121,-1.5362 -1.22426,-3.0723 -1.83636,-4.6085 2.75759,-1.8434 5.51511,-3.6868 8.27277,-5.5302 0,-1.5366 0,-3.0732 0,-4.6097 -2.45155,0.6147 -4.90308,1.2294 -7.35456,1.8441 -1.53233,0 -3.06465,0 -4.59696,0 0,-2.7649 0,-5.5297 0,-8.2946 -1.22628,-0.6147 -2.45255,-1.2294 -3.67875,-1.8441 -3.67781,0.6147 -7.35557,1.2294 -11.03331,1.8441 -2.14548,1.843 -4.29092,3.686 -6.43634,5.5291 1.22621,2.7651 2.45247,5.5303 3.67875,8.2955 2.14442,0.9219 4.28889,1.8438 6.43339,2.7658 1.22721,1.229 2.45443,2.458 3.6817,3.687 -0.30705,1.5361 -0.61411,3.0724 -0.92116,4.6085 -3.37171,3.9939 -6.7434,7.9878 -10.1151,11.9817 -1.22526,5.2236 -2.45053,10.4473 -3.6758,15.671 -3.06463,2.7652 -6.12928,5.5305 -9.19392,8.2958 -5.21014,3.3791 -10.42021,6.7583 -15.63027,10.1374 -5.82425,3.3801 -11.64843,6.76 -17.4726,10.14 3.67774,-4.3014 7.3555,-8.6029 11.0333,-12.9043 -0.61317,-1.8438 -1.22627,-3.6876 -1.83937,-5.5314 -4.59697,0.9219 -9.19393,1.8439 -13.7909,2.7659 -1.83843,0 -3.67681,0 -5.51518,0 -1.53239,-1.2288 -3.06465,-2.4575 -4.59696,-3.6862 0.9182,-1.5361 1.83642,-3.0723 2.75463,-4.6085 -1.22527,1.229 -2.45053,2.458 -3.67587,3.6871 -3.98479,0.6138 -7.9696,1.2278 -11.9544,1.8417 -1.53232,-1.8429 -3.06465,-3.6858 -4.59697,-5.5288 -1.83843,0.9219 -3.6768,1.8437 -5.51516,2.7656 0,0.9211 0,1.8421 0,2.7632 3.06464,2.1509 6.12929,4.3019 9.19392,6.4529 1.53232,0 3.06464,0 4.59697,0 0,2.1508 0,4.3017 0,6.4526 -3.06466,3.687 -6.12929,7.3742 -9.194,11.0613 -0.91915,0.6143 -1.83837,1.2286 -2.75753,1.8429 -0.92021,-0.9218 -1.84038,-1.8437 -2.76053,-2.7655 0,-0.6144 0,-1.2287 0,-1.8429 -1.53233,0.6142 -3.06465,1.2285 -4.59697,1.8429 0.30706,2.7652 0.6141,5.5305 0.92116,8.2958 0.61312,0.3071 1.22623,0.6143 1.83939,0.9214 -2.75859,3.6871 -5.51719,7.3742 -8.27573,11.0614 -1.83936,0 -3.67875,0 -5.51812,0 0,-3.9943 0,-7.9886 0,-11.9828 -0.61316,0.6143 -1.22627,1.2285 -1.83939,1.8429 0,2.1508 0,4.3017 0,6.4526 -3.98386,0.6144 -7.9677,1.2288 -11.95151,1.8432 0.91916,1.5361 1.83837,3.0723 2.75753,4.6084 2.75859,0 5.51719,0 8.27578,0 -0.61317,3.38 -1.22626,6.76 -1.83939,10.1399 -5.21012,0 -10.42019,0 -15.63026,0 -1.83938,0.3068 -3.67876,0.6136 -5.5182,0.9203 0.61317,0.9218 1.22628,1.8437 1.83944,2.7656 2.45249,0.3071 4.90497,0.6143 7.35751,0.9215 0.91916,1.8438 1.83837,3.6876 2.75753,5.5314 0.30611,3.0723 0.61217,6.1446 0.9182,9.2169 -1.83836,1.2291 -3.67673,2.4582 -5.51511,3.6873 -3.37176,0.3076 -6.74345,0.6151 -10.11515,0.9227 0,1.5361 0,3.0723 0,4.6084 1.22627,0.3072 2.45254,0.6143 3.67875,0.9215 0.61317,3.9939 1.22628,7.9878 1.83938,11.9816 1.22627,7.681 2.45254,15.362 3.67875,23.043 3.67681,10.1388 7.35361,20.2775 11.03041,30.4162 -0.61316,0.9219 -1.22627,1.8437 -1.83944,2.7656 -0.61209,0 -1.22426,0 -1.83642,0 0.61216,0.3071 1.22433,0.6143 1.83642,0.9215 1.22628,1.2289 2.45256,2.4579 3.67875,3.687 1.22628,2.1509 2.45257,4.3019 3.67876,6.4529 0,0.9218 0,1.8437 0,2.7656 -5.21007,-1.8438 -10.42013,-3.6875 -15.63021,-5.5311 -5.51718,-2.1506 -11.0343,-4.3012 -16.55149,-6.4517 -3.37069,-1.2291 -6.74138,-2.4581 -10.11214,-3.6871 -2.75853,-0.3075 -5.51713,-0.6151 -8.27573,-0.9226 -2.45147,-0.6143 -4.90301,-1.2287 -7.35449,-1.843 -3.06563,-2.1505 -6.13129,-4.3011 -9.19694,-6.4517 -1.83937,-2.151 -3.67875,-4.3019 -5.51812,-6.4529 -2.75759,-0.9214 -5.51518,-1.8429 -8.27277,-2.7643 -3.67775,-2.7657 -7.3555,-5.5314 -11.0333,-8.297 -3.06559,-3.0723 -6.13124,-6.1446 -9.19689,-9.217 -1.53232,-3.9939 -3.06464,-7.9878 -4.59696,-11.9816 -2.45148,-7.0667 -4.90302,-14.1334 -7.35455,-21.2001 -2.14542,-2.7652 -4.29086,-5.5305 -6.43634,-8.2958 -3.3717,-3.3799 -6.74334,-6.7597 -10.11509,-10.1396 -2.45148,-4.6083 -4.90302,-9.2166 -7.35456,-13.8249 -1.83938,-6.7598 -3.67876,-13.5196 -5.51813,-20.2795 -2.45147,-3.0719 -4.90301,-6.144 -7.35455,-9.216 -3.37171,-5.5304 -6.74341,-11.0609 -10.1151,-16.5913 -3.06465,-6.1448 -6.12929,-12.2896 -9.19393,-18.4345 -0.91915,-4.9158 -1.83837,-9.8315 -2.75759,-14.7472 -2.14542,-3.0728 -4.29085,-6.1456 -6.43634,-9.2184 -3.67816,-3.6871 -7.35632,-7.3743 -11.03448,-11.0613 -2.45189,-1.5362 -4.90378,-3.0724 -7.35573,-4.6085 -3.37146,-0.9219 -6.74299,-1.8438 -10.11451,-2.7656 -1.22591,-1.843 -2.45189,-3.6861 -3.67786,-5.529 -4.29068,-1.5362 -8.58136,-3.0724 -12.87207,-4.6085 -7.96845,0 -15.93694,0 -23.9054,0 -4.29108,-0.9219 -8.58218,-1.8438 -12.87326,-2.7656 -2.75826,0 -5.51657,0 -8.27483,0 -1.22595,0.9218 -2.45192,1.8437 -3.67787,2.7656 -2.45192,6.1447 -4.90381,12.2894 -7.35575,18.4342 -0.30645,0.9215 -0.61292,1.8431 -0.91938,2.7647 -3.06465,4.9161 -6.12929,9.8322 -9.19393,14.7483 -2.45192,2.4577 -4.90381,4.9153 -7.35573,7.3729 -0.9196,0.3072 -1.83917,0.6145 -2.75877,0.9218 -4.59747,-2.765 -9.1949,-5.5298 -13.79237,-8.2947 -2.451921,-1.5362 -4.903821,-3.0725 -7.355731,-4.6087 -1.83879,0 -3.67758,0 -5.51636,0 -4.90381,-1.2291 -9.80765,-2.4581 -14.71146,-3.6871 -7.04898,-1.5361 -14.09795,-3.0723 -21.14693,-4.6084 -11.034276,-5.223 -22.068586,-10.446 -33.102867,-15.669 -2.757883,-2.7655 -5.515767,-5.5311 -8.27365,-8.2967 -2.145545,-6.1444 -4.291091,-12.2889 -6.436636,-18.4333 -2.758684,-3.0727 -5.517335,-6.1455 -8.276012,-9.2181 -1.838786,-2.7653 -3.677572,-5.5305 -5.516358,-8.2958 -1.225948,-6.452 -2.451924,-12.904 -3.677866,-19.356 -3.064736,-4.3015 -6.129496,-8.6031 -9.194226,-12.9046 -2.758686,-1.5362 -5.517332,-3.0725 -8.276014,-4.6087 -2.758266,-4.9159 -5.516569,-9.8317 -8.274828,-14.7475 -3.064737,-2.7655 -6.129498,-5.53096 -9.194228,-8.29641 -1.225945,-3.07255 -2.451926,-6.14505 -3.677863,-9.21758 -3.371496,-3.68663 -6.743016,-7.37324 -10.114503,-11.05987 -0.919188,-2.76548 -1.838352,-5.53092 -2.757531,-8.29639 0.306018,-5.22289 0.612011,-10.44577 0.918037,-15.66866 68.960371,0 137.920745,0 206.881116,0 2.9e-4,0 -0.44476,1.42919 -0.44476,1.42919 z"
         inkscape:connector-curvature="0"
         sodipodi:nodetypes="cccccccccccccccccccccccccccccccccccccccccccccccccccccccccccccccccccccccccccccccccccccccccccccccccccccccccccccccccccccccccccccccccccccccccccccccccccccccccccccccccccccccccccccccccccccccccccccccccccccccccccccccccccccccccccccccccccccccccccccccccccccccccccscc" />
    </clipPath>
  </defs>
  <sodipodi:namedview
     id="base"
     pagecolor="#ffffff"
     bordercolor="#ffffff"
     borderopacity="1.0"
     inkscape:pageopacity="0.0"
     inkscape:pageshadow="2"
     inkscape:zoom="0.55425019"
     inkscape:cx="-244.25535"
     inkscape:cy="177.95983"
     inkscape:current-layer="layer1"
     inkscape:document-units="m"
     showgrid="false"
     inkscape:window-width="1855"
     inkscape:window-height="1056"
     inkscape:window-x="65"
     inkscape:window-y="24"
     inkscape:window-maximized="1"
     fit-margin-top="10"
     fit-margin-left="10"
     fit-margin-right="10"
     fit-margin-bottom="10" />
  <metadata
     id="metadata4893">
    <rdf:RDF>
      <cc:Work
         rdf:about="">
        <dc:format>image/svg+xml</dc:format>
        <dc:type
           rdf:resource="http://purl.org/dc/dcmitype/StillImage" />
        <dc:title>Flag of the state of Texas</dc:title>
        <cc:license
           rdf:resource="http://creativecommons.org/licenses/publicdomain/" />
        <dc:contributor>
          <cc:Agent>
            <dc:title>Anonymous - Flag-of-the-state-of-Texas
Pixabay - texas-43792 </dc:title>
          </cc:Agent>
        </dc:contributor>
        <dc:publisher>
          <cc:Agent>
            <dc:title>portaloha.com/creative-dept</dc:title>
          </cc:Agent>
        </dc:publisher>
        <dc:creator>
          <cc:Agent>
            <dc:title>Aukipa</dc:title>
          </cc:Agent>
        </dc:creator>
        <dc:subject>
          <rdf:Bag>
            <rdf:li>flag</rdf:li>
            <rdf:li>north america</rdf:li>
            <rdf:li>state</rdf:li>
            <rdf:li>texas</rdf:li>
            <rdf:li>usa</rdf:li>
          </rdf:Bag>
        </dc:subject>
      </cc:Work>
      <cc:License
         rdf:about="http://creativecommons.org/licenses/publicdomain/">
        <cc:permits
           rdf:resource="http://creativecommons.org/ns#Reproduction" />
        <cc:permits
           rdf:resource="http://creativecommons.org/ns#Distribution" />
        <cc:permits
           rdf:resource="http://creativecommons.org/ns#DerivativeWorks" />
      </cc:License>
    </rdf:RDF>
  </metadata>
  <g
     id="layer1"
     inkscape:label="Layer 1"
     inkscape:groupmode="layer"
     transform="translate(21.71875,20.9375)">
    <g
       id="g4837"
       clip-path="url(#clipPath5481)"
       transform="translate(53.043611,-724.05997)" />
    <g
       id="g4846"
       transform="matrix(1.25,0,0,-1.25,23.460639,613.65333)"
       inkscape:label="#g4147"
       style="fill:#ffffff">
      <g
         id="g4848"
         transform="scale(0.24,0.24)"
         style="fill:#ffffff;stroke:#231f20;stroke-width:4.16669989" />
    </g>
    <path
       id="path4856"
       style="fill:#ffffff;stroke:#ffffff;stroke-width:1;stroke-miterlimit:4;stroke-opacity:1;stroke-dasharray:none"
       d="m 471.52359,511.3008 -4.59695,8.2958 -3.6758,10.13871 -0.92116,12.90544 0.92116,17.51158 3.6758,13.82692 4.59695,8.29461 2.76049,7.37434 0.92117,1.8441 0,-5.53112 -3.68171,-9.21608 -3.6758,-10.13988 -2.75753,-14.74838 0,-10.13872 1.83637,-12.90426 3.67875,-9.21726 1.83943,-4.60848 1.83932,-2.76467 0,-0.92265 -0.9211,-0.92145 z m 15.61848,-25.81031 -6.43634,10.1387 -4.59697,5.53142 -1.83938,4.60848 0.92115,0 2.7576,-1.84416 6.43628,-10.13871 2.75766,-3.68579 2.75758,-3.68737 0,-1.8441 -1.83943,0 -0.91815,0.92146 z m 29.43592,-26.72855 -6.43634,2.76558 -7.3575,5.53022 -6.43634,7.37404 -2.75759,4.60877 0,0.92147 3.6758,-2.76557 3.67875,-4.60876 5.51813,-6.45258 4.59696,-3.68614 4.59697,-1.84291 1.83937,-2.76557 z M 196.59734,228.32025 c 4.90343,-79.57642 9.80685,-159.152796 14.71028,-238.72921 17.77573,0.6141085 35.55143,1.2282185 53.32718,1.8423285 27.89079,0.308029 55.78158,0.616087 83.67243,0.924117 0,37.4833285 0,74.9666285 0,112.4499745 1.22527,0.61508 2.45054,1.23019 3.67581,1.84528 1.83937,0.30705 3.67875,0.6141 5.51812,0.92116 1.22622,1.8433 2.45248,3.68663 3.67876,5.52994 0.61211,0.61411 1.22427,1.22822 1.83642,1.84234 1.22622,-1.22823 2.45249,-2.45645 3.67875,-3.68467 1.22623,0 2.4525,0 3.67876,0 2.14543,2.45743 4.29086,4.91486 6.43634,7.37227 0.61311,0.92214 1.22622,1.8443 1.83938,2.76644 0.6131,1.53528 1.22621,3.07056 1.83937,4.60583 0.91917,1.53725 1.83837,3.07447 2.7576,4.61173 0.91916,0 1.83836,0 2.75758,0 1.83938,-0.6151 3.67876,-1.2302 5.51813,-1.84529 2.14544,0.61509 4.29086,1.23019 6.43634,1.84529 3.06465,0 6.12929,0 9.19393,0 1.22622,0.92116 2.45249,1.84231 3.67875,2.76348 0,0.30706 0,0.61412 0,0.92117 0.6131,0.92214 1.22622,1.8443 1.83938,2.76645 2.45148,0 4.90301,0 7.35456,0 2.45148,-0.61509 4.90301,-1.2302 7.35454,-1.84529 0.61311,0 1.22623,0 1.83939,0 0.91915,1.2292 1.83837,2.45841 2.75758,3.68761 1.22621,1.53625 2.45248,3.07252 3.67876,4.60878 2.14542,0.30705 4.29085,0.6141 6.43634,0.92116 2.45247,-0.61411 4.90496,-1.22822 7.3575,-1.84233 1.22527,0.61411 2.45054,1.22822 3.6758,1.84233 0.61311,0.92215 1.22622,1.8443 1.83938,2.76644 2.14542,-0.30705 4.29085,-0.6141 6.43634,-0.92115 1.22621,1.84329 2.45248,3.68662 3.67875,5.52993 0.6121,0.92215 1.22426,1.8443 1.83643,2.76645 1.22621,0 2.45248,0 3.67875,0 0.61309,-0.61508 1.22621,-1.2302 1.83937,-1.84528 1.22622,-1.53626 2.45248,-3.07252 3.67875,-4.60878 0.91917,-1.22919 1.83838,-2.45841 2.75759,-3.68761 1.22623,0.61508 2.45248,1.2302 3.67875,1.84529 1.22528,0.6141 2.45054,1.22822 3.67581,1.84232 0.92015,-1.84331 1.84032,-3.68663 2.76053,-5.52994 1.83838,-0.61411 3.67676,-1.22822 5.51519,-1.84233 1.53232,0 3.06464,0 4.59696,0 1.53232,0.92116 3.06465,1.84233 4.59697,2.7635 1.22621,2.45841 2.45247,4.9168 3.67875,7.37521 1.53232,1.2292 3.06464,2.45842 4.59696,3.68762 2.75854,-0.61508 5.51713,-1.2302 8.27572,-1.84528 0.91916,0 1.83837,0 2.75758,0 1.53232,-0.92117 3.06464,-1.84234 4.59698,-2.7635 0.92015,-0.92215 1.84031,-1.84431 2.76052,-2.76645 2.14443,-1.8433 4.28891,-3.68663 6.4334,-5.52994 3.67875,-0.92214 7.3575,-1.8443 11.03625,-2.76644 3.06465,0.61508 6.12929,1.23019 9.19393,1.84528 2.14543,-0.30705 4.29086,-0.61411 6.43634,-0.92116 3.37171,0.92116 6.7434,1.84232 10.1151,2.76349 3.06465,0.92215 6.12928,1.84431 9.19392,2.76645 4.90402,1.8433 9.80805,3.68662 14.71206,5.52993 3.67776,1.53625 7.3555,3.07254 11.03331,4.60878 1.53232,0 3.06464,0 4.59696,0 2.45148,0.61411 4.90302,1.22822 7.35456,1.84233 1.83937,-0.30705 3.67875,-0.61411 5.51813,-0.92116 1.53232,37.79136 3.06464,75.58272 4.59696,113.37408 1.83838,1.84331 3.67675,3.68664 5.51518,5.52997 1.83937,1.53623 3.67875,3.07249 5.51812,4.60877 1.22528,1.53622 2.45054,3.0725 3.67582,4.60878 0.6131,2.15033 1.2262,4.30071 1.83937,6.4511 -1.22528,1.22917 -2.45059,2.45839 -3.6758,3.68761 0.61209,1.22917 1.22427,2.45839 1.83643,3.68761 1.2272,1.53527 2.45442,3.07055 3.68165,4.60582 0,2.15133 0,4.30268 0,6.45405 -1.22723,3.68673 -2.45445,7.37345 -3.68165,11.06018 -0.91923,1.84339 -1.83843,3.68678 -2.75759,5.53024 0,2.76515 0,5.53029 0,8.29549 1.22621,2.15092 2.45248,4.3019 3.67876,6.45282 -0.61317,2.45768 -1.22628,4.91529 -1.83944,7.37291 -0.30606,1.84381 -0.61211,3.68762 -0.91816,5.53142 0,2.45757 0,4.91519 0,7.37286 0.6121,1.84374 1.22427,3.68755 1.83636,5.53136 -1.22526,2.45802 -2.45053,4.91606 -3.67579,7.37408 -4.29086,0 -8.58176,0 -12.87263,0 -8.58182,4.30102 -17.1636,8.60203 -25.74537,12.90305 -2.14547,2.45815 -4.29091,4.91624 -6.43634,7.37439 -0.61316,0 -1.22627,0 -1.83943,0 -0.6121,-1.53616 -1.22426,-3.07231 -1.83636,-4.60848 2.75759,-1.84345 5.51511,-3.68684 8.27277,-5.53024 0,-1.53657 0,-3.07314 0,-4.60965 -2.45155,0.6147 -4.90308,1.22934 -7.35456,1.8441 -1.53233,0 -3.06465,0 -4.59696,0 0,-2.76491 0,-5.52977 0,-8.29462 -1.22628,-0.61475 -2.45255,-1.22939 -3.67875,-1.84409 -3.67781,0.6147 -7.35557,1.22934 -11.03331,1.84409 -2.14548,1.84298 -4.29092,3.68602 -6.43634,5.52906 1.22621,2.76514 2.45247,5.53029 3.67875,8.2955 2.14442,0.92193 4.28889,1.84386 6.43339,2.76585 1.22721,1.22899 2.45443,2.45798 3.6817,3.68702 -0.30705,1.5361 -0.61411,3.07232 -0.92116,4.60842 -3.37171,3.9939 -6.7434,7.9878 -10.1151,11.9817 -1.22526,5.22365 -2.45053,10.44729 -3.6758,15.671 -3.06463,2.76527 -6.12928,5.53053 -9.19392,8.2958 -5.21014,3.37914 -10.42021,6.75834 -15.63027,10.13747 -5.82425,3.38002 -11.64843,6.75998 -17.4726,10.13996 3.67774,-4.30143 7.3555,-8.60285 11.0333,-12.90427 -0.61317,-1.84381 -1.22627,-3.68767 -1.83937,-5.53142 -4.59697,0.92194 -9.19393,1.84386 -13.7909,2.76585 -1.83843,0 -3.67681,0 -5.51518,0 -1.53239,-1.22874 -3.06465,-2.45744 -4.59696,-3.68613 0.9182,-1.53616 1.83642,-3.07232 2.75463,-4.60848 -1.22527,1.22899 -2.45053,2.45798 -3.67587,3.68702 -3.98479,0.61387 -7.9696,1.22781 -11.9544,1.84174 -1.53232,-1.84292 -3.06465,-3.68584 -4.59697,-5.52876 -1.83843,0.92181 -3.6768,1.84369 -5.51516,2.76556 0,0.92105 0,1.84209 0,2.7632 3.06464,2.15092 6.12929,4.3019 9.19392,6.45286 1.53232,0 3.06464,0 4.59697,0 0,2.15088 0,4.30173 0,6.4526 -3.06466,3.68706 -6.12929,7.3742 -9.194,11.06134 -0.91915,0.6143 -1.83837,1.22857 -2.75753,1.84292 -0.92021,-0.92187 -1.84038,-1.84374 -2.76053,-2.76554 0,-0.61435 0,-1.22865 0,-1.84293 -1.53233,0.61428 -3.06465,1.22858 -4.59697,1.84293 0.30706,2.76525 0.6141,5.53051 0.92116,8.29578 0.61312,0.30712 1.22623,0.61429 1.83939,0.92146 -2.75859,3.68708 -5.51719,7.37422 -8.27573,11.06135 -1.83936,0 -3.67875,0 -5.51812,0 0,-3.9943 0,-7.98856 0,-11.98281 -0.61316,0.61429 -1.22627,1.22858 -1.83939,1.84292 0,2.15086 0,4.30172 0,6.45258 -3.98386,0.61441 -7.9677,1.2288 -11.95151,1.84322 0.91916,1.53615 1.83837,3.07231 2.75753,4.60841 2.75859,0 5.51719,0 8.27578,0 -0.61317,3.38002 -1.22626,6.75998 -1.83939,10.13995 -5.21012,0 -10.42019,0 -15.63026,0 -1.83938,0.30676 -3.67876,0.61352 -5.5182,0.92029 0.61317,0.92181 1.22628,1.84368 1.83944,2.76555 2.45249,0.30713 4.90497,0.61429 7.35751,0.92147 0.91916,1.8438 1.83837,3.6876 2.75753,5.53141 0.30611,3.07232 0.61217,6.14463 0.9182,9.21696 -1.83836,1.2291 -3.67673,2.45821 -5.51511,3.68732 -3.37176,0.30752 -6.74345,0.61506 -10.11515,0.92263 0,1.53617 0,3.07232 0,4.60843 1.22627,0.30717 2.45254,0.61434 3.67875,0.92151 0.61317,3.99384 1.22628,7.98775 1.83938,11.98163 1.22627,7.68098 2.45254,15.36196 3.67875,23.04299 3.67681,10.13872 7.35361,20.27742 11.03041,30.41614 -0.61316,0.92188 -1.22627,1.84375 -1.83944,2.76563 -0.61209,0 -1.22426,0 -1.83642,0 0.61216,0.3071 1.22433,0.61428 1.83642,0.92145 1.22628,1.22899 2.45256,2.45798 3.67875,3.68702 1.22628,2.15092 2.45257,4.3019 3.67876,6.45288 0,0.92187 0,1.84374 0,2.76562 -5.21007,-1.84375 -10.42013,-3.68744 -15.63021,-5.53111 -5.51718,-2.15057 -11.0343,-4.30114 -16.55149,-6.45171 -3.37069,-1.22904 -6.74138,-2.45803 -10.11214,-3.68701 -2.75853,-0.30759 -5.51713,-0.61512 -8.27573,-0.92264 -2.45147,-0.61435 -4.90301,-1.2287 -7.35449,-1.84299 -3.06563,-2.15056 -6.13129,-4.30113 -9.19694,-6.45169 -1.83937,-2.15099 -3.67875,-4.30196 -5.51812,-6.45288 -2.75759,-0.92145 -5.51518,-1.84292 -8.27277,-2.76437 -3.67775,-2.76569 -7.3555,-5.53136 -11.0333,-8.29698 -3.06559,-3.07231 -6.13124,-6.14463 -9.19689,-9.21696 -1.53232,-3.9939 -3.06464,-7.98781 -4.59696,-11.98164 -2.45148,-7.06669 -4.90302,-14.13336 -7.35455,-21.20007 -2.14542,-2.76526 -4.29086,-5.53053 -6.43634,-8.29579 -3.3717,-3.3799 -6.74334,-6.75976 -10.11509,-10.13959 -2.45148,-4.60831 -4.90302,-9.21661 -7.35456,-13.82491 -1.83938,-6.75982 -3.67876,-13.51963 -5.51813,-20.27949 -2.45147,-3.07197 -4.90301,-6.144 -7.35455,-9.21602 -3.37171,-5.53047 -6.74341,-11.06088 -10.1151,-16.59129 -3.06465,-6.14488 -6.12929,-12.28968 -9.19393,-18.43456 -0.91915,-4.91573 -1.83837,-9.83143 -2.75759,-14.74715 -2.14542,-3.07284 -4.29085,-6.14563 -6.43634,-9.21843 -3.67816,-3.68713 -7.35632,-7.37427 -11.03448,-11.06134 -2.45189,-1.53615 -4.90378,-3.07232 -7.35573,-4.60848 -3.37146,-0.92187 -6.74299,-1.84375 -10.11451,-2.76557 -1.22591,-1.84303 -2.45189,-3.68607 -3.67786,-5.52904 -4.29068,-1.53617 -8.58136,-3.07232 -12.87207,-4.60849 -7.96845,0 -15.93694,0 -23.9054,0 -4.29108,-0.92187 -8.58218,-1.84374 -12.87326,-2.76555 -2.75826,0 -5.51657,0 -8.27483,0 -1.22595,0.92181 -2.45192,1.84368 -3.67787,2.76555 -2.45192,6.1447 -4.90381,12.28946 -7.35575,18.43422 -0.30645,0.92151 -0.61292,1.8431 -0.91938,2.76467 -3.06465,4.91612 -6.12929,9.83225 -9.19393,14.74837 -2.45192,2.45762 -4.90381,4.91524 -7.35573,7.37287 -0.9196,0.30722 -1.83917,0.61446 -2.75877,0.92175 -4.59747,-2.76491 -9.1949,-5.52976 -13.79237,-8.29462 -2.45192,-1.53628 -4.90382,-3.07255 -7.35573,-4.60877 -1.83879,0 -3.67758,0 -5.51636,0 -4.90381,-1.22905 -9.80765,-2.45804 -14.71146,-3.68702 -7.04898,-1.53616 -14.09795,-3.07231 -21.14693,-4.60847 -11.034272,-5.22302 -22.068586,-10.44601 -33.102867,-15.66896 -2.757883,-2.76555 -5.515767,-5.53112 -8.27365,-8.29667 -2.145545,-6.14446 -4.291091,-12.28893 -6.436636,-18.43333 -2.758684,-3.07274 -5.517335,-6.14547 -8.276012,-9.21814 -1.838786,-2.76527 -3.677572,-5.53052 -5.516358,-8.29579 -1.225948,-6.45199 -2.451924,-12.90399 -3.677866,-19.35598 -3.064736,-4.30154 -6.129496,-8.60308 -9.194226,-12.90457 -2.758686,-1.53627 -5.517332,-3.07254 -8.276014,-4.60876 -2.758266,-4.91584 -5.516569,-9.83167 -8.274828,-14.7475 -3.064737,-2.76549 -6.129498,-5.53093 -9.194228,-8.29638 -1.225945,-3.07255 -2.451926,-6.14505 -3.677863,-9.21758 -3.371496,-3.68663 -6.7430156,-7.37324 -10.1145026,-11.05987 -0.919188,-2.76548 -1.8383524,-5.53092 -2.7575314,-8.29639 0.306018,-5.22289 0.612011,-10.44577 0.918037,-15.66866 68.960371,0 137.920745,0 206.881115,0 2.9e-4,0 -0.44476,1.42919 -0.44476,1.42919 z"
       inkscape:connector-curvature="0"
       sodipodi:nodetypes="cccccccccccccccccccccccccccccccccccccccccccccccccccccccccccccccccccccccccccccccccccccccccccccccccccccccccccccccccccccccccccccccccccccccccccccccccccccccccccccccccccccccccccccccccccccccccccccccccccccccccccccccccccccccccccccccccccccccccccccccccccccccccccscc" />
  </g>
</svg>
